<?xml version="1.0" encoding="utf-8"?>
<!-- Generator: Adobe Illustrator 19.2.1, SVG Export Plug-In . SVG Version: 6.00 Build 0)  -->
<svg version="1.1" id="layer" xmlns="http://www.w3.org/2000/svg" xmlns:xlink="http://www.w3.org/1999/xlink" x="0px" y="0px"
	 viewBox="0 0 652 652" style="enable-background:new 0 0 652 652;" xml:space="preserve">
<style type="text/css">
	.st0{fill:#555555;}
	.st1{fill:#E90029;}
</style>
<path class="st0" d="M242.7,380.2v-28.5h-10.8v-3.8h26.1v3.8h-10.8v28.5H242.7z M265.6,347.9h20.3v3.8H270v10.1h15v3.8h-15v10.7
	h16.1v3.9h-20.6L265.6,347.9L265.6,347.9z M314.7,356.6c-0.2-1.1-0.8-5.6-7-5.6c-7.8,0-9.2,8-9.2,13.3c0,6.1,1.7,12.7,9.1,12.7
	c2,0,3.9-0.5,5.2-1.9c1.2-1.3,1.4-2.6,1.6-3.4h4.9c-0.7,6.3-6.5,9-12.1,9c-11.4,0-13.5-10-13.5-16.3c0-6.8,2.6-17,14.1-17
	c4.6,0,11,1.8,11.6,9.2L314.7,356.6L314.7,356.6z M332.6,347.9v13.9H348v-13.9h4.5v32.3H348v-14.6h-15.3v14.6h-4.5v-32.3H332.6
	L332.6,347.9z M366.1,347.9h6.2l15.9,26.7v-26.7h4.1v32.3h-5.7l-16.4-27.4v27.4H366L366.1,347.9L366.1,347.9z M406.6,351.4
	c3.4-3.6,7.8-4.3,10.8-4.3c9,0,14.6,5.7,14.6,16.7c0,8.6-3.4,17.2-14.9,17.2c-11,0-14.6-7.8-14.6-16.7
	C402.5,360.6,403.1,355.2,406.6,351.4z M410,374.2c1.8,2.3,4.6,2.9,7.2,2.9c2.6,0,5.3-0.7,7.2-2.9c2.6-3.2,2.9-8.3,2.9-10.5
	c0-7.3-2.4-12.9-9.8-12.9c-8.2,0-10.3,6.6-10.3,13.2C407.2,367.5,407.8,371.4,410,374.2z M442.6,347.9h4.4v28.3h15v4h-19.5
	L442.6,347.9L442.6,347.9z M470.9,351.4c3.4-3.6,7.8-4.3,10.8-4.3c8.9,0,14.6,5.7,14.6,16.7c0,8.6-3.5,17.2-14.9,17.2
	c-11,0-14.6-7.8-14.6-16.7C466.8,360.6,467.4,355.2,470.9,351.4z M474.3,374.2c1.8,2.3,4.6,2.9,7.2,2.9c2.6,0,5.3-0.7,7.2-2.9
	c2.6-3.2,2.9-8.3,2.9-10.5c0-7.3-2.4-12.9-9.8-12.9c-8.2,0-10.3,6.6-10.3,13.2C471.5,367.5,472.1,371.4,474.3,374.2z M528,355.9
	c-0.5-3-2.9-5.1-7.3-5.1c-3,0-5.6,0.8-7.3,2.7c-2.8,3.1-3.4,7.3-3.4,10.4c0,2.7,0.6,7.3,3,10.2c2.1,2.4,5.4,3.2,8.6,3.2
	c3.7,0,6-0.7,7-1v-9.6h-7.4V363h11.9v15.9c-1.9,0.6-6,2-11.5,2c-5.9,0-9.4-1.7-11.7-4c-3.2-3.2-4.5-7.7-4.5-12.3
	c0-3.2,0.8-10.8,6.9-14.9c3.2-2.1,7.4-2.3,9-2.3c2.5,0,6.4,0.3,9.5,3.4c1.9,2,2.1,3.9,2.1,5.1L528,355.9L528,355.9z M544.5,347.9
	h4.5v32.3h-4.5V347.9z M561.7,347.9h20.3v3.8h-15.8v10.1h15v3.8h-15v10.7h16.2v3.9h-20.6L561.7,347.9L561.7,347.9z M595.2,370.8
	c0.1,2.2,0.4,6.4,7.8,6.4c6.7,0,7.6-4.2,7.6-5.8c0-3.6-2.9-4.3-7.4-5.5c-4.9-1.2-7.1-1.8-8.8-2.9c-2.6-1.8-3.4-4.2-3.4-6.4
	c0-6.6,6.2-9.4,12.3-9.4c2.2,0,6.5,0.4,9.1,3.2c1.8,2,1.9,4.2,2,5.5h-4.7c-0.2-4-3.6-4.9-6.8-4.9c-4.5,0-7.2,2-7.2,5.2
	c0,2.9,1.9,3.9,5.8,4.8c7.7,2,8.5,2.1,10.4,3.4c3,2,3.2,5.1,3.2,6.4c0,5.7-4.5,10.1-12.7,10.1c-2.5,0-7.5-0.4-10-3.7
	c-1.8-2.4-1.9-5-1.9-6.5H595.2L595.2,370.8z"/>
<path class="st0" d="M233.2,269.3h12.6v25.3l19.7-25.4h14.7l-21.5,26.3l23.4,32.4h-15.7L245.8,298v29.9h-12.6V269.3z M287.8,269.2
	h39.3v9.6h-26.7v14h25v9.6h-25v15.8H328v9.8h-40.2V269.2z M347.3,269.4l12.1,26.7l12.3-26.7h12.9l-19.8,37.1v21.4h-12.4v-21.5
	l-19.8-37C332.6,269.4,347.3,269.4,347.3,269.4z M396.5,309.1c0,2.8-0.2,11.1,10.6,11.1c6.8,0,11.1-3.2,11.1-8.2
	c0-5.2-3.7-6.1-11.1-7.9c-14-3.5-21.6-7.6-21.6-17.8c0-9.7,6.9-18.2,23.2-18.2c6.1,0,13.3,1.4,17.7,6.9c3.3,4.2,3.3,8.9,3.3,10.9
	h-12.1c-0.2-2-0.8-8.9-9.5-8.9c-5.8,0-9.7,3.2-9.7,8c0,5.4,4.3,6.4,12.7,8.5c10.2,2.4,20.1,5.2,20.1,16.7c0,10.6-8.8,19.1-25,19.1
	c-22.5,0-22.7-14.5-22.7-20.1L396.5,309.1L396.5,309.1z M439.3,269h12.6v58.9h-12.6V269z M501.8,287.2c-0.1-1.5-0.2-3.7-1.6-5.9
	c-2.4-3.9-7.1-4.6-9.8-4.6c-14.3,0-17.1,13.3-17.1,22.3c0,4,0.6,11.1,4.9,15.8c2.9,3.2,6.8,5,13.8,5c6.1,0,8.2-0.7,9.6-1.1v-12.4
	h-11.4v-9.7h24V326c-3.6,1.2-9.7,3.2-21.4,3.2c-13.4,0-20.3-3.2-24.9-7.8c-6.6-6.4-7.8-15.8-7.8-21.9c0-20.8,13-31.9,30.8-31.9
	c7.6,0,15.3,2.1,20,7.4c3.9,4.5,4.1,9.1,4.2,12.3L501.8,287.2L501.8,287.2z M524.8,269.2h12.6v23.5h22.2v-23.5h12.8v58.7h-12.6
	v-25.8h-22.3v25.8h-12.6L524.8,269.2L524.8,269.2z M595.9,278.9h-17.5v-9.7H626v9.7h-17.5v49h-12.7L595.9,278.9L595.9,278.9z"/>
<path class="st1" d="M206.7,327.9c-1.4-0.2-4.4-1.7-6.6-9.9c-3.5-13.1-5.1-24.4-10.9-24.4c-5.8,0-8.5,11.3-11.9,24.4
	c-2,7.8-4.2,9.9-7.6,9.9c-3.2,0-6.6-1.6-11.5-21.9c-4.3-17.7-7.2-49.9-21.7-49.9c-14.5,0-18.7,41.9-20.6,50
	c-2.3,10-8,21.8-15.1,21.8c-7.2,0-10.9-8.2-13-17.1c-3.3-13.5-7-33.1-16.5-33.1c-9.5,0-12.6,16.2-16.8,33.9
	C52,322,48,327.9,41.1,327.9H26v0.1l0,0c2,0.6,5.9,3.9,6.9,10.2c2.4,14.9,4.2,24.1,9.4,24.1c5.2,0,7.1-8,10.1-20.4
	c2.4-9.7,6-14,10.4-14c6.5,0,9.5,7.8,13,22.8c7,29.8,8.5,44.2,19.8,44.2c11.2,0,13-14.4,20.5-44.2c3.3-12.9,9.4-22.8,16.6-22.8
	c7.2,0,12.3,9.5,14.9,17.1c5.6,16.5,8.2,22.7,14.4,22.7c6.2,0,9.7-7.4,15.2-25.4c3.4-11.3,4-14.4,14.1-14.4L206.7,327.9L206.7,327.9
	L206.7,327.9z"/>
</svg>
