<svg width="124" height="124" viewBox="0 0 124 124" fill="none" xmlns="http://www.w3.org/2000/svg">
<g clip-path="url(#clip0_451_121)">
<path d="M45.46 56.75H39.56V85.1H45.46V56.75Z" fill="#65C8D0"/>
<path d="M43.47 58.75V83.1H41.56V58.75H43.47ZM47.47 54.75H37.56V87.1H47.47V54.75Z" fill="#65C8D0"/>
<path d="M42.18 48.13C41.4031 48.1201 40.6464 47.8813 40.0046 47.4435C39.3627 47.0057 38.8642 46.3884 38.5715 45.6687C38.2787 44.949 38.2047 44.1589 38.3587 43.3974C38.5127 42.6359 38.8879 41.9367 39.4373 41.3873C39.9867 40.8379 40.6859 40.4627 41.4474 40.3087C42.2089 40.1547 42.999 40.2287 43.7187 40.5215C44.4383 40.8142 45.0557 41.3127 45.4935 41.9546C45.9313 42.5964 46.1701 43.3531 46.18 44.13C46.1867 44.6572 46.0879 45.1803 45.8892 45.6687C45.6906 46.157 45.3962 46.6006 45.0234 46.9734C44.6506 47.3462 44.207 47.6406 43.7187 47.8392C43.2303 48.0379 42.7072 48.1367 42.18 48.13V48.13Z" fill="#65C8D0"/>
<path d="M42.18 42.24C42.5665 42.238 42.9449 42.3509 43.2671 42.5645C43.5893 42.778 43.8408 43.0824 43.9896 43.4391C44.1384 43.7958 44.1779 44.1887 44.103 44.5679C44.0281 44.9471 43.8421 45.2955 43.5688 45.5688C43.2955 45.8421 42.9471 46.0281 42.5679 46.103C42.1888 46.1779 41.7959 46.1384 41.4391 45.9896C41.0824 45.8408 40.778 45.5893 40.5645 45.2671C40.351 44.9449 40.238 44.5665 40.24 44.18C40.24 43.6655 40.4444 43.172 40.8082 42.8082C41.172 42.4444 41.6655 42.24 42.18 42.24V42.24ZM42.18 38.24C41.0049 38.2499 39.8591 38.6075 38.8871 39.2677C37.915 39.9279 37.1601 40.8611 36.7178 41.9498C36.2754 43.0384 36.1652 44.2337 36.4012 45.3848C36.6373 46.5359 37.2088 47.5914 38.0439 48.4181C38.879 49.2449 39.9402 49.8058 41.0936 50.0302C42.2471 50.2547 43.4412 50.1325 44.5253 49.6792C45.6094 49.2259 46.5351 48.4618 47.1855 47.4831C47.8359 46.5044 48.1819 45.3551 48.18 44.18C48.18 43.3949 48.0244 42.6175 47.7222 41.8929C47.4199 41.1683 46.977 40.5108 46.4191 39.9584C45.8611 39.406 45.1992 38.9698 44.4716 38.6748C43.7439 38.3798 42.9651 38.2321 42.18 38.24V38.24Z" fill="#65C8D0"/>
<path d="M62 122C50.1331 122 38.5327 118.481 28.6658 111.888C18.7988 105.295 11.1085 95.9246 6.56722 84.961C2.02597 73.9975 0.837766 61.9335 3.15288 50.2946C5.46799 38.6557 11.1824 27.9648 19.5736 19.5736C27.9647 11.1825 38.6557 5.46802 50.2946 3.15291C61.9334 0.837797 73.9974 2.026 84.961 6.56726C95.9246 11.1085 105.295 18.7989 111.888 28.6658C118.481 38.5328 122 50.1331 122 62C121.981 77.9073 115.654 93.1578 104.406 104.406C93.1578 115.654 77.9073 121.982 62 122V122ZM35.25 27C32.5323 27.0027 29.9267 28.0834 28.0051 30.0051C26.0834 31.9268 25.0026 34.5324 25 37.25V88.75C25.0026 91.4677 26.0834 94.0733 28.0051 95.9949C29.9267 97.9166 32.5323 98.9974 35.25 99H86.75C89.4677 98.9974 92.0732 97.9166 93.9949 95.9949C95.9166 94.0733 96.9974 91.4677 97 88.75V37.25C96.9974 34.5324 95.9166 31.9268 93.9949 30.0051C92.0732 28.0834 89.4677 27.0027 86.75 27H35.25Z" fill="#65C8D0"/>
<path d="M62 4C73.4713 4 84.685 7.40164 94.2231 13.7748C103.761 20.1479 111.195 29.2062 115.585 39.8044C119.975 50.4025 121.123 62.0643 118.886 73.3152C116.648 84.5661 111.124 94.9007 103.012 103.012C94.9007 111.124 84.5661 116.648 73.3152 118.886C62.0643 121.123 50.4025 119.975 39.8044 115.585C29.2062 111.195 20.1479 103.761 13.7748 94.2231C7.40164 84.685 4 73.4713 4 62C4.01852 46.6231 10.1352 31.8814 21.0083 21.0083C31.8814 10.1352 46.6231 4.01852 62 4V4ZM35.25 101H86.75C89.9973 100.995 93.11 99.7024 95.4062 97.4062C97.7024 95.11 98.9947 91.9973 99 88.75V37.25C98.9947 34.0027 97.7024 30.89 95.4062 28.5938C93.11 26.2976 89.9973 25.0053 86.75 25H35.25C32.0027 25.0053 28.89 26.2976 26.5938 28.5938C24.2976 30.89 23.0053 34.0027 23 37.25V88.75C23.0053 91.9973 24.2976 95.11 26.5938 97.4062C28.89 99.7024 32.0027 100.995 35.25 101V101ZM62 0C49.7376 0 37.7505 3.63624 27.5546 10.4489C17.3588 17.2615 9.4121 26.9446 4.71947 38.2736C0.0268331 49.6026 -1.20097 62.0688 1.19131 74.0956C3.58359 86.1224 9.48852 97.1698 18.1594 105.841C26.8302 114.511 37.8776 120.416 49.9044 122.809C61.9312 125.201 74.3974 123.973 85.7264 119.281C97.0554 114.588 106.738 106.641 113.551 96.4454C120.364 86.2495 124 74.2624 124 62C124 45.5566 117.468 29.7866 105.841 18.1594C94.2134 6.53212 78.4434 0 62 0V0ZM35.25 97C33.062 97 30.9635 96.1308 29.4164 94.5836C27.8692 93.0365 27 90.938 27 88.75V37.25C27 35.062 27.8692 32.9635 29.4164 31.4164C30.9635 29.8692 33.062 29 35.25 29H86.75C88.938 29 91.0365 29.8692 92.5836 31.4164C94.1308 32.9635 95 35.062 95 37.25V88.75C95 90.938 94.1308 93.0365 92.5836 94.5836C91.0365 96.1308 88.938 97 86.75 97H35.25Z" fill="#65C8D0"/>
<path d="M77.19 85.1V71.25C77.19 67.82 75.67 61.33 69.91 61.33C63.63 61.33 61.97 67.39 61.97 70.59V85.1H55.41V56.75H61.31V58.75L65.31 59.03C65.3145 59.0665 65.3145 59.1035 65.31 59.14C65.31 59.14 66.23 56.14 74.57 56.14C82.91 56.14 83.09 65 83.1 66V85.1H77.19Z" fill="#65C8D0"/>
<path d="M74.53 58.09C75.6926 57.9926 76.8559 58.2702 77.8493 58.8821C78.8426 59.4939 79.6139 60.4079 80.05 61.49C80.6595 62.908 80.9986 64.4274 81.05 65.97V65.97V83.1H79.19V71.25C79.165 69.4671 78.8751 67.6978 78.33 66C76.91 61.74 73.84 59.3 69.91 59.3C69.0331 59.2936 68.1591 59.4012 67.31 59.62C67.85 59.16 69.63 58.06 74.53 58.06V58.09ZM59.86 58.72L67.27 59.24C67.2508 59.3789 67.2208 59.5159 67.18 59.65C62 61.12 60 66.68 60 70.59V83.1H57.41V58.75H59.86V58.72ZM74.53 54.09C63.97 54.09 63.31 58.71 63.31 58.71V54.71H53.41V87.1H64V70.59C64 70.59 64 63.33 69.94 63.33C75.22 63.33 75.22 71.25 75.22 71.25V87.1H85.1V66C85.1 66 85.1 54.12 74.53 54.12V54.09Z" fill="#65C8D0"/>
</g>
<defs>
<clipPath id="clip0_451_121">
<rect width="124" height="124" fill="white"/>
</clipPath>
</defs>
</svg>
