<svg width="96" height="96" viewBox="0 0 96 96" fill="none" xmlns="http://www.w3.org/2000/svg">
<g clip-path="url(#clip0_12_16)">
<mask id="mask0_12_16" style="mask-type:luminance" maskUnits="userSpaceOnUse" x="0" y="0" width="96" height="96">
<path d="M96 0H0V96H96V0Z" fill="white"/>
</mask>
<g mask="url(#mask0_12_16)">
<path d="M20 49.3V61C20 66.5 32.5 72 48 72C63.5 72 76 66.5 76 61V49.3L48 59.2L20 49.3Z" fill="#8E8E8E"/>
<path d="M48 54.9L91.6 39.6L48 24L4.39999 39.6L9.99999 41.6V60C9.99999 61.1 10.9 62 12 62C13.1 62 14 61.1 14 60V43L48 54.9Z" fill="#8E8E8E"/>
</g>
</g>
<defs>
<clipPath id="clip0_12_16">
<rect width="96" height="96" fill="white"/>
</clipPath>
</defs>
</svg>
