<svg width="96" height="96" viewBox="0 0 96 96" fill="none" xmlns="http://www.w3.org/2000/svg">
<g clip-path="url(#clip0_12_5)">
<mask id="mask0_12_5" style="mask-type:luminance" maskUnits="userSpaceOnUse" x="0" y="0" width="96" height="96">
<path d="M96 0H0V96H96V0Z" fill="white"/>
</mask>
<g mask="url(#mask0_12_5)">
<path d="M33 30.8C33 35.7706 28.9706 39.8 24 39.8C19.0294 39.8 15 35.7706 15 30.8C15 25.8294 19.0294 21.8 24 21.8C28.9706 21.8 33 25.8294 33 30.8Z" fill="#8E8E8E"/>
<path d="M81 30.8C81 35.7706 76.9706 39.8 72 39.8C67.0294 39.8 63 35.7706 63 30.8C63 25.8294 67.0294 21.8 72 21.8C76.9706 21.8 81 25.8294 81 30.8Z" fill="#8E8E8E"/>
<path d="M66 74.2V65.2C66 63.8 65.4 62.4 64.2 61.6C61.8 59.6 58.6 58.2 55.4 57.4C53.2 56.8 50.6 56.2 48 56.2C45.6 56.2 43 56.6 40.6 57.4C37.4 58.2 34.4 59.8 31.8 61.6C30.6 62.6 30 63.8 30 65.2V74.2H66Z" fill="#8E8E8E"/>
<path d="M57 44.8C57 49.7706 52.9706 53.8 48 53.8C43.0294 53.8 39 49.7706 39 44.8C39 39.8294 43.0294 35.8 48 35.8C52.9706 35.8 57 39.8294 57 44.8Z" fill="#8E8E8E"/>
<path d="M88.2 47.6C85.8 45.6 82.6 44.2 79.4 43.4C77.2 42.8 74.6 42.2 72 42.2C69.6 42.2 67 42.6 64.6 43.4C63.4 43.8 62.2 44.2 61 44.8V45C61 48.4 59.6 51.6 57.4 53.8C61.2 55 64.2 56.6 66.6 58.4C67.2 59 67.8 59.4 68.2 60.2H90V51.2C90 49.8 89.4 48.4 88.2 47.6Z" fill="#8E8E8E"/>
<path d="M29.4 58.4C32.2 56.4 35.4 54.8 38.6 53.8C36.4 51.4 35 48.4 35 45C35 44.8 35 44.8 35 44.6C33.8 44.2 32.6 43.6 31.4 43.4C29.2 42.8 26.6 42.2 24 42.2C21.6 42.2 19 42.6 16.6 43.4C13.4 44.4 10.4 45.8 7.8 47.6C6.6 48.4 6 49.8 6 51.2V60.2H27.6C28.2 59.4 28.6 59 29.4 58.4Z" fill="#8E8E8E"/>
</g>
</g>
<defs>
<clipPath id="clip0_12_5">
<rect width="96" height="96" fill="white"/>
</clipPath>
</defs>
</svg>
