<svg width="441" height="119" viewBox="0 0 441 119" fill="none" xmlns="http://www.w3.org/2000/svg">
<line x1="24" y1="55" x2="204" y2="55" stroke="#65C8D0" stroke-width="4"/>
<line x1="224" y1="55" x2="404" y2="55" stroke="#65C8D0" stroke-width="4"/>
<circle cx="14" cy="55" r="12" fill="#65C8D0"/>
<circle cx="216" cy="55" r="12" fill="#65C8D0"/>
<circle cx="416" cy="55" r="12" fill="#65C8D0"/>
<path d="M3.07812 84V75.4336H4.89453V84H3.07812ZM10.6309 77.3262C11.3301 77.3262 11.8926 77.5176 12.3184 77.9004C12.7441 78.2793 12.957 78.8887 12.957 79.7285V84H11.1699V80.1738C11.1699 79.7051 11.084 79.3516 10.9121 79.1133C10.7441 78.875 10.4785 78.7559 10.1152 78.7559C9.56836 78.7559 9.19531 78.9414 8.99609 79.3125C8.79688 79.6836 8.69727 80.2188 8.69727 80.918V84H6.91016V77.4492H8.27539L8.51562 78.2871H8.61523C8.75586 78.0605 8.92969 77.877 9.13672 77.7363C9.34766 77.5957 9.58008 77.4922 9.83398 77.4258C10.0918 77.3594 10.3574 77.3262 10.6309 77.3262ZM18.418 78.791H16.8711V84H15.084V78.791H14.0996V77.9297L15.084 77.4492V76.9688C15.084 76.4102 15.1777 75.9766 15.3652 75.668C15.5566 75.3555 15.8242 75.1367 16.168 75.0117C16.5156 74.8828 16.9258 74.8184 17.3984 74.8184C17.7461 74.8184 18.0625 74.8477 18.3477 74.9062C18.6328 74.9609 18.8652 75.0234 19.0449 75.0938L18.5879 76.4062C18.4512 76.3633 18.3027 76.3242 18.1426 76.2891C17.9824 76.2539 17.7988 76.2363 17.5918 76.2363C17.3418 76.2363 17.1582 76.3125 17.041 76.4648C16.9277 76.6133 16.8711 76.8047 16.8711 77.0391V77.4492H18.418V78.791ZM25.4023 80.7129C25.4023 81.2598 25.3281 81.7441 25.1797 82.166C25.0352 82.5879 24.8223 82.9453 24.541 83.2383C24.2637 83.5273 23.9277 83.7461 23.5332 83.8945C23.1426 84.043 22.7012 84.1172 22.209 84.1172C21.748 84.1172 21.3242 84.043 20.9375 83.8945C20.5547 83.7461 20.2207 83.5273 19.9355 83.2383C19.6543 82.9453 19.4355 82.5879 19.2793 82.166C19.127 81.7441 19.0508 81.2598 19.0508 80.7129C19.0508 79.9863 19.1797 79.3711 19.4375 78.8672C19.6953 78.3633 20.0625 77.9805 20.5391 77.7188C21.0156 77.457 21.584 77.3262 22.2441 77.3262C22.8574 77.3262 23.4004 77.457 23.873 77.7188C24.3496 77.9805 24.7227 78.3633 24.9922 78.8672C25.2656 79.3711 25.4023 79.9863 25.4023 80.7129ZM20.873 80.7129C20.873 81.1426 20.9199 81.5039 21.0137 81.7969C21.1074 82.0898 21.2539 82.3105 21.4531 82.459C21.6523 82.6074 21.9121 82.6816 22.2324 82.6816C22.5488 82.6816 22.8047 82.6074 23 82.459C23.1992 82.3105 23.3438 82.0898 23.4336 81.7969C23.5273 81.5039 23.5742 81.1426 23.5742 80.7129C23.5742 80.2793 23.5273 79.9199 23.4336 79.6348C23.3438 79.3457 23.1992 79.1289 23 78.9844C22.8008 78.8398 22.541 78.7676 22.2207 78.7676C21.748 78.7676 21.4043 78.9297 21.1895 79.2539C20.9785 79.5781 20.873 80.0645 20.873 80.7129ZM35.1934 81.6211C35.1934 82.1289 35.0703 82.5703 34.8242 82.9453C34.5781 83.3203 34.2188 83.6094 33.7461 83.8125C33.2773 84.0156 32.707 84.1172 32.0352 84.1172C31.7383 84.1172 31.4473 84.0977 31.1621 84.0586C30.8809 84.0195 30.6094 83.9629 30.3477 83.8887C30.0898 83.8105 29.8438 83.7148 29.6094 83.6016V81.9141C30.0156 82.0938 30.4375 82.2559 30.875 82.4004C31.3125 82.5449 31.7461 82.6172 32.1758 82.6172C32.4727 82.6172 32.7109 82.5781 32.8906 82.5C33.0742 82.4219 33.207 82.3145 33.2891 82.1777C33.3711 82.041 33.4121 81.8848 33.4121 81.709C33.4121 81.4941 33.3398 81.3105 33.1953 81.1582C33.0508 81.0059 32.8516 80.8633 32.5977 80.7305C32.3477 80.5977 32.0645 80.4551 31.748 80.3027C31.5488 80.209 31.332 80.0957 31.0977 79.9629C30.8633 79.8262 30.6406 79.6602 30.4297 79.4648C30.2188 79.2695 30.0449 79.0332 29.9082 78.7559C29.7754 78.4746 29.709 78.1387 29.709 77.748C29.709 77.2363 29.8262 76.7988 30.0605 76.4355C30.2949 76.0723 30.6289 75.7949 31.0625 75.6035C31.5 75.4082 32.0156 75.3105 32.6094 75.3105C33.0547 75.3105 33.4785 75.3633 33.8809 75.4688C34.2871 75.5703 34.7109 75.7188 35.1523 75.9141L34.5664 77.3262C34.1719 77.166 33.8184 77.043 33.5059 76.957C33.1934 76.8672 32.875 76.8223 32.5508 76.8223C32.3242 76.8223 32.1309 76.8594 31.9707 76.9336C31.8105 77.0039 31.6895 77.1055 31.6074 77.2383C31.5254 77.3672 31.4844 77.5176 31.4844 77.6895C31.4844 77.8926 31.543 78.0645 31.6602 78.2051C31.7812 78.3418 31.9609 78.4746 32.1992 78.6035C32.4414 78.7324 32.7422 78.8828 33.1016 79.0547C33.5391 79.2617 33.9121 79.4785 34.2207 79.7051C34.5332 79.9277 34.7734 80.1914 34.9414 80.4961C35.1094 80.7969 35.1934 81.1719 35.1934 81.6211ZM39.3066 77.3262C39.9121 77.3262 40.4336 77.4434 40.8711 77.6777C41.3086 77.9082 41.6465 78.2441 41.8848 78.6855C42.123 79.127 42.2422 79.666 42.2422 80.3027V81.1699H38.0176C38.0371 81.6738 38.1875 82.0703 38.4688 82.3594C38.7539 82.6445 39.1484 82.7871 39.6523 82.7871C40.0703 82.7871 40.4531 82.7441 40.8008 82.6582C41.1484 82.5723 41.5059 82.4434 41.873 82.2715V83.6543C41.5488 83.8145 41.209 83.9316 40.8535 84.0059C40.502 84.0801 40.0742 84.1172 39.5703 84.1172C38.9141 84.1172 38.332 83.9961 37.8242 83.7539C37.3203 83.5117 36.9238 83.1426 36.6348 82.6465C36.3496 82.1504 36.207 81.5254 36.207 80.7715C36.207 80.0059 36.3359 79.3691 36.5938 78.8613C36.8555 78.3496 37.2188 77.9668 37.6836 77.7129C38.1484 77.4551 38.6895 77.3262 39.3066 77.3262ZM39.3184 78.5977C38.9707 78.5977 38.6816 78.709 38.4512 78.9316C38.2246 79.1543 38.0938 79.5039 38.0586 79.9805H40.5664C40.5625 79.7148 40.5137 79.4785 40.4199 79.2715C40.3301 79.0645 40.1934 78.9004 40.0098 78.7793C39.8301 78.6582 39.5996 78.5977 39.3184 78.5977ZM48.2656 82.0547C48.2656 82.5 48.1602 82.877 47.9492 83.1855C47.7422 83.4902 47.4316 83.7227 47.0176 83.8828C46.6035 84.0391 46.0879 84.1172 45.4707 84.1172C45.0137 84.1172 44.6211 84.0879 44.293 84.0293C43.9688 83.9707 43.6406 83.873 43.3086 83.7363V82.2598C43.6641 82.4199 44.0449 82.5527 44.4512 82.6582C44.8613 82.7598 45.2207 82.8105 45.5293 82.8105C45.877 82.8105 46.125 82.7598 46.2734 82.6582C46.4258 82.5527 46.502 82.416 46.502 82.248C46.502 82.1387 46.4707 82.041 46.4082 81.9551C46.3496 81.8652 46.2207 81.7656 46.0215 81.6562C45.8223 81.543 45.5098 81.3965 45.084 81.2168C44.6738 81.0449 44.3359 80.8711 44.0703 80.6953C43.8086 80.5195 43.6133 80.3125 43.4844 80.0742C43.3594 79.832 43.2969 79.5254 43.2969 79.1543C43.2969 78.5488 43.5312 78.0938 44 77.7891C44.4727 77.4805 45.1035 77.3262 45.8926 77.3262C46.2988 77.3262 46.6855 77.3672 47.0527 77.4492C47.4238 77.5312 47.8047 77.6621 48.1953 77.8418L47.6562 79.1309C47.332 78.9902 47.0254 78.875 46.7363 78.7852C46.4512 78.6953 46.1602 78.6504 45.8633 78.6504C45.6016 78.6504 45.4043 78.6855 45.2715 78.7559C45.1387 78.8262 45.0723 78.9336 45.0723 79.0781C45.0723 79.1836 45.1055 79.2773 45.1719 79.3594C45.2422 79.4414 45.375 79.5332 45.5703 79.6348C45.7695 79.7324 46.0605 79.8594 46.4434 80.0156C46.8145 80.168 47.1367 80.3281 47.4102 80.4961C47.6836 80.6602 47.8945 80.8652 48.043 81.1113C48.1914 81.3535 48.2656 81.668 48.2656 82.0547ZM54.2305 82.0547C54.2305 82.5 54.125 82.877 53.9141 83.1855C53.707 83.4902 53.3965 83.7227 52.9824 83.8828C52.5684 84.0391 52.0527 84.1172 51.4355 84.1172C50.9785 84.1172 50.5859 84.0879 50.2578 84.0293C49.9336 83.9707 49.6055 83.873 49.2734 83.7363V82.2598C49.6289 82.4199 50.0098 82.5527 50.416 82.6582C50.8262 82.7598 51.1855 82.8105 51.4941 82.8105C51.8418 82.8105 52.0898 82.7598 52.2383 82.6582C52.3906 82.5527 52.4668 82.416 52.4668 82.248C52.4668 82.1387 52.4355 82.041 52.373 81.9551C52.3145 81.8652 52.1855 81.7656 51.9863 81.6562C51.7871 81.543 51.4746 81.3965 51.0488 81.2168C50.6387 81.0449 50.3008 80.8711 50.0352 80.6953C49.7734 80.5195 49.5781 80.3125 49.4492 80.0742C49.3242 79.832 49.2617 79.5254 49.2617 79.1543C49.2617 78.5488 49.4961 78.0938 49.9648 77.7891C50.4375 77.4805 51.0684 77.3262 51.8574 77.3262C52.2637 77.3262 52.6504 77.3672 53.0176 77.4492C53.3887 77.5312 53.7695 77.6621 54.1602 77.8418L53.6211 79.1309C53.2969 78.9902 52.9902 78.875 52.7012 78.7852C52.416 78.6953 52.125 78.6504 51.8281 78.6504C51.5664 78.6504 51.3691 78.6855 51.2363 78.7559C51.1035 78.8262 51.0371 78.9336 51.0371 79.0781C51.0371 79.1836 51.0703 79.2773 51.1367 79.3594C51.207 79.4414 51.3398 79.5332 51.5352 79.6348C51.7344 79.7324 52.0254 79.8594 52.4082 80.0156C52.7793 80.168 53.1016 80.3281 53.375 80.4961C53.6484 80.6602 53.8594 80.8652 54.0078 81.1113C54.1562 81.3535 54.2305 81.668 54.2305 82.0547ZM57.4121 77.4492V84H55.625V77.4492H57.4121ZM56.5215 74.8828C56.7871 74.8828 57.0156 74.9453 57.207 75.0703C57.3984 75.1914 57.4941 75.4199 57.4941 75.7559C57.4941 76.0879 57.3984 76.3184 57.207 76.4473C57.0156 76.5723 56.7871 76.6348 56.5215 76.6348C56.252 76.6348 56.0215 76.5723 55.8301 76.4473C55.6426 76.3184 55.5488 76.0879 55.5488 75.7559C55.5488 75.4199 55.6426 75.1914 55.8301 75.0703C56.0215 74.9453 56.252 74.8828 56.5215 74.8828ZM65.2461 80.7129C65.2461 81.2598 65.1719 81.7441 65.0234 82.166C64.8789 82.5879 64.666 82.9453 64.3848 83.2383C64.1074 83.5273 63.7715 83.7461 63.377 83.8945C62.9863 84.043 62.5449 84.1172 62.0527 84.1172C61.5918 84.1172 61.168 84.043 60.7812 83.8945C60.3984 83.7461 60.0645 83.5273 59.7793 83.2383C59.498 82.9453 59.2793 82.5879 59.123 82.166C58.9707 81.7441 58.8945 81.2598 58.8945 80.7129C58.8945 79.9863 59.0234 79.3711 59.2812 78.8672C59.5391 78.3633 59.9062 77.9805 60.3828 77.7188C60.8594 77.457 61.4277 77.3262 62.0879 77.3262C62.7012 77.3262 63.2441 77.457 63.7168 77.7188C64.1934 77.9805 64.5664 78.3633 64.8359 78.8672C65.1094 79.3711 65.2461 79.9863 65.2461 80.7129ZM60.7168 80.7129C60.7168 81.1426 60.7637 81.5039 60.8574 81.7969C60.9512 82.0898 61.0977 82.3105 61.2969 82.459C61.4961 82.6074 61.7559 82.6816 62.0762 82.6816C62.3926 82.6816 62.6484 82.6074 62.8438 82.459C63.043 82.3105 63.1875 82.0898 63.2773 81.7969C63.3711 81.5039 63.418 81.1426 63.418 80.7129C63.418 80.2793 63.3711 79.9199 63.2773 79.6348C63.1875 79.3457 63.043 79.1289 62.8438 78.9844C62.6445 78.8398 62.3848 78.7676 62.0645 78.7676C61.5918 78.7676 61.248 78.9297 61.0332 79.2539C60.8223 79.5781 60.7168 80.0645 60.7168 80.7129ZM70.4434 77.3262C71.1426 77.3262 71.7051 77.5176 72.1309 77.9004C72.5566 78.2793 72.7695 78.8887 72.7695 79.7285V84H70.9824V80.1738C70.9824 79.7051 70.8965 79.3516 70.7246 79.1133C70.5566 78.875 70.291 78.7559 69.9277 78.7559C69.3809 78.7559 69.0078 78.9414 68.8086 79.3125C68.6094 79.6836 68.5098 80.2188 68.5098 80.918V84H66.7227V77.4492H68.0879L68.3281 78.2871H68.4277C68.5684 78.0605 68.7422 77.877 68.9492 77.7363C69.1602 77.5957 69.3926 77.4922 69.6465 77.4258C69.9043 77.3594 70.1699 77.3262 70.4434 77.3262ZM82.6426 79.0547L82.3672 80.4141H83.8789V81.6211H82.1387L81.6875 84H80.3984L80.8555 81.6211H79.7188L79.2734 84H78.0137L78.4473 81.6211H77.0527V80.4141H78.6758L78.9512 79.0547H77.4746V77.8301H79.168L79.6191 75.4453H80.9023L80.4512 77.8301H81.6113L82.0684 75.4453H83.3281L82.8711 77.8301H84.2773V79.0547H82.6426ZM79.9473 80.4141H81.0957L81.3711 79.0547H80.2227L79.9473 80.4141ZM89.5039 84H87.6934V79.043C87.6934 78.9062 87.6953 78.7383 87.6992 78.5391C87.7031 78.3359 87.709 78.1289 87.7168 77.918C87.7246 77.7031 87.7324 77.5098 87.7402 77.3379C87.6973 77.3887 87.6094 77.4766 87.4766 77.6016C87.3477 77.7227 87.2266 77.832 87.1133 77.9297L86.1289 78.7207L85.2559 77.6309L88.0156 75.4336H89.5039V84Z" fill="black"/>
<path d="M8.00586 97.7207C8.00586 98.2285 7.87891 98.6621 7.625 99.0215C7.375 99.377 7.02344 99.6484 6.57031 99.8359C6.11719 100.023 5.58398 100.117 4.9707 100.117C4.64648 100.117 4.33984 100.102 4.05078 100.07C3.76172 100.039 3.49609 99.9941 3.25391 99.9355C3.01172 99.877 2.79883 99.8047 2.61523 99.7188V98.7637C2.9082 98.8848 3.26562 98.998 3.6875 99.1035C4.10938 99.2051 4.55078 99.2559 5.01172 99.2559C5.44141 99.2559 5.80469 99.1992 6.10156 99.0859C6.39844 98.9688 6.62305 98.8027 6.77539 98.5879C6.93164 98.3691 7.00977 98.1074 7.00977 97.8027C7.00977 97.5098 6.94531 97.2656 6.81641 97.0703C6.6875 96.8711 6.47266 96.6914 6.17188 96.5312C5.875 96.3672 5.46875 96.1934 4.95312 96.0098C4.58984 95.8809 4.26953 95.7402 3.99219 95.5879C3.71484 95.4316 3.48242 95.2559 3.29492 95.0605C3.10742 94.8652 2.96484 94.6387 2.86719 94.3809C2.77344 94.123 2.72656 93.8281 2.72656 93.4961C2.72656 93.0391 2.8418 92.6484 3.07227 92.3242C3.30664 91.9961 3.62891 91.7461 4.03906 91.5742C4.45312 91.3984 4.92773 91.3105 5.46289 91.3105C5.91992 91.3105 6.3418 91.3535 6.72852 91.4395C7.11914 91.5254 7.47656 91.6406 7.80078 91.7852L7.49023 92.6406C7.18164 92.5117 6.85352 92.4043 6.50586 92.3184C6.16211 92.2324 5.80664 92.1895 5.43945 92.1895C5.07227 92.1895 4.76172 92.2441 4.50781 92.3535C4.25781 92.459 4.06641 92.6094 3.93359 92.8047C3.80078 93 3.73438 93.2324 3.73438 93.502C3.73438 93.8027 3.79688 94.0527 3.92188 94.252C4.05078 94.4512 4.25391 94.6289 4.53125 94.7852C4.8125 94.9375 5.18359 95.0977 5.64453 95.2656C6.14844 95.4492 6.57617 95.6445 6.92773 95.8516C7.2793 96.0547 7.54688 96.3047 7.73047 96.6016C7.91406 96.8945 8.00586 97.2676 8.00586 97.7207ZM12.084 93.4609C12.6309 93.4609 13.0996 93.582 13.4902 93.8242C13.8809 94.0664 14.1797 94.4062 14.3867 94.8438C14.5938 95.2773 14.6973 95.7852 14.6973 96.3672V96.9707H10.2617C10.2734 97.7246 10.4609 98.2988 10.8242 98.6934C11.1875 99.0879 11.6992 99.2852 12.3594 99.2852C12.7656 99.2852 13.125 99.248 13.4375 99.1738C13.75 99.0996 14.0742 98.9902 14.4102 98.8457V99.7012C14.0859 99.8457 13.7637 99.9512 13.4434 100.018C13.127 100.084 12.752 100.117 12.3184 100.117C11.7012 100.117 11.1621 99.9922 10.7012 99.7422C10.2441 99.4883 9.88867 99.1172 9.63477 98.6289C9.38086 98.1406 9.25391 97.543 9.25391 96.8359C9.25391 96.1445 9.36914 95.5469 9.59961 95.043C9.83398 94.5352 10.1621 94.1445 10.584 93.8711C11.0098 93.5977 11.5098 93.4609 12.084 93.4609ZM12.0723 94.2578C11.5527 94.2578 11.1387 94.4277 10.8301 94.7676C10.5215 95.1074 10.3379 95.582 10.2793 96.1914H13.6777C13.6738 95.8086 13.6133 95.4727 13.4961 95.1836C13.3828 94.8906 13.209 94.6641 12.9746 94.5039C12.7402 94.3398 12.4395 94.2578 12.0723 94.2578ZM19.3672 93.4609C20.168 93.4609 20.8066 93.7363 21.2832 94.2871C21.7598 94.8379 21.998 95.666 21.998 96.7715C21.998 97.502 21.8887 98.1152 21.6699 98.6113C21.4512 99.1074 21.1426 99.4824 20.7441 99.7363C20.3496 99.9902 19.8828 100.117 19.3438 100.117C19.0039 100.117 18.7051 100.072 18.4473 99.9824C18.1895 99.8926 17.9688 99.7715 17.7852 99.6191C17.6016 99.4668 17.4492 99.3008 17.3281 99.1211H17.2578C17.2695 99.2734 17.2832 99.457 17.2988 99.6719C17.3184 99.8867 17.3281 100.074 17.3281 100.234V102.871H16.3496V93.5781H17.1523L17.2812 94.5273H17.3281C17.4531 94.332 17.6055 94.1543 17.7852 93.9941C17.9648 93.8301 18.1836 93.7012 18.4414 93.6074C18.7031 93.5098 19.0117 93.4609 19.3672 93.4609ZM19.1973 94.2812C18.752 94.2812 18.3926 94.3672 18.1191 94.5391C17.8496 94.7109 17.6523 94.9688 17.5273 95.3125C17.4023 95.6523 17.3359 96.0801 17.3281 96.5957V96.7832C17.3281 97.3262 17.3867 97.7852 17.5039 98.1602C17.625 98.5352 17.8223 98.8203 18.0957 99.0156C18.373 99.2109 18.7441 99.3086 19.209 99.3086C19.6074 99.3086 19.9395 99.2012 20.2051 98.9863C20.4707 98.7715 20.668 98.4727 20.7969 98.0898C20.9297 97.7031 20.9961 97.2598 20.9961 96.7598C20.9961 96.002 20.8477 95.4004 20.5508 94.9551C20.2578 94.5059 19.8066 94.2812 19.1973 94.2812ZM30.002 100H29.0527V93.9297C29.0527 93.6992 29.0527 93.502 29.0527 93.3379C29.0566 93.1699 29.0605 93.0176 29.0645 92.8809C29.0723 92.7402 29.082 92.5977 29.0938 92.4531C28.9727 92.5781 28.8594 92.6855 28.7539 92.7754C28.6484 92.8613 28.5176 92.9688 28.3613 93.0977L27.3828 93.8828L26.873 93.2207L29.1934 91.4336H30.002V100ZM34.3555 100L37.8711 92.3242H33.2012V91.4336H38.9141V92.1836L35.4219 100H34.3555ZM41.6621 98.6055L41.7383 98.7402C41.668 99.0254 41.5781 99.3301 41.4688 99.6543C41.3633 99.9785 41.2461 100.303 41.1172 100.627C40.9922 100.955 40.8652 101.262 40.7363 101.547H40.0098C40.0918 101.234 40.1719 100.904 40.25 100.557C40.3281 100.213 40.3984 99.873 40.4609 99.5371C40.5273 99.1973 40.5801 98.8867 40.6191 98.6055H41.6621ZM47.4453 100L50.9609 92.3242H46.291V91.4336H52.0039V92.1836L48.5117 100H47.4453ZM56.0234 91.4336C57.1289 91.4336 57.9355 91.6504 58.4434 92.084C58.9551 92.5137 59.2109 93.1309 59.2109 93.9355C59.2109 94.2988 59.1504 94.6445 59.0293 94.9727C58.9121 95.2969 58.7207 95.584 58.4551 95.834C58.1895 96.0801 57.8398 96.2754 57.4062 96.4199C56.9766 96.5605 56.4492 96.6309 55.8242 96.6309H54.7812V100H53.7852V91.4336H56.0234ZM55.9297 92.2832H54.7812V95.7754H55.7129C56.2598 95.7754 56.7148 95.7168 57.0781 95.5996C57.4453 95.4824 57.7207 95.293 57.9043 95.0312C58.0879 94.7656 58.1797 94.4141 58.1797 93.9766C58.1797 93.4062 57.998 92.9824 57.6348 92.7051C57.2715 92.4238 56.7031 92.2832 55.9297 92.2832ZM64.7715 100L61.8945 92.418H61.8477C61.8633 92.5781 61.877 92.7734 61.8887 93.0039C61.9004 93.2344 61.9102 93.4863 61.918 93.7598C61.9258 94.0293 61.9297 94.3047 61.9297 94.5859V100H61.0039V91.4336H62.4805L65.1934 98.5586H65.2344L67.9883 91.4336H69.4531V100H68.4688V94.5156C68.4688 94.2617 68.4727 94.0078 68.4805 93.7539C68.4883 93.4961 68.498 93.2539 68.5098 93.0273C68.5215 92.7969 68.5332 92.5977 68.5449 92.4297H68.498L65.5859 100H64.7715ZM71.1055 97.2109V96.3438H74.0117V97.2109H71.1055ZM77.9141 91.3105C78.4102 91.3105 78.8496 91.3887 79.2324 91.5449C79.6152 91.7012 79.9141 91.9316 80.1289 92.2363C80.3477 92.5371 80.457 92.9082 80.457 93.3496C80.457 93.6973 80.3809 94.002 80.2285 94.2637C80.0801 94.5215 79.8789 94.748 79.625 94.9434C79.3711 95.1348 79.0898 95.3066 78.7812 95.459C79.1484 95.627 79.4785 95.8164 79.7715 96.0273C80.0684 96.2383 80.3027 96.4863 80.4746 96.7715C80.6465 97.0566 80.7324 97.3945 80.7324 97.7852C80.7324 98.2656 80.6152 98.6816 80.3809 99.0332C80.1504 99.3809 79.8262 99.6484 79.4082 99.8359C78.9902 100.023 78.5 100.117 77.9375 100.117C77.332 100.117 76.8164 100.027 76.3906 99.8477C75.9688 99.6641 75.6465 99.4023 75.4238 99.0625C75.2051 98.7188 75.0957 98.3066 75.0957 97.8262C75.0957 97.4316 75.1797 97.0898 75.3477 96.8008C75.5156 96.5078 75.7383 96.2559 76.0156 96.0449C76.293 95.834 76.5957 95.6562 76.9238 95.5117C76.6387 95.3555 76.377 95.1777 76.1387 94.9785C75.9043 94.7793 75.7168 94.5469 75.5762 94.2812C75.4395 94.0117 75.3711 93.6992 75.3711 93.3438C75.3711 92.9102 75.4805 92.543 75.6992 92.2422C75.9219 91.9375 76.2246 91.707 76.6074 91.5508C76.9941 91.3906 77.4297 91.3105 77.9141 91.3105ZM76.0508 97.832C76.0508 98.2695 76.2051 98.6309 76.5137 98.916C76.8223 99.1973 77.2891 99.3379 77.9141 99.3379C78.5078 99.3379 78.9668 99.1973 79.291 98.916C79.6152 98.6309 79.7773 98.2578 79.7773 97.7969C79.7773 97.5117 79.7031 97.2617 79.5547 97.0469C79.4062 96.8281 79.1953 96.6328 78.9219 96.4609C78.6484 96.2891 78.3262 96.1328 77.9551 95.9922L77.7441 95.916C77.3848 96.0645 77.0781 96.2305 76.8242 96.4141C76.5742 96.5938 76.3828 96.7988 76.25 97.0293C76.1172 97.2598 76.0508 97.5273 76.0508 97.832ZM77.9023 92.1074C77.4414 92.1074 77.0645 92.2188 76.7715 92.4414C76.4785 92.6602 76.332 92.9766 76.332 93.3906C76.332 93.6875 76.4023 93.9395 76.543 94.1465C76.6875 94.3496 76.8828 94.5254 77.1289 94.6738C77.375 94.8184 77.6504 94.9531 77.9551 95.0781C78.252 94.9531 78.5156 94.8164 78.7461 94.668C78.9766 94.5156 79.1582 94.3359 79.291 94.1289C79.4238 93.9219 79.4902 93.6738 79.4902 93.3848C79.4902 92.9707 79.3438 92.6543 79.0508 92.4355C78.7617 92.2168 78.3789 92.1074 77.9023 92.1074ZM84.7695 91.4336C85.875 91.4336 86.6816 91.6504 87.1895 92.084C87.7012 92.5137 87.957 93.1309 87.957 93.9355C87.957 94.2988 87.8965 94.6445 87.7754 94.9727C87.6582 95.2969 87.4668 95.584 87.2012 95.834C86.9355 96.0801 86.5859 96.2754 86.1523 96.4199C85.7227 96.5605 85.1953 96.6309 84.5703 96.6309H83.5273V100H82.5312V91.4336H84.7695ZM84.6758 92.2832H83.5273V95.7754H84.459C85.0059 95.7754 85.4609 95.7168 85.8242 95.5996C86.1914 95.4824 86.4668 95.293 86.6504 95.0312C86.834 94.7656 86.9258 94.4141 86.9258 93.9766C86.9258 93.4062 86.7441 92.9824 86.3809 92.7051C86.0176 92.4238 85.4492 92.2832 84.6758 92.2832ZM93.5176 100L90.6406 92.418H90.5938C90.6094 92.5781 90.623 92.7734 90.6348 93.0039C90.6465 93.2344 90.6562 93.4863 90.6641 93.7598C90.6719 94.0293 90.6758 94.3047 90.6758 94.5859V100H89.75V91.4336H91.2266L93.9395 98.5586H93.9805L96.7344 91.4336H98.1992V100H97.2148V94.5156C97.2148 94.2617 97.2188 94.0078 97.2266 93.7539C97.2344 93.4961 97.2441 93.2539 97.2559 93.0273C97.2676 92.7969 97.2793 92.5977 97.291 92.4297H97.2441L94.332 100H93.5176ZM9.66406 116H8.66797V111.963H4.16797V116H3.17188V107.434H4.16797V111.084H8.66797V107.434H9.66406V116ZM17.4102 112.777C17.4102 113.305 17.3418 113.775 17.2051 114.189C17.0684 114.604 16.8711 114.953 16.6133 115.238C16.3555 115.523 16.043 115.742 15.6758 115.895C15.3125 116.043 14.9004 116.117 14.4395 116.117C14.0098 116.117 13.6152 116.043 13.2559 115.895C12.9004 115.742 12.5918 115.523 12.3301 115.238C12.0723 114.953 11.8711 114.604 11.7266 114.189C11.5859 113.775 11.5156 113.305 11.5156 112.777C11.5156 112.074 11.6348 111.477 11.873 110.984C12.1113 110.488 12.4512 110.111 12.8926 109.854C13.3379 109.592 13.8672 109.461 14.4805 109.461C15.0664 109.461 15.5781 109.592 16.0156 109.854C16.457 110.115 16.7988 110.494 17.041 110.99C17.2871 111.482 17.4102 112.078 17.4102 112.777ZM12.5234 112.777C12.5234 113.293 12.5918 113.74 12.7285 114.119C12.8652 114.498 13.0762 114.791 13.3613 114.998C13.6465 115.205 14.0137 115.309 14.4629 115.309C14.9082 115.309 15.2734 115.205 15.5586 114.998C15.8477 114.791 16.0605 114.498 16.1973 114.119C16.334 113.74 16.4023 113.293 16.4023 112.777C16.4023 112.266 16.334 111.824 16.1973 111.453C16.0605 111.078 15.8496 110.789 15.5645 110.586C15.2793 110.383 14.9102 110.281 14.457 110.281C13.7891 110.281 13.2988 110.502 12.9863 110.943C12.6777 111.385 12.5234 111.996 12.5234 112.777ZM20.0703 116H19.0918V106.883H20.0703V116ZM23.1055 116H22.127V106.883H23.1055V116ZM26.1348 109.578V116H25.1621V109.578H26.1348ZM25.6602 107.176C25.8203 107.176 25.957 107.229 26.0703 107.334C26.1875 107.436 26.2461 107.596 26.2461 107.814C26.2461 108.029 26.1875 108.189 26.0703 108.295C25.957 108.4 25.8203 108.453 25.6602 108.453C25.4922 108.453 25.3516 108.4 25.2383 108.295C25.1289 108.189 25.0742 108.029 25.0742 107.814C25.0742 107.596 25.1289 107.436 25.2383 107.334C25.3516 107.229 25.4922 107.176 25.6602 107.176ZM32.3516 114.242C32.3516 114.652 32.248 114.998 32.041 115.279C31.8379 115.557 31.5449 115.766 31.1621 115.906C30.7832 116.047 30.3301 116.117 29.8027 116.117C29.3535 116.117 28.9648 116.082 28.6367 116.012C28.3086 115.941 28.0215 115.842 27.7754 115.713V114.816C28.0371 114.945 28.3496 115.062 28.7129 115.168C29.0762 115.273 29.4473 115.326 29.8262 115.326C30.3809 115.326 30.7832 115.236 31.0332 115.057C31.2832 114.877 31.4082 114.633 31.4082 114.324C31.4082 114.148 31.3574 113.994 31.2559 113.861C31.1582 113.725 30.9922 113.594 30.7578 113.469C30.5234 113.34 30.1992 113.199 29.7852 113.047C29.375 112.891 29.0195 112.736 28.7188 112.584C28.4219 112.428 28.1914 112.238 28.0273 112.016C27.8672 111.793 27.7871 111.504 27.7871 111.148C27.7871 110.605 28.0059 110.189 28.4434 109.9C28.8848 109.607 29.4629 109.461 30.1777 109.461C30.5645 109.461 30.9258 109.5 31.2617 109.578C31.6016 109.652 31.918 109.754 32.2109 109.883L31.8828 110.662C31.6172 110.549 31.334 110.453 31.0332 110.375C30.7324 110.297 30.4258 110.258 30.1133 110.258C29.6641 110.258 29.3184 110.332 29.0762 110.48C28.8379 110.629 28.7188 110.832 28.7188 111.09C28.7188 111.289 28.7734 111.453 28.8828 111.582C28.9961 111.711 29.1758 111.832 29.4219 111.945C29.668 112.059 29.9922 112.191 30.3945 112.344C30.7969 112.492 31.1445 112.646 31.4375 112.807C31.7305 112.963 31.9551 113.154 32.1113 113.381C32.2715 113.604 32.3516 113.891 32.3516 114.242ZM35.9902 115.32C36.1504 115.32 36.3145 115.307 36.4824 115.279C36.6504 115.252 36.7871 115.219 36.8926 115.18V115.936C36.7793 115.986 36.6211 116.029 36.418 116.064C36.2188 116.1 36.0234 116.117 35.832 116.117C35.4922 116.117 35.1836 116.059 34.9062 115.941C34.6289 115.82 34.4062 115.617 34.2383 115.332C34.0742 115.047 33.9922 114.652 33.9922 114.148V110.34H33.0781V109.865L33.998 109.484L34.3848 108.09H34.9707V109.578H36.8516V110.34H34.9707V114.119C34.9707 114.521 35.0625 114.822 35.2461 115.021C35.4336 115.221 35.6816 115.32 35.9902 115.32ZM40.666 109.461C41.2129 109.461 41.6816 109.582 42.0723 109.824C42.4629 110.066 42.7617 110.406 42.9688 110.844C43.1758 111.277 43.2793 111.785 43.2793 112.367V112.971H38.8438C38.8555 113.725 39.043 114.299 39.4062 114.693C39.7695 115.088 40.2812 115.285 40.9414 115.285C41.3477 115.285 41.707 115.248 42.0195 115.174C42.332 115.1 42.6562 114.99 42.9922 114.846V115.701C42.668 115.846 42.3457 115.951 42.0254 116.018C41.709 116.084 41.334 116.117 40.9004 116.117C40.2832 116.117 39.7441 115.992 39.2832 115.742C38.8262 115.488 38.4707 115.117 38.2168 114.629C37.9629 114.141 37.8359 113.543 37.8359 112.836C37.8359 112.145 37.9512 111.547 38.1816 111.043C38.416 110.535 38.7441 110.145 39.166 109.871C39.5918 109.598 40.0918 109.461 40.666 109.461ZM40.6543 110.258C40.1348 110.258 39.7207 110.428 39.4121 110.768C39.1035 111.107 38.9199 111.582 38.8613 112.191H42.2598C42.2559 111.809 42.1953 111.473 42.0781 111.184C41.9648 110.891 41.791 110.664 41.5566 110.504C41.3223 110.34 41.0215 110.258 40.6543 110.258ZM47.8496 109.461C47.9785 109.461 48.1133 109.469 48.2539 109.484C48.3945 109.496 48.5195 109.514 48.6289 109.537L48.5059 110.439C48.4004 110.412 48.2832 110.391 48.1543 110.375C48.0254 110.359 47.9043 110.352 47.791 110.352C47.5332 110.352 47.2891 110.404 47.0586 110.51C46.832 110.611 46.6328 110.76 46.4609 110.955C46.2891 111.146 46.1543 111.379 46.0566 111.652C45.959 111.922 45.9102 112.223 45.9102 112.555V116H44.9316V109.578H45.7402L45.8457 110.762H45.8867C46.0195 110.523 46.1797 110.307 46.3672 110.111C46.5547 109.912 46.7715 109.754 47.0176 109.637C47.2676 109.52 47.5449 109.461 47.8496 109.461ZM57.8223 109.432C57.8223 109.814 57.748 110.146 57.5996 110.428C57.4512 110.709 57.2441 110.939 56.9785 111.119C56.7129 111.295 56.4004 111.418 56.041 111.488V111.535C56.7207 111.621 57.2305 111.84 57.5703 112.191C57.9141 112.543 58.0859 113.004 58.0859 113.574C58.0859 114.07 57.9688 114.51 57.7344 114.893C57.5039 115.275 57.1484 115.576 56.668 115.795C56.1914 116.01 55.5801 116.117 54.834 116.117C54.3809 116.117 53.9609 116.08 53.5742 116.006C53.1914 115.936 52.8242 115.816 52.4727 115.648V114.734C52.8281 114.91 53.2148 115.049 53.6328 115.15C54.0508 115.248 54.4551 115.297 54.8457 115.297C55.627 115.297 56.1914 115.143 56.5391 114.834C56.8867 114.521 57.0605 114.096 57.0605 113.557C57.0605 113.186 56.9629 112.887 56.7676 112.66C56.5762 112.43 56.2988 112.262 55.9355 112.156C55.5762 112.047 55.1426 111.992 54.6348 111.992H53.7793V111.16H54.6406C55.1055 111.16 55.5 111.092 55.8242 110.955C56.1484 110.818 56.3945 110.627 56.5625 110.381C56.7344 110.131 56.8203 109.836 56.8203 109.496C56.8203 109.062 56.6758 108.729 56.3867 108.494C56.0977 108.256 55.7051 108.137 55.209 108.137C54.9043 108.137 54.627 108.168 54.377 108.23C54.127 108.293 53.8926 108.379 53.6738 108.488C53.4551 108.598 53.2363 108.725 53.0176 108.869L52.5254 108.201C52.8379 107.959 53.2188 107.75 53.668 107.574C54.1172 107.398 54.627 107.311 55.1973 107.311C56.0723 107.311 56.7285 107.51 57.166 107.908C57.6035 108.307 57.8223 108.814 57.8223 109.432ZM59.4805 112.338C59.4805 111.822 59.5156 111.318 59.5859 110.826C59.6602 110.334 59.7832 109.877 59.9551 109.455C60.127 109.029 60.3613 108.656 60.6582 108.336C60.9551 108.016 61.3242 107.766 61.7656 107.586C62.2109 107.402 62.7441 107.311 63.3652 107.311C63.541 107.311 63.7305 107.32 63.9336 107.34C64.1367 107.355 64.3047 107.383 64.4375 107.422V108.26C64.293 108.209 64.127 108.172 63.9395 108.148C63.7559 108.125 63.5703 108.113 63.3828 108.113C62.6562 108.113 62.084 108.271 61.666 108.588C61.252 108.904 60.9531 109.334 60.7695 109.877C60.5859 110.416 60.4805 111.023 60.4531 111.699H60.5176C60.6387 111.504 60.793 111.328 60.9805 111.172C61.168 111.012 61.3945 110.885 61.6602 110.791C61.9297 110.697 62.2422 110.65 62.5977 110.65C63.0977 110.65 63.5332 110.752 63.9043 110.955C64.2793 111.158 64.5684 111.453 64.7715 111.84C64.9785 112.227 65.082 112.695 65.082 113.246C65.082 113.836 64.9727 114.346 64.7539 114.775C64.5352 115.205 64.2227 115.537 63.8164 115.771C63.4141 116.002 62.9336 116.117 62.375 116.117C61.957 116.117 61.5723 116.037 61.2207 115.877C60.8691 115.717 60.5625 115.479 60.3008 115.162C60.043 114.846 59.8418 114.453 59.6973 113.984C59.5527 113.512 59.4805 112.963 59.4805 112.338ZM62.3633 115.297C62.8945 115.297 63.3203 115.127 63.6406 114.787C63.9609 114.447 64.1211 113.934 64.1211 113.246C64.1211 112.684 63.9785 112.238 63.6934 111.91C63.4082 111.582 62.9785 111.418 62.4043 111.418C62.0137 111.418 61.6738 111.5 61.3848 111.664C61.0957 111.824 60.8711 112.027 60.7109 112.273C60.5508 112.52 60.4707 112.77 60.4707 113.023C60.4707 113.281 60.5078 113.543 60.582 113.809C60.6602 114.074 60.7773 114.32 60.9336 114.547C61.0898 114.773 61.2871 114.955 61.5254 115.092C61.7637 115.229 62.043 115.297 62.3633 115.297ZM71.873 116H66.2598V115.186L68.5508 112.859C68.9766 112.43 69.334 112.047 69.623 111.711C69.916 111.375 70.1387 111.045 70.291 110.721C70.4434 110.393 70.5195 110.033 70.5195 109.643C70.5195 109.158 70.375 108.789 70.0859 108.535C69.8008 108.277 69.4238 108.148 68.9551 108.148C68.5449 108.148 68.1816 108.219 67.8652 108.359C67.5488 108.5 67.2246 108.699 66.8926 108.957L66.3711 108.301C66.5977 108.109 66.8438 107.939 67.1094 107.791C67.3789 107.643 67.666 107.525 67.9707 107.439C68.2793 107.354 68.6074 107.311 68.9551 107.311C69.4824 107.311 69.9375 107.402 70.3203 107.586C70.7031 107.77 70.998 108.031 71.2051 108.371C71.416 108.711 71.5215 109.115 71.5215 109.584C71.5215 110.037 71.4316 110.459 71.252 110.85C71.0723 111.236 70.8203 111.621 70.4961 112.004C70.1719 112.383 69.793 112.785 69.3594 113.211L67.4961 115.068V115.109H71.873V116Z" fill="black"/>
<path d="M177.078 84V75.4336H178.895V84H177.078ZM184.631 77.3262C185.33 77.3262 185.893 77.5176 186.318 77.9004C186.744 78.2793 186.957 78.8887 186.957 79.7285V84H185.17V80.1738C185.17 79.7051 185.084 79.3516 184.912 79.1133C184.744 78.875 184.479 78.7559 184.115 78.7559C183.568 78.7559 183.195 78.9414 182.996 79.3125C182.797 79.6836 182.697 80.2188 182.697 80.918V84H180.91V77.4492H182.275L182.516 78.2871H182.615C182.756 78.0605 182.93 77.877 183.137 77.7363C183.348 77.5957 183.58 77.4922 183.834 77.4258C184.092 77.3594 184.357 77.3262 184.631 77.3262ZM192.418 78.791H190.871V84H189.084V78.791H188.1V77.9297L189.084 77.4492V76.9688C189.084 76.4102 189.178 75.9766 189.365 75.668C189.557 75.3555 189.824 75.1367 190.168 75.0117C190.516 74.8828 190.926 74.8184 191.398 74.8184C191.746 74.8184 192.062 74.8477 192.348 74.9062C192.633 74.9609 192.865 75.0234 193.045 75.0938L192.588 76.4062C192.451 76.3633 192.303 76.3242 192.143 76.2891C191.982 76.2539 191.799 76.2363 191.592 76.2363C191.342 76.2363 191.158 76.3125 191.041 76.4648C190.928 76.6133 190.871 76.8047 190.871 77.0391V77.4492H192.418V78.791ZM199.402 80.7129C199.402 81.2598 199.328 81.7441 199.18 82.166C199.035 82.5879 198.822 82.9453 198.541 83.2383C198.264 83.5273 197.928 83.7461 197.533 83.8945C197.143 84.043 196.701 84.1172 196.209 84.1172C195.748 84.1172 195.324 84.043 194.938 83.8945C194.555 83.7461 194.221 83.5273 193.936 83.2383C193.654 82.9453 193.436 82.5879 193.279 82.166C193.127 81.7441 193.051 81.2598 193.051 80.7129C193.051 79.9863 193.18 79.3711 193.438 78.8672C193.695 78.3633 194.062 77.9805 194.539 77.7188C195.016 77.457 195.584 77.3262 196.244 77.3262C196.857 77.3262 197.4 77.457 197.873 77.7188C198.35 77.9805 198.723 78.3633 198.992 78.8672C199.266 79.3711 199.402 79.9863 199.402 80.7129ZM194.873 80.7129C194.873 81.1426 194.92 81.5039 195.014 81.7969C195.107 82.0898 195.254 82.3105 195.453 82.459C195.652 82.6074 195.912 82.6816 196.232 82.6816C196.549 82.6816 196.805 82.6074 197 82.459C197.199 82.3105 197.344 82.0898 197.434 81.7969C197.527 81.5039 197.574 81.1426 197.574 80.7129C197.574 80.2793 197.527 79.9199 197.434 79.6348C197.344 79.3457 197.199 79.1289 197 78.9844C196.801 78.8398 196.541 78.7676 196.221 78.7676C195.748 78.7676 195.404 78.9297 195.189 79.2539C194.979 79.5781 194.873 80.0645 194.873 80.7129ZM209.193 81.6211C209.193 82.1289 209.07 82.5703 208.824 82.9453C208.578 83.3203 208.219 83.6094 207.746 83.8125C207.277 84.0156 206.707 84.1172 206.035 84.1172C205.738 84.1172 205.447 84.0977 205.162 84.0586C204.881 84.0195 204.609 83.9629 204.348 83.8887C204.09 83.8105 203.844 83.7148 203.609 83.6016V81.9141C204.016 82.0938 204.438 82.2559 204.875 82.4004C205.312 82.5449 205.746 82.6172 206.176 82.6172C206.473 82.6172 206.711 82.5781 206.891 82.5C207.074 82.4219 207.207 82.3145 207.289 82.1777C207.371 82.041 207.412 81.8848 207.412 81.709C207.412 81.4941 207.34 81.3105 207.195 81.1582C207.051 81.0059 206.852 80.8633 206.598 80.7305C206.348 80.5977 206.064 80.4551 205.748 80.3027C205.549 80.209 205.332 80.0957 205.098 79.9629C204.863 79.8262 204.641 79.6602 204.43 79.4648C204.219 79.2695 204.045 79.0332 203.908 78.7559C203.775 78.4746 203.709 78.1387 203.709 77.748C203.709 77.2363 203.826 76.7988 204.061 76.4355C204.295 76.0723 204.629 75.7949 205.062 75.6035C205.5 75.4082 206.016 75.3105 206.609 75.3105C207.055 75.3105 207.479 75.3633 207.881 75.4688C208.287 75.5703 208.711 75.7188 209.152 75.9141L208.566 77.3262C208.172 77.166 207.818 77.043 207.506 76.957C207.193 76.8672 206.875 76.8223 206.551 76.8223C206.324 76.8223 206.131 76.8594 205.971 76.9336C205.811 77.0039 205.689 77.1055 205.607 77.2383C205.525 77.3672 205.484 77.5176 205.484 77.6895C205.484 77.8926 205.543 78.0645 205.66 78.2051C205.781 78.3418 205.961 78.4746 206.199 78.6035C206.441 78.7324 206.742 78.8828 207.102 79.0547C207.539 79.2617 207.912 79.4785 208.221 79.7051C208.533 79.9277 208.773 80.1914 208.941 80.4961C209.109 80.7969 209.193 81.1719 209.193 81.6211ZM213.307 77.3262C213.912 77.3262 214.434 77.4434 214.871 77.6777C215.309 77.9082 215.646 78.2441 215.885 78.6855C216.123 79.127 216.242 79.666 216.242 80.3027V81.1699H212.018C212.037 81.6738 212.188 82.0703 212.469 82.3594C212.754 82.6445 213.148 82.7871 213.652 82.7871C214.07 82.7871 214.453 82.7441 214.801 82.6582C215.148 82.5723 215.506 82.4434 215.873 82.2715V83.6543C215.549 83.8145 215.209 83.9316 214.854 84.0059C214.502 84.0801 214.074 84.1172 213.57 84.1172C212.914 84.1172 212.332 83.9961 211.824 83.7539C211.32 83.5117 210.924 83.1426 210.635 82.6465C210.35 82.1504 210.207 81.5254 210.207 80.7715C210.207 80.0059 210.336 79.3691 210.594 78.8613C210.855 78.3496 211.219 77.9668 211.684 77.7129C212.148 77.4551 212.689 77.3262 213.307 77.3262ZM213.318 78.5977C212.971 78.5977 212.682 78.709 212.451 78.9316C212.225 79.1543 212.094 79.5039 212.059 79.9805H214.566C214.562 79.7148 214.514 79.4785 214.42 79.2715C214.33 79.0645 214.193 78.9004 214.01 78.7793C213.83 78.6582 213.6 78.5977 213.318 78.5977ZM222.266 82.0547C222.266 82.5 222.16 82.877 221.949 83.1855C221.742 83.4902 221.432 83.7227 221.018 83.8828C220.604 84.0391 220.088 84.1172 219.471 84.1172C219.014 84.1172 218.621 84.0879 218.293 84.0293C217.969 83.9707 217.641 83.873 217.309 83.7363V82.2598C217.664 82.4199 218.045 82.5527 218.451 82.6582C218.861 82.7598 219.221 82.8105 219.529 82.8105C219.877 82.8105 220.125 82.7598 220.273 82.6582C220.426 82.5527 220.502 82.416 220.502 82.248C220.502 82.1387 220.471 82.041 220.408 81.9551C220.35 81.8652 220.221 81.7656 220.021 81.6562C219.822 81.543 219.51 81.3965 219.084 81.2168C218.674 81.0449 218.336 80.8711 218.07 80.6953C217.809 80.5195 217.613 80.3125 217.484 80.0742C217.359 79.832 217.297 79.5254 217.297 79.1543C217.297 78.5488 217.531 78.0938 218 77.7891C218.473 77.4805 219.104 77.3262 219.893 77.3262C220.299 77.3262 220.686 77.3672 221.053 77.4492C221.424 77.5312 221.805 77.6621 222.195 77.8418L221.656 79.1309C221.332 78.9902 221.025 78.875 220.736 78.7852C220.451 78.6953 220.16 78.6504 219.863 78.6504C219.602 78.6504 219.404 78.6855 219.271 78.7559C219.139 78.8262 219.072 78.9336 219.072 79.0781C219.072 79.1836 219.105 79.2773 219.172 79.3594C219.242 79.4414 219.375 79.5332 219.57 79.6348C219.77 79.7324 220.061 79.8594 220.443 80.0156C220.814 80.168 221.137 80.3281 221.41 80.4961C221.684 80.6602 221.895 80.8652 222.043 81.1113C222.191 81.3535 222.266 81.668 222.266 82.0547ZM228.23 82.0547C228.23 82.5 228.125 82.877 227.914 83.1855C227.707 83.4902 227.396 83.7227 226.982 83.8828C226.568 84.0391 226.053 84.1172 225.436 84.1172C224.979 84.1172 224.586 84.0879 224.258 84.0293C223.934 83.9707 223.605 83.873 223.273 83.7363V82.2598C223.629 82.4199 224.01 82.5527 224.416 82.6582C224.826 82.7598 225.186 82.8105 225.494 82.8105C225.842 82.8105 226.09 82.7598 226.238 82.6582C226.391 82.5527 226.467 82.416 226.467 82.248C226.467 82.1387 226.436 82.041 226.373 81.9551C226.314 81.8652 226.186 81.7656 225.986 81.6562C225.787 81.543 225.475 81.3965 225.049 81.2168C224.639 81.0449 224.301 80.8711 224.035 80.6953C223.773 80.5195 223.578 80.3125 223.449 80.0742C223.324 79.832 223.262 79.5254 223.262 79.1543C223.262 78.5488 223.496 78.0938 223.965 77.7891C224.438 77.4805 225.068 77.3262 225.857 77.3262C226.264 77.3262 226.65 77.3672 227.018 77.4492C227.389 77.5312 227.77 77.6621 228.16 77.8418L227.621 79.1309C227.297 78.9902 226.99 78.875 226.701 78.7852C226.416 78.6953 226.125 78.6504 225.828 78.6504C225.566 78.6504 225.369 78.6855 225.236 78.7559C225.104 78.8262 225.037 78.9336 225.037 79.0781C225.037 79.1836 225.07 79.2773 225.137 79.3594C225.207 79.4414 225.34 79.5332 225.535 79.6348C225.734 79.7324 226.025 79.8594 226.408 80.0156C226.779 80.168 227.102 80.3281 227.375 80.4961C227.648 80.6602 227.859 80.8652 228.008 81.1113C228.156 81.3535 228.23 81.668 228.23 82.0547ZM231.412 77.4492V84H229.625V77.4492H231.412ZM230.521 74.8828C230.787 74.8828 231.016 74.9453 231.207 75.0703C231.398 75.1914 231.494 75.4199 231.494 75.7559C231.494 76.0879 231.398 76.3184 231.207 76.4473C231.016 76.5723 230.787 76.6348 230.521 76.6348C230.252 76.6348 230.021 76.5723 229.83 76.4473C229.643 76.3184 229.549 76.0879 229.549 75.7559C229.549 75.4199 229.643 75.1914 229.83 75.0703C230.021 74.9453 230.252 74.8828 230.521 74.8828ZM239.246 80.7129C239.246 81.2598 239.172 81.7441 239.023 82.166C238.879 82.5879 238.666 82.9453 238.385 83.2383C238.107 83.5273 237.771 83.7461 237.377 83.8945C236.986 84.043 236.545 84.1172 236.053 84.1172C235.592 84.1172 235.168 84.043 234.781 83.8945C234.398 83.7461 234.064 83.5273 233.779 83.2383C233.498 82.9453 233.279 82.5879 233.123 82.166C232.971 81.7441 232.895 81.2598 232.895 80.7129C232.895 79.9863 233.023 79.3711 233.281 78.8672C233.539 78.3633 233.906 77.9805 234.383 77.7188C234.859 77.457 235.428 77.3262 236.088 77.3262C236.701 77.3262 237.244 77.457 237.717 77.7188C238.193 77.9805 238.566 78.3633 238.836 78.8672C239.109 79.3711 239.246 79.9863 239.246 80.7129ZM234.717 80.7129C234.717 81.1426 234.764 81.5039 234.857 81.7969C234.951 82.0898 235.098 82.3105 235.297 82.459C235.496 82.6074 235.756 82.6816 236.076 82.6816C236.393 82.6816 236.648 82.6074 236.844 82.459C237.043 82.3105 237.188 82.0898 237.277 81.7969C237.371 81.5039 237.418 81.1426 237.418 80.7129C237.418 80.2793 237.371 79.9199 237.277 79.6348C237.188 79.3457 237.043 79.1289 236.844 78.9844C236.645 78.8398 236.385 78.7676 236.064 78.7676C235.592 78.7676 235.248 78.9297 235.033 79.2539C234.822 79.5781 234.717 80.0645 234.717 80.7129ZM244.443 77.3262C245.143 77.3262 245.705 77.5176 246.131 77.9004C246.557 78.2793 246.77 78.8887 246.77 79.7285V84H244.982V80.1738C244.982 79.7051 244.896 79.3516 244.725 79.1133C244.557 78.875 244.291 78.7559 243.928 78.7559C243.381 78.7559 243.008 78.9414 242.809 79.3125C242.609 79.6836 242.51 80.2188 242.51 80.918V84H240.723V77.4492H242.088L242.328 78.2871H242.428C242.568 78.0605 242.742 77.877 242.949 77.7363C243.16 77.5957 243.393 77.4922 243.646 77.4258C243.904 77.3594 244.17 77.3262 244.443 77.3262ZM256.643 79.0547L256.367 80.4141H257.879V81.6211H256.139L255.688 84H254.398L254.855 81.6211H253.719L253.273 84H252.014L252.447 81.6211H251.053V80.4141H252.676L252.951 79.0547H251.475V77.8301H253.168L253.619 75.4453H254.902L254.451 77.8301H255.611L256.068 75.4453H257.328L256.871 77.8301H258.277V79.0547H256.643ZM253.947 80.4141H255.096L255.371 79.0547H254.223L253.947 80.4141ZM265.016 84H259.027V82.7402L261.178 80.5664C261.611 80.1211 261.959 79.75 262.221 79.4531C262.486 79.1523 262.678 78.8789 262.795 78.6328C262.916 78.3867 262.977 78.123 262.977 77.8418C262.977 77.502 262.881 77.248 262.689 77.0801C262.502 76.9082 262.25 76.8223 261.934 76.8223C261.602 76.8223 261.279 76.8984 260.967 77.0508C260.654 77.2031 260.328 77.4199 259.988 77.7012L259.004 76.5352C259.25 76.3242 259.51 76.125 259.783 75.9375C260.061 75.75 260.381 75.5996 260.744 75.4863C261.111 75.3691 261.551 75.3105 262.062 75.3105C262.625 75.3105 263.107 75.4121 263.51 75.6152C263.916 75.8184 264.229 76.0957 264.447 76.4473C264.666 76.7949 264.775 77.1895 264.775 77.6309C264.775 78.1035 264.682 78.5352 264.494 78.9258C264.307 79.3164 264.033 79.7031 263.674 80.0859C263.318 80.4688 262.889 80.8926 262.385 81.3574L261.283 82.3945V82.4766H265.016V84Z" fill="black"/>
<path d="M184.602 95.7051C184.602 96.3652 184.518 96.9668 184.35 97.5098C184.182 98.0488 183.932 98.5137 183.6 98.9043C183.271 99.291 182.863 99.5898 182.375 99.8008C181.887 100.012 181.32 100.117 180.676 100.117C180.012 100.117 179.432 100.012 178.936 99.8008C178.443 99.5898 178.033 99.2891 177.705 98.8984C177.381 98.5078 177.137 98.041 176.973 97.498C176.812 96.9551 176.732 96.3535 176.732 95.6934C176.732 94.8184 176.877 94.0508 177.166 93.3906C177.455 92.7305 177.893 92.2168 178.479 91.8496C179.068 91.4824 179.807 91.2988 180.693 91.2988C181.541 91.2988 182.254 91.4805 182.832 91.8438C183.414 92.207 183.854 92.7188 184.15 93.3789C184.451 94.0352 184.602 94.8105 184.602 95.7051ZM177.781 95.7051C177.781 96.4316 177.885 97.0605 178.092 97.5918C178.299 98.123 178.615 98.5332 179.041 98.8223C179.471 99.1113 180.016 99.2559 180.676 99.2559C181.34 99.2559 181.883 99.1113 182.305 98.8223C182.73 98.5332 183.045 98.123 183.248 97.5918C183.451 97.0605 183.553 96.4316 183.553 95.7051C183.553 94.5996 183.32 93.7363 182.855 93.1152C182.395 92.4902 181.674 92.1777 180.693 92.1777C180.029 92.1777 179.482 92.3203 179.053 92.6055C178.623 92.8906 178.303 93.2969 178.092 93.8242C177.885 94.3477 177.781 94.9746 177.781 95.7051ZM188.938 100.117C188.359 100.117 187.85 99.998 187.408 99.7598C186.967 99.5215 186.623 99.1582 186.377 98.6699C186.131 98.1816 186.008 97.5664 186.008 96.8242C186.008 96.0469 186.137 95.4121 186.395 94.9199C186.656 94.4238 187.016 94.0566 187.473 93.8184C187.93 93.5801 188.449 93.4609 189.031 93.4609C189.352 93.4609 189.66 93.4941 189.957 93.5605C190.258 93.623 190.504 93.7031 190.695 93.8008L190.402 94.6152C190.207 94.5371 189.98 94.4668 189.723 94.4043C189.469 94.3418 189.23 94.3105 189.008 94.3105C188.562 94.3105 188.191 94.4062 187.895 94.5977C187.602 94.7891 187.381 95.0703 187.232 95.4414C187.088 95.8125 187.016 96.2695 187.016 96.8125C187.016 97.332 187.086 97.7754 187.227 98.1426C187.371 98.5098 187.584 98.791 187.865 98.9863C188.15 99.1777 188.506 99.2734 188.932 99.2734C189.271 99.2734 189.578 99.2383 189.852 99.168C190.125 99.0938 190.373 99.0078 190.596 98.9102V99.7773C190.381 99.8867 190.141 99.9707 189.875 100.029C189.613 100.088 189.301 100.117 188.938 100.117ZM194.193 99.3203C194.354 99.3203 194.518 99.3066 194.686 99.2793C194.854 99.252 194.99 99.2188 195.096 99.1797V99.9355C194.982 99.9863 194.824 100.029 194.621 100.064C194.422 100.1 194.227 100.117 194.035 100.117C193.695 100.117 193.387 100.059 193.109 99.9414C192.832 99.8203 192.609 99.6172 192.441 99.332C192.277 99.0469 192.195 98.6523 192.195 98.1484V94.3398H191.281V93.8652L192.201 93.4844L192.588 92.0898H193.174V93.5781H195.055V94.3398H193.174V98.1191C193.174 98.5215 193.266 98.8223 193.449 99.0215C193.637 99.2207 193.885 99.3203 194.193 99.3203ZM202.701 100H201.752V93.9297C201.752 93.6992 201.752 93.502 201.752 93.3379C201.756 93.1699 201.76 93.0176 201.764 92.8809C201.771 92.7402 201.781 92.5977 201.793 92.4531C201.672 92.5781 201.559 92.6855 201.453 92.7754C201.348 92.8613 201.217 92.9688 201.061 93.0977L200.082 93.8828L199.572 93.2207L201.893 91.4336H202.701V100ZM207.494 98.6055L207.57 98.7402C207.5 99.0254 207.41 99.3301 207.301 99.6543C207.195 99.9785 207.078 100.303 206.949 100.627C206.824 100.955 206.697 101.262 206.568 101.547H205.842C205.924 101.234 206.004 100.904 206.082 100.557C206.16 100.213 206.23 99.873 206.293 99.5371C206.359 99.1973 206.412 98.8867 206.451 98.6055H207.494ZM213.277 100L216.793 92.3242H212.123V91.4336H217.836V92.1836L214.344 100H213.277ZM221.855 91.4336C222.961 91.4336 223.768 91.6504 224.275 92.084C224.787 92.5137 225.043 93.1309 225.043 93.9355C225.043 94.2988 224.982 94.6445 224.861 94.9727C224.744 95.2969 224.553 95.584 224.287 95.834C224.021 96.0801 223.672 96.2754 223.238 96.4199C222.809 96.5605 222.281 96.6309 221.656 96.6309H220.613V100H219.617V91.4336H221.855ZM221.762 92.2832H220.613V95.7754H221.545C222.092 95.7754 222.547 95.7168 222.91 95.5996C223.277 95.4824 223.553 95.293 223.736 95.0312C223.92 94.7656 224.012 94.4141 224.012 93.9766C224.012 93.4062 223.83 92.9824 223.467 92.7051C223.104 92.4238 222.535 92.2832 221.762 92.2832ZM230.604 100L227.727 92.418H227.68C227.695 92.5781 227.709 92.7734 227.721 93.0039C227.732 93.2344 227.742 93.4863 227.75 93.7598C227.758 94.0293 227.762 94.3047 227.762 94.5859V100H226.836V91.4336H228.312L231.025 98.5586H231.066L233.82 91.4336H235.285V100H234.301V94.5156C234.301 94.2617 234.305 94.0078 234.312 93.7539C234.32 93.4961 234.33 93.2539 234.342 93.0273C234.354 92.7969 234.365 92.5977 234.377 92.4297H234.33L231.418 100H230.604ZM236.938 97.2109V96.3438H239.844V97.2109H236.938ZM243.746 91.3105C244.242 91.3105 244.682 91.3887 245.064 91.5449C245.447 91.7012 245.746 91.9316 245.961 92.2363C246.18 92.5371 246.289 92.9082 246.289 93.3496C246.289 93.6973 246.213 94.002 246.061 94.2637C245.912 94.5215 245.711 94.748 245.457 94.9434C245.203 95.1348 244.922 95.3066 244.613 95.459C244.98 95.627 245.311 95.8164 245.604 96.0273C245.9 96.2383 246.135 96.4863 246.307 96.7715C246.479 97.0566 246.564 97.3945 246.564 97.7852C246.564 98.2656 246.447 98.6816 246.213 99.0332C245.982 99.3809 245.658 99.6484 245.24 99.8359C244.822 100.023 244.332 100.117 243.77 100.117C243.164 100.117 242.648 100.027 242.223 99.8477C241.801 99.6641 241.479 99.4023 241.256 99.0625C241.037 98.7188 240.928 98.3066 240.928 97.8262C240.928 97.4316 241.012 97.0898 241.18 96.8008C241.348 96.5078 241.57 96.2559 241.848 96.0449C242.125 95.834 242.428 95.6562 242.756 95.5117C242.471 95.3555 242.209 95.1777 241.971 94.9785C241.736 94.7793 241.549 94.5469 241.408 94.2812C241.271 94.0117 241.203 93.6992 241.203 93.3438C241.203 92.9102 241.312 92.543 241.531 92.2422C241.754 91.9375 242.057 91.707 242.439 91.5508C242.826 91.3906 243.262 91.3105 243.746 91.3105ZM241.883 97.832C241.883 98.2695 242.037 98.6309 242.346 98.916C242.654 99.1973 243.121 99.3379 243.746 99.3379C244.34 99.3379 244.799 99.1973 245.123 98.916C245.447 98.6309 245.609 98.2578 245.609 97.7969C245.609 97.5117 245.535 97.2617 245.387 97.0469C245.238 96.8281 245.027 96.6328 244.754 96.4609C244.48 96.2891 244.158 96.1328 243.787 95.9922L243.576 95.916C243.217 96.0645 242.91 96.2305 242.656 96.4141C242.406 96.5938 242.215 96.7988 242.082 97.0293C241.949 97.2598 241.883 97.5273 241.883 97.832ZM243.734 92.1074C243.273 92.1074 242.896 92.2188 242.604 92.4414C242.311 92.6602 242.164 92.9766 242.164 93.3906C242.164 93.6875 242.234 93.9395 242.375 94.1465C242.52 94.3496 242.715 94.5254 242.961 94.6738C243.207 94.8184 243.482 94.9531 243.787 95.0781C244.084 94.9531 244.348 94.8164 244.578 94.668C244.809 94.5156 244.99 94.3359 245.123 94.1289C245.256 93.9219 245.322 93.6738 245.322 93.3848C245.322 92.9707 245.176 92.6543 244.883 92.4355C244.594 92.2168 244.211 92.1074 243.734 92.1074ZM250.602 91.4336C251.707 91.4336 252.514 91.6504 253.021 92.084C253.533 92.5137 253.789 93.1309 253.789 93.9355C253.789 94.2988 253.729 94.6445 253.607 94.9727C253.49 95.2969 253.299 95.584 253.033 95.834C252.768 96.0801 252.418 96.2754 251.984 96.4199C251.555 96.5605 251.027 96.6309 250.402 96.6309H249.359V100H248.363V91.4336H250.602ZM250.508 92.2832H249.359V95.7754H250.291C250.838 95.7754 251.293 95.7168 251.656 95.5996C252.023 95.4824 252.299 95.293 252.482 95.0312C252.666 94.7656 252.758 94.4141 252.758 93.9766C252.758 93.4062 252.576 92.9824 252.213 92.7051C251.85 92.4238 251.281 92.2832 250.508 92.2832ZM259.35 100L256.473 92.418H256.426C256.441 92.5781 256.455 92.7734 256.467 93.0039C256.479 93.2344 256.488 93.4863 256.496 93.7598C256.504 94.0293 256.508 94.3047 256.508 94.5859V100H255.582V91.4336H257.059L259.771 98.5586H259.812L262.566 91.4336H264.031V100H263.047V94.5156C263.047 94.2617 263.051 94.0078 263.059 93.7539C263.066 93.4961 263.076 93.2539 263.088 93.0273C263.1 92.7969 263.111 92.5977 263.123 92.4297H263.076L260.164 100H259.35ZM183.664 116H182.668V111.963H178.168V116H177.172V107.434H178.168V111.084H182.668V107.434H183.664V116ZM191.41 112.777C191.41 113.305 191.342 113.775 191.205 114.189C191.068 114.604 190.871 114.953 190.613 115.238C190.355 115.523 190.043 115.742 189.676 115.895C189.312 116.043 188.9 116.117 188.439 116.117C188.01 116.117 187.615 116.043 187.256 115.895C186.9 115.742 186.592 115.523 186.33 115.238C186.072 114.953 185.871 114.604 185.727 114.189C185.586 113.775 185.516 113.305 185.516 112.777C185.516 112.074 185.635 111.477 185.873 110.984C186.111 110.488 186.451 110.111 186.893 109.854C187.338 109.592 187.867 109.461 188.48 109.461C189.066 109.461 189.578 109.592 190.016 109.854C190.457 110.115 190.799 110.494 191.041 110.99C191.287 111.482 191.41 112.078 191.41 112.777ZM186.523 112.777C186.523 113.293 186.592 113.74 186.729 114.119C186.865 114.498 187.076 114.791 187.361 114.998C187.646 115.205 188.014 115.309 188.463 115.309C188.908 115.309 189.273 115.205 189.559 114.998C189.848 114.791 190.061 114.498 190.197 114.119C190.334 113.74 190.402 113.293 190.402 112.777C190.402 112.266 190.334 111.824 190.197 111.453C190.061 111.078 189.85 110.789 189.564 110.586C189.279 110.383 188.91 110.281 188.457 110.281C187.789 110.281 187.299 110.502 186.986 110.943C186.678 111.385 186.523 111.996 186.523 112.777ZM194.07 116H193.092V106.883H194.07V116ZM197.105 116H196.127V106.883H197.105V116ZM200.135 109.578V116H199.162V109.578H200.135ZM199.66 107.176C199.82 107.176 199.957 107.229 200.07 107.334C200.188 107.436 200.246 107.596 200.246 107.814C200.246 108.029 200.188 108.189 200.07 108.295C199.957 108.4 199.82 108.453 199.66 108.453C199.492 108.453 199.352 108.4 199.238 108.295C199.129 108.189 199.074 108.029 199.074 107.814C199.074 107.596 199.129 107.436 199.238 107.334C199.352 107.229 199.492 107.176 199.66 107.176ZM206.352 114.242C206.352 114.652 206.248 114.998 206.041 115.279C205.838 115.557 205.545 115.766 205.162 115.906C204.783 116.047 204.33 116.117 203.803 116.117C203.354 116.117 202.965 116.082 202.637 116.012C202.309 115.941 202.021 115.842 201.775 115.713V114.816C202.037 114.945 202.35 115.062 202.713 115.168C203.076 115.273 203.447 115.326 203.826 115.326C204.381 115.326 204.783 115.236 205.033 115.057C205.283 114.877 205.408 114.633 205.408 114.324C205.408 114.148 205.357 113.994 205.256 113.861C205.158 113.725 204.992 113.594 204.758 113.469C204.523 113.34 204.199 113.199 203.785 113.047C203.375 112.891 203.02 112.736 202.719 112.584C202.422 112.428 202.191 112.238 202.027 112.016C201.867 111.793 201.787 111.504 201.787 111.148C201.787 110.605 202.006 110.189 202.443 109.9C202.885 109.607 203.463 109.461 204.178 109.461C204.564 109.461 204.926 109.5 205.262 109.578C205.602 109.652 205.918 109.754 206.211 109.883L205.883 110.662C205.617 110.549 205.334 110.453 205.033 110.375C204.732 110.297 204.426 110.258 204.113 110.258C203.664 110.258 203.318 110.332 203.076 110.48C202.838 110.629 202.719 110.832 202.719 111.09C202.719 111.289 202.773 111.453 202.883 111.582C202.996 111.711 203.176 111.832 203.422 111.945C203.668 112.059 203.992 112.191 204.395 112.344C204.797 112.492 205.145 112.646 205.438 112.807C205.73 112.963 205.955 113.154 206.111 113.381C206.271 113.604 206.352 113.891 206.352 114.242ZM209.99 115.32C210.15 115.32 210.314 115.307 210.482 115.279C210.65 115.252 210.787 115.219 210.893 115.18V115.936C210.779 115.986 210.621 116.029 210.418 116.064C210.219 116.1 210.023 116.117 209.832 116.117C209.492 116.117 209.184 116.059 208.906 115.941C208.629 115.82 208.406 115.617 208.238 115.332C208.074 115.047 207.992 114.652 207.992 114.148V110.34H207.078V109.865L207.998 109.484L208.385 108.09H208.971V109.578H210.852V110.34H208.971V114.119C208.971 114.521 209.062 114.822 209.246 115.021C209.434 115.221 209.682 115.32 209.99 115.32ZM214.666 109.461C215.213 109.461 215.682 109.582 216.072 109.824C216.463 110.066 216.762 110.406 216.969 110.844C217.176 111.277 217.279 111.785 217.279 112.367V112.971H212.844C212.855 113.725 213.043 114.299 213.406 114.693C213.77 115.088 214.281 115.285 214.941 115.285C215.348 115.285 215.707 115.248 216.02 115.174C216.332 115.1 216.656 114.99 216.992 114.846V115.701C216.668 115.846 216.346 115.951 216.025 116.018C215.709 116.084 215.334 116.117 214.9 116.117C214.283 116.117 213.744 115.992 213.283 115.742C212.826 115.488 212.471 115.117 212.217 114.629C211.963 114.141 211.836 113.543 211.836 112.836C211.836 112.145 211.951 111.547 212.182 111.043C212.416 110.535 212.744 110.145 213.166 109.871C213.592 109.598 214.092 109.461 214.666 109.461ZM214.654 110.258C214.135 110.258 213.721 110.428 213.412 110.768C213.104 111.107 212.92 111.582 212.861 112.191H216.26C216.256 111.809 216.195 111.473 216.078 111.184C215.965 110.891 215.791 110.664 215.557 110.504C215.322 110.34 215.021 110.258 214.654 110.258ZM221.85 109.461C221.979 109.461 222.113 109.469 222.254 109.484C222.395 109.496 222.52 109.514 222.629 109.537L222.506 110.439C222.4 110.412 222.283 110.391 222.154 110.375C222.025 110.359 221.904 110.352 221.791 110.352C221.533 110.352 221.289 110.404 221.059 110.51C220.832 110.611 220.633 110.76 220.461 110.955C220.289 111.146 220.154 111.379 220.057 111.652C219.959 111.922 219.91 112.223 219.91 112.555V116H218.932V109.578H219.74L219.846 110.762H219.887C220.02 110.523 220.18 110.307 220.367 110.111C220.555 109.912 220.771 109.754 221.018 109.637C221.268 109.52 221.545 109.461 221.85 109.461ZM231.822 109.432C231.822 109.814 231.748 110.146 231.6 110.428C231.451 110.709 231.244 110.939 230.979 111.119C230.713 111.295 230.4 111.418 230.041 111.488V111.535C230.721 111.621 231.23 111.84 231.57 112.191C231.914 112.543 232.086 113.004 232.086 113.574C232.086 114.07 231.969 114.51 231.734 114.893C231.504 115.275 231.148 115.576 230.668 115.795C230.191 116.01 229.58 116.117 228.834 116.117C228.381 116.117 227.961 116.08 227.574 116.006C227.191 115.936 226.824 115.816 226.473 115.648V114.734C226.828 114.91 227.215 115.049 227.633 115.15C228.051 115.248 228.455 115.297 228.846 115.297C229.627 115.297 230.191 115.143 230.539 114.834C230.887 114.521 231.061 114.096 231.061 113.557C231.061 113.186 230.963 112.887 230.768 112.66C230.576 112.43 230.299 112.262 229.936 112.156C229.576 112.047 229.143 111.992 228.635 111.992H227.779V111.16H228.641C229.105 111.16 229.5 111.092 229.824 110.955C230.148 110.818 230.395 110.627 230.562 110.381C230.734 110.131 230.82 109.836 230.82 109.496C230.82 109.062 230.676 108.729 230.387 108.494C230.098 108.256 229.705 108.137 229.209 108.137C228.904 108.137 228.627 108.168 228.377 108.23C228.127 108.293 227.893 108.379 227.674 108.488C227.455 108.598 227.236 108.725 227.018 108.869L226.525 108.201C226.838 107.959 227.219 107.75 227.668 107.574C228.117 107.398 228.627 107.311 229.197 107.311C230.072 107.311 230.729 107.51 231.166 107.908C231.604 108.307 231.822 108.814 231.822 109.432ZM233.48 112.338C233.48 111.822 233.516 111.318 233.586 110.826C233.66 110.334 233.783 109.877 233.955 109.455C234.127 109.029 234.361 108.656 234.658 108.336C234.955 108.016 235.324 107.766 235.766 107.586C236.211 107.402 236.744 107.311 237.365 107.311C237.541 107.311 237.73 107.32 237.934 107.34C238.137 107.355 238.305 107.383 238.438 107.422V108.26C238.293 108.209 238.127 108.172 237.939 108.148C237.756 108.125 237.57 108.113 237.383 108.113C236.656 108.113 236.084 108.271 235.666 108.588C235.252 108.904 234.953 109.334 234.77 109.877C234.586 110.416 234.48 111.023 234.453 111.699H234.518C234.639 111.504 234.793 111.328 234.98 111.172C235.168 111.012 235.395 110.885 235.66 110.791C235.93 110.697 236.242 110.65 236.598 110.65C237.098 110.65 237.533 110.752 237.904 110.955C238.279 111.158 238.568 111.453 238.771 111.84C238.979 112.227 239.082 112.695 239.082 113.246C239.082 113.836 238.973 114.346 238.754 114.775C238.535 115.205 238.223 115.537 237.816 115.771C237.414 116.002 236.934 116.117 236.375 116.117C235.957 116.117 235.572 116.037 235.221 115.877C234.869 115.717 234.562 115.479 234.301 115.162C234.043 114.846 233.842 114.453 233.697 113.984C233.553 113.512 233.48 112.963 233.48 112.338ZM236.363 115.297C236.895 115.297 237.32 115.127 237.641 114.787C237.961 114.447 238.121 113.934 238.121 113.246C238.121 112.684 237.979 112.238 237.693 111.91C237.408 111.582 236.979 111.418 236.404 111.418C236.014 111.418 235.674 111.5 235.385 111.664C235.096 111.824 234.871 112.027 234.711 112.273C234.551 112.52 234.471 112.77 234.471 113.023C234.471 113.281 234.508 113.543 234.582 113.809C234.66 114.074 234.777 114.32 234.934 114.547C235.09 114.773 235.287 114.955 235.525 115.092C235.764 115.229 236.043 115.297 236.363 115.297ZM245.873 116H240.26V115.186L242.551 112.859C242.977 112.43 243.334 112.047 243.623 111.711C243.916 111.375 244.139 111.045 244.291 110.721C244.443 110.393 244.52 110.033 244.52 109.643C244.52 109.158 244.375 108.789 244.086 108.535C243.801 108.277 243.424 108.148 242.955 108.148C242.545 108.148 242.182 108.219 241.865 108.359C241.549 108.5 241.225 108.699 240.893 108.957L240.371 108.301C240.598 108.109 240.844 107.939 241.109 107.791C241.379 107.643 241.666 107.525 241.971 107.439C242.279 107.354 242.607 107.311 242.955 107.311C243.482 107.311 243.938 107.402 244.32 107.586C244.703 107.77 244.998 108.031 245.205 108.371C245.416 108.711 245.521 109.115 245.521 109.584C245.521 110.037 245.432 110.459 245.252 110.85C245.072 111.236 244.82 111.621 244.496 112.004C244.172 112.383 243.793 112.785 243.359 113.211L241.496 115.068V115.109H245.873V116Z" fill="black"/>
<path d="M333.943 84L333.322 81.9609H330.199L329.578 84H327.621L330.645 75.3984H332.865L335.9 84H333.943ZM332.889 80.4375L332.268 78.4453C332.229 78.3125 332.176 78.1426 332.109 77.9355C332.047 77.7246 331.982 77.5117 331.916 77.2969C331.854 77.0781 331.803 76.8887 331.764 76.7285C331.725 76.8887 331.67 77.0879 331.6 77.3262C331.533 77.5605 331.469 77.7832 331.406 77.9941C331.344 78.2051 331.299 78.3555 331.271 78.4453L330.656 80.4375H332.889ZM340.488 77.3262C341.227 77.3262 341.822 77.6133 342.275 78.1875C342.732 78.7617 342.961 79.6035 342.961 80.7129C342.961 81.4551 342.854 82.0801 342.639 82.5879C342.424 83.0918 342.127 83.4727 341.748 83.7305C341.369 83.9883 340.934 84.1172 340.441 84.1172C340.125 84.1172 339.854 84.0781 339.627 84C339.4 83.918 339.207 83.8145 339.047 83.6895C338.887 83.5605 338.748 83.4238 338.631 83.2793H338.537C338.568 83.4355 338.592 83.5957 338.607 83.7598C338.623 83.9238 338.631 84.084 338.631 84.2402V86.8828H336.844V77.4492H338.297L338.549 78.2988H338.631C338.748 78.123 338.891 77.9609 339.059 77.8125C339.227 77.6641 339.428 77.5469 339.662 77.4609C339.9 77.3711 340.176 77.3262 340.488 77.3262ZM339.914 78.7559C339.602 78.7559 339.354 78.8203 339.17 78.9492C338.986 79.0781 338.852 79.2715 338.766 79.5293C338.684 79.7871 338.639 80.1133 338.631 80.5078V80.7012C338.631 81.123 338.67 81.4805 338.748 81.7734C338.83 82.0664 338.965 82.2891 339.152 82.4414C339.344 82.5938 339.605 82.6699 339.938 82.6699C340.211 82.6699 340.436 82.5938 340.611 82.4414C340.787 82.2891 340.918 82.0664 341.004 81.7734C341.094 81.4766 341.139 81.1152 341.139 80.6895C341.139 80.0488 341.039 79.5664 340.84 79.2422C340.641 78.918 340.332 78.7559 339.914 78.7559ZM348.082 77.3262C348.82 77.3262 349.416 77.6133 349.869 78.1875C350.326 78.7617 350.555 79.6035 350.555 80.7129C350.555 81.4551 350.447 82.0801 350.232 82.5879C350.018 83.0918 349.721 83.4727 349.342 83.7305C348.963 83.9883 348.527 84.1172 348.035 84.1172C347.719 84.1172 347.447 84.0781 347.221 84C346.994 83.918 346.801 83.8145 346.641 83.6895C346.48 83.5605 346.342 83.4238 346.225 83.2793H346.131C346.162 83.4355 346.186 83.5957 346.201 83.7598C346.217 83.9238 346.225 84.084 346.225 84.2402V86.8828H344.438V77.4492H345.891L346.143 78.2988H346.225C346.342 78.123 346.484 77.9609 346.652 77.8125C346.82 77.6641 347.021 77.5469 347.256 77.4609C347.494 77.3711 347.77 77.3262 348.082 77.3262ZM347.508 78.7559C347.195 78.7559 346.947 78.8203 346.764 78.9492C346.58 79.0781 346.445 79.2715 346.359 79.5293C346.277 79.7871 346.232 80.1133 346.225 80.5078V80.7012C346.225 81.123 346.264 81.4805 346.342 81.7734C346.424 82.0664 346.559 82.2891 346.746 82.4414C346.938 82.5938 347.199 82.6699 347.531 82.6699C347.805 82.6699 348.029 82.5938 348.205 82.4414C348.381 82.2891 348.512 82.0664 348.598 81.7734C348.688 81.4766 348.732 81.1152 348.732 80.6895C348.732 80.0488 348.633 79.5664 348.434 79.2422C348.234 78.918 347.926 78.7559 347.508 78.7559ZM353.818 84H352.031V74.8828H353.818V84ZM357.486 77.4492V84H355.699V77.4492H357.486ZM356.596 74.8828C356.861 74.8828 357.09 74.9453 357.281 75.0703C357.473 75.1914 357.568 75.4199 357.568 75.7559C357.568 76.0879 357.473 76.3184 357.281 76.4473C357.09 76.5723 356.861 76.6348 356.596 76.6348C356.326 76.6348 356.096 76.5723 355.904 76.4473C355.717 76.3184 355.623 76.0879 355.623 75.7559C355.623 75.4199 355.717 75.1914 355.904 75.0703C356.096 74.9453 356.326 74.8828 356.596 74.8828ZM362.027 84.1172C361.379 84.1172 360.826 84 360.369 83.7656C359.912 83.5273 359.564 83.1602 359.326 82.6641C359.088 82.168 358.969 81.5332 358.969 80.7598C358.969 79.959 359.104 79.3066 359.373 78.8027C359.646 78.2949 360.023 77.9219 360.504 77.6836C360.988 77.4453 361.549 77.3262 362.186 77.3262C362.639 77.3262 363.029 77.3711 363.357 77.4609C363.689 77.5469 363.979 77.6504 364.225 77.7715L363.697 79.1543C363.416 79.041 363.154 78.9492 362.912 78.8789C362.67 78.8047 362.428 78.7676 362.186 78.7676C361.873 78.7676 361.613 78.8418 361.406 78.9902C361.199 79.1348 361.045 79.3535 360.943 79.6465C360.842 79.9395 360.791 80.3066 360.791 80.748C360.791 81.1816 360.846 81.541 360.955 81.8262C361.064 82.1113 361.223 82.3242 361.43 82.4648C361.637 82.6016 361.889 82.6699 362.186 82.6699C362.557 82.6699 362.887 82.6211 363.176 82.5234C363.465 82.4219 363.746 82.2812 364.02 82.1016V83.6309C363.746 83.8027 363.459 83.9258 363.158 84C362.861 84.0781 362.484 84.1172 362.027 84.1172ZM368.227 77.3145C369.105 77.3145 369.779 77.5059 370.248 77.8887C370.717 78.2715 370.951 78.8535 370.951 79.6348V84H369.703L369.357 83.1094H369.311C369.123 83.3438 368.932 83.5352 368.736 83.6836C368.541 83.832 368.316 83.9414 368.062 84.0117C367.809 84.082 367.5 84.1172 367.137 84.1172C366.75 84.1172 366.402 84.043 366.094 83.8945C365.789 83.7461 365.549 83.5195 365.373 83.2148C365.197 82.9062 365.109 82.5156 365.109 82.043C365.109 81.3477 365.354 80.8359 365.842 80.5078C366.33 80.1758 367.062 79.9922 368.039 79.957L369.176 79.9219V79.6348C369.176 79.291 369.086 79.0391 368.906 78.8789C368.727 78.7188 368.477 78.6387 368.156 78.6387C367.84 78.6387 367.529 78.6836 367.225 78.7734C366.92 78.8633 366.615 78.9766 366.311 79.1133L365.719 77.9062C366.066 77.7227 366.455 77.5781 366.885 77.4727C367.318 77.3672 367.766 77.3145 368.227 77.3145ZM369.176 80.9648L368.484 80.9883C367.906 81.0039 367.504 81.1074 367.277 81.2988C367.055 81.4902 366.943 81.7422 366.943 82.0547C366.943 82.3281 367.023 82.5234 367.184 82.6406C367.344 82.7539 367.553 82.8105 367.811 82.8105C368.193 82.8105 368.516 82.6973 368.777 82.4707C369.043 82.2441 369.176 81.9219 369.176 81.5039V80.9648ZM375.557 82.6934C375.752 82.6934 375.941 82.6738 376.125 82.6348C376.312 82.5957 376.498 82.5469 376.682 82.4883V83.8184C376.49 83.9043 376.252 83.9746 375.967 84.0293C375.686 84.0879 375.377 84.1172 375.041 84.1172C374.65 84.1172 374.299 84.0547 373.986 83.9297C373.678 83.8008 373.434 83.5801 373.254 83.2676C373.078 82.9512 372.99 82.5117 372.99 81.9492V78.791H372.135V78.0352L373.119 77.4375L373.635 76.0547H374.777V77.4492H376.611V78.791H374.777V81.9492C374.777 82.1992 374.848 82.3867 374.988 82.5117C375.133 82.6328 375.322 82.6934 375.557 82.6934ZM379.799 77.4492V84H378.012V77.4492H379.799ZM378.908 74.8828C379.174 74.8828 379.402 74.9453 379.594 75.0703C379.785 75.1914 379.881 75.4199 379.881 75.7559C379.881 76.0879 379.785 76.3184 379.594 76.4473C379.402 76.5723 379.174 76.6348 378.908 76.6348C378.639 76.6348 378.408 76.5723 378.217 76.4473C378.029 76.3184 377.936 76.0879 377.936 75.7559C377.936 75.4199 378.029 75.1914 378.217 75.0703C378.408 74.9453 378.639 74.8828 378.908 74.8828ZM387.633 80.7129C387.633 81.2598 387.559 81.7441 387.41 82.166C387.266 82.5879 387.053 82.9453 386.771 83.2383C386.494 83.5273 386.158 83.7461 385.764 83.8945C385.373 84.043 384.932 84.1172 384.439 84.1172C383.979 84.1172 383.555 84.043 383.168 83.8945C382.785 83.7461 382.451 83.5273 382.166 83.2383C381.885 82.9453 381.666 82.5879 381.51 82.166C381.357 81.7441 381.281 81.2598 381.281 80.7129C381.281 79.9863 381.41 79.3711 381.668 78.8672C381.926 78.3633 382.293 77.9805 382.77 77.7188C383.246 77.457 383.814 77.3262 384.475 77.3262C385.088 77.3262 385.631 77.457 386.104 77.7188C386.58 77.9805 386.953 78.3633 387.223 78.8672C387.496 79.3711 387.633 79.9863 387.633 80.7129ZM383.104 80.7129C383.104 81.1426 383.15 81.5039 383.244 81.7969C383.338 82.0898 383.484 82.3105 383.684 82.459C383.883 82.6074 384.143 82.6816 384.463 82.6816C384.779 82.6816 385.035 82.6074 385.23 82.459C385.43 82.3105 385.574 82.0898 385.664 81.7969C385.758 81.5039 385.805 81.1426 385.805 80.7129C385.805 80.2793 385.758 79.9199 385.664 79.6348C385.574 79.3457 385.43 79.1289 385.23 78.9844C385.031 78.8398 384.771 78.7676 384.451 78.7676C383.979 78.7676 383.635 78.9297 383.42 79.2539C383.209 79.5781 383.104 80.0645 383.104 80.7129ZM392.83 77.3262C393.529 77.3262 394.092 77.5176 394.518 77.9004C394.943 78.2793 395.156 78.8887 395.156 79.7285V84H393.369V80.1738C393.369 79.7051 393.283 79.3516 393.111 79.1133C392.943 78.875 392.678 78.7559 392.314 78.7559C391.768 78.7559 391.395 78.9414 391.195 79.3125C390.996 79.6836 390.896 80.2188 390.896 80.918V84H389.109V77.4492H390.475L390.715 78.2871H390.814C390.955 78.0605 391.129 77.877 391.336 77.7363C391.547 77.5957 391.779 77.4922 392.033 77.4258C392.291 77.3594 392.557 77.3262 392.83 77.3262ZM401.566 82.0547C401.566 82.5 401.461 82.877 401.25 83.1855C401.043 83.4902 400.732 83.7227 400.318 83.8828C399.904 84.0391 399.389 84.1172 398.771 84.1172C398.314 84.1172 397.922 84.0879 397.594 84.0293C397.27 83.9707 396.941 83.873 396.609 83.7363V82.2598C396.965 82.4199 397.346 82.5527 397.752 82.6582C398.162 82.7598 398.521 82.8105 398.83 82.8105C399.178 82.8105 399.426 82.7598 399.574 82.6582C399.727 82.5527 399.803 82.416 399.803 82.248C399.803 82.1387 399.771 82.041 399.709 81.9551C399.65 81.8652 399.521 81.7656 399.322 81.6562C399.123 81.543 398.811 81.3965 398.385 81.2168C397.975 81.0449 397.637 80.8711 397.371 80.6953C397.109 80.5195 396.914 80.3125 396.785 80.0742C396.66 79.832 396.598 79.5254 396.598 79.1543C396.598 78.5488 396.832 78.0938 397.301 77.7891C397.773 77.4805 398.404 77.3262 399.193 77.3262C399.6 77.3262 399.986 77.3672 400.354 77.4492C400.725 77.5312 401.105 77.6621 401.496 77.8418L400.957 79.1309C400.633 78.9902 400.326 78.875 400.037 78.7852C399.752 78.6953 399.461 78.6504 399.164 78.6504C398.902 78.6504 398.705 78.6855 398.572 78.7559C398.439 78.8262 398.373 78.9336 398.373 79.0781C398.373 79.1836 398.406 79.2773 398.473 79.3594C398.543 79.4414 398.676 79.5332 398.871 79.6348C399.07 79.7324 399.361 79.8594 399.744 80.0156C400.115 80.168 400.438 80.3281 400.711 80.4961C400.984 80.6602 401.195 80.8652 401.344 81.1113C401.492 81.3535 401.566 81.668 401.566 82.0547ZM413.326 79.6348C413.326 80.5996 413.141 81.4062 412.77 82.0547C412.402 82.6992 411.869 83.1855 411.17 83.5137C410.471 83.8379 409.629 84 408.645 84H406.219V75.4336H408.908C409.807 75.4336 410.586 75.5938 411.246 75.9141C411.906 76.2305 412.418 76.7012 412.781 77.3262C413.145 77.9473 413.326 78.7168 413.326 79.6348ZM411.439 79.6816C411.439 79.0488 411.346 78.5293 411.158 78.123C410.975 77.7129 410.701 77.4102 410.338 77.2148C409.979 77.0195 409.533 76.9219 409.002 76.9219H408.035V82.5H408.814C409.701 82.5 410.359 82.2637 410.789 81.791C411.223 81.3184 411.439 80.6152 411.439 79.6816ZM420.973 77.4492V84H419.602L419.361 83.1621H419.268C419.127 83.3848 418.951 83.5664 418.74 83.707C418.529 83.8477 418.297 83.9512 418.043 84.0176C417.789 84.084 417.525 84.1172 417.252 84.1172C416.783 84.1172 416.375 84.0352 416.027 83.8711C415.68 83.7031 415.408 83.4434 415.213 83.0918C415.021 82.7402 414.926 82.2832 414.926 81.7207V77.4492H416.713V81.2754C416.713 81.7441 416.797 82.0977 416.965 82.3359C417.133 82.5742 417.4 82.6934 417.768 82.6934C418.131 82.6934 418.416 82.6113 418.623 82.4473C418.83 82.2793 418.975 82.0352 419.057 81.7148C419.143 81.3906 419.186 80.9961 419.186 80.5312V77.4492H420.973ZM425.549 77.3262C426.154 77.3262 426.676 77.4434 427.113 77.6777C427.551 77.9082 427.889 78.2441 428.127 78.6855C428.365 79.127 428.484 79.666 428.484 80.3027V81.1699H424.26C424.279 81.6738 424.43 82.0703 424.711 82.3594C424.996 82.6445 425.391 82.7871 425.895 82.7871C426.312 82.7871 426.695 82.7441 427.043 82.6582C427.391 82.5723 427.748 82.4434 428.115 82.2715V83.6543C427.791 83.8145 427.451 83.9316 427.096 84.0059C426.744 84.0801 426.316 84.1172 425.812 84.1172C425.156 84.1172 424.574 83.9961 424.066 83.7539C423.562 83.5117 423.166 83.1426 422.877 82.6465C422.592 82.1504 422.449 81.5254 422.449 80.7715C422.449 80.0059 422.578 79.3691 422.836 78.8613C423.098 78.3496 423.461 77.9668 423.926 77.7129C424.391 77.4551 424.932 77.3262 425.549 77.3262ZM425.561 78.5977C425.213 78.5977 424.924 78.709 424.693 78.9316C424.467 79.1543 424.336 79.5039 424.301 79.9805H426.809C426.805 79.7148 426.756 79.4785 426.662 79.2715C426.572 79.0645 426.436 78.9004 426.252 78.7793C426.072 78.6582 425.842 78.5977 425.561 78.5977Z" fill="black"/>
<path d="M346.523 95.7051C346.523 96.3652 346.439 96.9668 346.271 97.5098C346.104 98.0488 345.854 98.5137 345.521 98.9043C345.193 99.291 344.785 99.5898 344.297 99.8008C343.809 100.012 343.242 100.117 342.598 100.117C341.934 100.117 341.354 100.012 340.857 99.8008C340.365 99.5898 339.955 99.2891 339.627 98.8984C339.303 98.5078 339.059 98.041 338.895 97.498C338.734 96.9551 338.654 96.3535 338.654 95.6934C338.654 94.8184 338.799 94.0508 339.088 93.3906C339.377 92.7305 339.814 92.2168 340.4 91.8496C340.99 91.4824 341.729 91.2988 342.615 91.2988C343.463 91.2988 344.176 91.4805 344.754 91.8438C345.336 92.207 345.775 92.7188 346.072 93.3789C346.373 94.0352 346.523 94.8105 346.523 95.7051ZM339.703 95.7051C339.703 96.4316 339.807 97.0605 340.014 97.5918C340.221 98.123 340.537 98.5332 340.963 98.8223C341.393 99.1113 341.938 99.2559 342.598 99.2559C343.262 99.2559 343.805 99.1113 344.227 98.8223C344.652 98.5332 344.967 98.123 345.17 97.5918C345.373 97.0605 345.475 96.4316 345.475 95.7051C345.475 94.5996 345.242 93.7363 344.777 93.1152C344.316 92.4902 343.596 92.1777 342.615 92.1777C341.951 92.1777 341.404 92.3203 340.975 92.6055C340.545 92.8906 340.225 93.2969 340.014 93.8242C339.807 94.3477 339.703 94.9746 339.703 95.7051ZM350.859 100.117C350.281 100.117 349.771 99.998 349.33 99.7598C348.889 99.5215 348.545 99.1582 348.299 98.6699C348.053 98.1816 347.93 97.5664 347.93 96.8242C347.93 96.0469 348.059 95.4121 348.316 94.9199C348.578 94.4238 348.938 94.0566 349.395 93.8184C349.852 93.5801 350.371 93.4609 350.953 93.4609C351.273 93.4609 351.582 93.4941 351.879 93.5605C352.18 93.623 352.426 93.7031 352.617 93.8008L352.324 94.6152C352.129 94.5371 351.902 94.4668 351.645 94.4043C351.391 94.3418 351.152 94.3105 350.93 94.3105C350.484 94.3105 350.113 94.4062 349.816 94.5977C349.523 94.7891 349.303 95.0703 349.154 95.4414C349.01 95.8125 348.938 96.2695 348.938 96.8125C348.938 97.332 349.008 97.7754 349.148 98.1426C349.293 98.5098 349.506 98.791 349.787 98.9863C350.072 99.1777 350.428 99.2734 350.854 99.2734C351.193 99.2734 351.5 99.2383 351.773 99.168C352.047 99.0938 352.295 99.0078 352.518 98.9102V99.7773C352.303 99.8867 352.062 99.9707 351.797 100.029C351.535 100.088 351.223 100.117 350.859 100.117ZM356.115 99.3203C356.275 99.3203 356.439 99.3066 356.607 99.2793C356.775 99.252 356.912 99.2188 357.018 99.1797V99.9355C356.904 99.9863 356.746 100.029 356.543 100.064C356.344 100.1 356.148 100.117 355.957 100.117C355.617 100.117 355.309 100.059 355.031 99.9414C354.754 99.8203 354.531 99.6172 354.363 99.332C354.199 99.0469 354.117 98.6523 354.117 98.1484V94.3398H353.203V93.8652L354.123 93.4844L354.51 92.0898H355.096V93.5781H356.977V94.3398H355.096V98.1191C355.096 98.5215 355.188 98.8223 355.371 99.0215C355.559 99.2207 355.807 99.3203 356.115 99.3203ZM364.623 100H363.674V93.9297C363.674 93.6992 363.674 93.502 363.674 93.3379C363.678 93.1699 363.682 93.0176 363.686 92.8809C363.693 92.7402 363.703 92.5977 363.715 92.4531C363.594 92.5781 363.48 92.6855 363.375 92.7754C363.27 92.8613 363.139 92.9688 362.982 93.0977L362.004 93.8828L361.494 93.2207L363.814 91.4336H364.623V100ZM367.957 96.3379C367.957 95.8223 367.992 95.3184 368.062 94.8262C368.137 94.334 368.26 93.877 368.432 93.4551C368.604 93.0293 368.838 92.6562 369.135 92.3359C369.432 92.0156 369.801 91.7656 370.242 91.5859C370.688 91.4023 371.221 91.3105 371.842 91.3105C372.018 91.3105 372.207 91.3203 372.41 91.3398C372.613 91.3555 372.781 91.3828 372.914 91.4219V92.2598C372.77 92.209 372.604 92.1719 372.416 92.1484C372.232 92.125 372.047 92.1133 371.859 92.1133C371.133 92.1133 370.561 92.2715 370.143 92.5879C369.729 92.9043 369.43 93.334 369.246 93.877C369.062 94.416 368.957 95.0234 368.93 95.6992H368.994C369.115 95.5039 369.27 95.3281 369.457 95.1719C369.645 95.0117 369.871 94.8848 370.137 94.791C370.406 94.6973 370.719 94.6504 371.074 94.6504C371.574 94.6504 372.01 94.752 372.381 94.9551C372.756 95.1582 373.045 95.4531 373.248 95.8398C373.455 96.2266 373.559 96.6953 373.559 97.2461C373.559 97.8359 373.449 98.3457 373.23 98.7754C373.012 99.2051 372.699 99.5371 372.293 99.7715C371.891 100.002 371.41 100.117 370.852 100.117C370.434 100.117 370.049 100.037 369.697 99.877C369.346 99.7168 369.039 99.4785 368.777 99.1621C368.52 98.8457 368.318 98.4531 368.174 97.9844C368.029 97.5117 367.957 96.9629 367.957 96.3379ZM370.84 99.2969C371.371 99.2969 371.797 99.127 372.117 98.7871C372.438 98.4473 372.598 97.9336 372.598 97.2461C372.598 96.6836 372.455 96.2383 372.17 95.9102C371.885 95.582 371.455 95.418 370.881 95.418C370.49 95.418 370.15 95.5 369.861 95.6641C369.572 95.8242 369.348 96.0273 369.188 96.2734C369.027 96.5195 368.947 96.7695 368.947 97.0234C368.947 97.2812 368.984 97.543 369.059 97.8086C369.137 98.0742 369.254 98.3203 369.41 98.5469C369.566 98.7734 369.764 98.9551 370.002 99.0918C370.24 99.2285 370.52 99.2969 370.84 99.2969ZM376.283 98.6055L376.359 98.7402C376.289 99.0254 376.199 99.3301 376.09 99.6543C375.984 99.9785 375.867 100.303 375.738 100.627C375.613 100.955 375.486 101.262 375.357 101.547H374.631C374.713 101.234 374.793 100.904 374.871 100.557C374.949 100.213 375.02 99.873 375.082 99.5371C375.148 99.1973 375.201 98.8867 375.24 98.6055H376.283ZM384.58 100H383.631V93.9297C383.631 93.6992 383.631 93.502 383.631 93.3379C383.635 93.1699 383.639 93.0176 383.643 92.8809C383.65 92.7402 383.66 92.5977 383.672 92.4531C383.551 92.5781 383.438 92.6855 383.332 92.7754C383.227 92.8613 383.096 92.9688 382.939 93.0977L381.961 93.8828L381.451 93.2207L383.771 91.4336H384.58V100ZM391.447 100H390.498V93.9297C390.498 93.6992 390.498 93.502 390.498 93.3379C390.502 93.1699 390.506 93.0176 390.51 92.8809C390.518 92.7402 390.527 92.5977 390.539 92.4531C390.418 92.5781 390.305 92.6855 390.199 92.7754C390.094 92.8613 389.963 92.9688 389.807 93.0977L388.828 93.8828L388.318 93.2207L390.639 91.4336H391.447V100ZM394.98 99.3906C394.98 99.1172 395.047 98.9238 395.18 98.8105C395.312 98.6934 395.475 98.6348 395.666 98.6348C395.865 98.6348 396.033 98.6934 396.17 98.8105C396.307 98.9238 396.375 99.1172 396.375 99.3906C396.375 99.6602 396.307 99.8574 396.17 99.9824C396.033 100.104 395.865 100.164 395.666 100.164C395.475 100.164 395.312 100.104 395.18 99.9824C395.047 99.8574 394.98 99.6602 394.98 99.3906ZM394.98 94.1934C394.98 93.9121 395.047 93.7148 395.18 93.6016C395.312 93.4844 395.475 93.4258 395.666 93.4258C395.865 93.4258 396.033 93.4844 396.17 93.6016C396.307 93.7148 396.375 93.9121 396.375 94.1934C396.375 94.459 396.307 94.6523 396.17 94.7734C396.033 94.8945 395.865 94.9551 395.666 94.9551C395.475 94.9551 395.312 94.8945 395.18 94.7734C395.047 94.6523 394.98 94.459 394.98 94.1934ZM400.553 94.7617C401.135 94.7617 401.641 94.8613 402.07 95.0605C402.5 95.2559 402.832 95.541 403.066 95.916C403.305 96.291 403.424 96.7461 403.424 97.2812C403.424 97.8672 403.297 98.373 403.043 98.7988C402.789 99.2207 402.424 99.5469 401.947 99.7773C401.471 100.004 400.9 100.117 400.236 100.117C399.791 100.117 399.377 100.078 398.994 100C398.611 99.9219 398.289 99.8047 398.027 99.6484V98.7227C398.312 98.8945 398.658 99.0312 399.064 99.1328C399.471 99.2344 399.865 99.2852 400.248 99.2852C400.682 99.2852 401.061 99.2168 401.385 99.0801C401.713 98.9395 401.967 98.7285 402.146 98.4473C402.33 98.1621 402.422 97.8047 402.422 97.375C402.422 96.8047 402.246 96.3652 401.895 96.0566C401.547 95.7441 400.996 95.5879 400.242 95.5879C400 95.5879 399.734 95.6074 399.445 95.6465C399.156 95.6855 398.918 95.7285 398.73 95.7754L398.238 95.4531L398.566 91.4336H402.826V92.3242H399.398L399.182 94.9082C399.33 94.877 399.521 94.8457 399.756 94.8145C399.99 94.7793 400.256 94.7617 400.553 94.7617ZM410.338 95.084C410.338 95.6035 410.301 96.1094 410.227 96.6016C410.156 97.0938 410.033 97.5527 409.857 97.9785C409.686 98.4043 409.451 98.7773 409.154 99.0977C408.857 99.418 408.484 99.6699 408.035 99.8535C407.59 100.033 407.057 100.123 406.436 100.123C406.268 100.123 406.076 100.111 405.861 100.088C405.646 100.068 405.471 100.039 405.334 100V99.1562C405.479 99.207 405.648 99.248 405.844 99.2793C406.039 99.3066 406.23 99.3203 406.418 99.3203C407.148 99.3203 407.723 99.1641 408.141 98.8516C408.559 98.5352 408.859 98.1074 409.043 97.5684C409.227 97.0254 409.33 96.416 409.354 95.7402H409.283C409.166 95.9277 409.012 96.1016 408.82 96.2617C408.633 96.418 408.404 96.5449 408.135 96.6426C407.865 96.7363 407.551 96.7832 407.191 96.7832C406.695 96.7832 406.262 96.6816 405.891 96.4785C405.523 96.2754 405.236 95.9805 405.029 95.5938C404.826 95.207 404.725 94.7402 404.725 94.1934C404.725 93.6035 404.836 93.0938 405.059 92.6641C405.285 92.2305 405.602 91.8965 406.008 91.6621C406.414 91.4277 406.893 91.3105 407.443 91.3105C407.865 91.3105 408.252 91.3906 408.604 91.5508C408.955 91.7109 409.26 91.9512 409.518 92.2715C409.779 92.5879 409.98 92.9805 410.121 93.4492C410.266 93.918 410.338 94.4629 410.338 95.084ZM407.443 92.1367C406.924 92.1367 406.502 92.3066 406.178 92.6465C405.857 92.9863 405.697 93.498 405.697 94.1816C405.697 94.748 405.836 95.1953 406.113 95.5234C406.391 95.8516 406.818 96.0156 407.396 96.0156C407.795 96.0156 408.139 95.9355 408.428 95.7754C408.721 95.6152 408.945 95.4121 409.102 95.166C409.262 94.9199 409.342 94.668 409.342 94.4102C409.342 94.1523 409.303 93.8906 409.225 93.625C409.15 93.3594 409.035 93.1152 408.879 92.8926C408.723 92.666 408.525 92.4844 408.287 92.3477C408.049 92.207 407.768 92.1367 407.443 92.1367ZM414.398 91.4336C415.504 91.4336 416.311 91.6504 416.818 92.084C417.33 92.5137 417.586 93.1309 417.586 93.9355C417.586 94.2988 417.525 94.6445 417.404 94.9727C417.287 95.2969 417.096 95.584 416.83 95.834C416.564 96.0801 416.215 96.2754 415.781 96.4199C415.352 96.5605 414.824 96.6309 414.199 96.6309H413.156V100H412.16V91.4336H414.398ZM414.305 92.2832H413.156V95.7754H414.088C414.635 95.7754 415.09 95.7168 415.453 95.5996C415.82 95.4824 416.096 95.293 416.279 95.0312C416.463 94.7656 416.555 94.4141 416.555 93.9766C416.555 93.4062 416.373 92.9824 416.01 92.7051C415.646 92.4238 415.078 92.2832 414.305 92.2832ZM423.146 100L420.27 92.418H420.223C420.238 92.5781 420.252 92.7734 420.264 93.0039C420.275 93.2344 420.285 93.4863 420.293 93.7598C420.301 94.0293 420.305 94.3047 420.305 94.5859V100H419.379V91.4336H420.855L423.568 98.5586H423.609L426.363 91.4336H427.828V100H426.844V94.5156C426.844 94.2617 426.848 94.0078 426.855 93.7539C426.863 93.4961 426.873 93.2539 426.885 93.0273C426.896 92.7969 426.908 92.5977 426.92 92.4297H426.873L423.961 100H423.146Z" fill="black"/>
<path d="M39.0712 53.5C34.266 54.3277 28.6033 54.4585 22 53.5H39.0712C52.3131 51.2192 59.0434 43.647 61 39C68.9179 47.7739 78.8108 51.8825 87.6772 53.5H106.5C102.315 54.43 95.3838 54.9059 87.6772 53.5H39.0712Z" fill="#65C8D0"/>
<path d="M96.0712 53.5C91.266 54.3277 85.6033 54.4585 79 53.5H96.0712C109.313 51.2192 116.043 43.647 118 39C125.918 47.7739 135.811 51.8825 144.677 53.5H163.5C159.315 54.43 152.384 54.9059 144.677 53.5H96.0712Z" fill="#65C8D0"/>
<path d="M152.287 53.5C147.703 54.3277 142.3 54.4585 136 53.5H152.287C164.921 51.2192 171.342 43.647 173.208 39C180.763 47.7739 190.201 51.8825 198.66 53.5H216.618C212.626 54.43 206.013 54.9059 198.66 53.5H152.287Z" fill="#65C8D0"/>
<path d="M233.287 53.5C228.703 54.3277 223.3 54.4585 217 53.5H233.287C245.921 51.2192 252.342 43.647 254.208 39C261.763 47.7739 271.201 51.8825 279.66 53.5H297.618C293.626 54.43 287.013 54.9059 279.66 53.5H233.287Z" fill="#65C8D0"/>
<path d="M283.071 53.5C278.266 54.3277 272.603 54.4585 266 53.5H283.071C296.313 51.2192 303.043 43.647 305 39C312.918 47.7739 322.811 51.8825 331.677 53.5H350.5C346.315 54.43 339.384 54.9059 331.677 53.5H283.071Z" fill="#65C8D0"/>
<path d="M340.071 53.5C335.266 54.3277 329.603 54.4585 323 53.5H340.071C353.313 51.2192 360.043 43.647 362 39C369.918 47.7739 379.811 51.8825 388.677 53.5H407.5C403.315 54.43 396.384 54.9059 388.677 53.5H340.071Z" fill="#65C8D0"/>
<path d="M435.5 26L416 12V28L435.5 26Z" fill="#E34E4E"/>
<path d="M416 44V28M416 28V12L435.5 26L416 28Z" stroke="#E34E4E" stroke-width="4"/>
<path d="M15.5 1C18.3333 5.66667 22.8 17.6 18 28L28 26.5C31 22.6667 35.5 12.2 29.5 1H15.5Z" fill="#4763C7" stroke="#4763C7"/>
<path d="M11.5 28.5C13.5 25.3333 16.3 17.3 11.5 10.5C11 14.1667 8.6 23.1 3 29.5L11.5 28.5Z" fill="#4763C7" stroke="#4763C7"/>
<path d="M1 37V33L36.5 29.5L30.5 36C29.5 36.5 27.4 37.2 27 36C25 36.5 20.8 37.2 20 36C17.8333 36.8333 13.5 38 13.5 36C12.1667 36.6667 9.5 37.6 9.5 36C9 36.5 7.8 37.2 7 36C6.16667 36.6667 4.3 37.7 3.5 36.5C3 37 1.8 37.8 1 37Z" fill="#4763C7" stroke="#4763C7"/>
</svg>
