<svg width="439" height="124" viewBox="0 0 439 124" fill="none" xmlns="http://www.w3.org/2000/svg">
<line x1="22" y1="60" x2="202" y2="60" stroke="#65C8D0" stroke-width="4"/>
<line x1="222" y1="60" x2="402" y2="60" stroke="#65C8D0" stroke-width="4"/>
<circle cx="12" cy="60" r="12" fill="#65C8D0"/>
<circle cx="214" cy="60" r="12" fill="#65C8D0"/>
<circle cx="414" cy="60" r="12" fill="#65C8D0"/>
<path d="M1.07812 89V80.4336H2.89453V89H1.07812ZM8.63086 82.3262C9.33008 82.3262 9.89258 82.5176 10.3184 82.9004C10.7441 83.2793 10.957 83.8887 10.957 84.7285V89H9.16992V85.1738C9.16992 84.7051 9.08398 84.3516 8.91211 84.1133C8.74414 83.875 8.47852 83.7559 8.11523 83.7559C7.56836 83.7559 7.19531 83.9414 6.99609 84.3125C6.79688 84.6836 6.69727 85.2188 6.69727 85.918V89H4.91016V82.4492H6.27539L6.51562 83.2871H6.61523C6.75586 83.0605 6.92969 82.877 7.13672 82.7363C7.34766 82.5957 7.58008 82.4922 7.83398 82.4258C8.0918 82.3594 8.35742 82.3262 8.63086 82.3262ZM16.418 83.791H14.8711V89H13.084V83.791H12.0996V82.9297L13.084 82.4492V81.9688C13.084 81.4102 13.1777 80.9766 13.3652 80.668C13.5566 80.3555 13.8242 80.1367 14.168 80.0117C14.5156 79.8828 14.9258 79.8184 15.3984 79.8184C15.7461 79.8184 16.0625 79.8477 16.3477 79.9062C16.6328 79.9609 16.8652 80.0234 17.0449 80.0938L16.5879 81.4062C16.4512 81.3633 16.3027 81.3242 16.1426 81.2891C15.9824 81.2539 15.7988 81.2363 15.5918 81.2363C15.3418 81.2363 15.1582 81.3125 15.041 81.4648C14.9277 81.6133 14.8711 81.8047 14.8711 82.0391V82.4492H16.418V83.791ZM23.4023 85.7129C23.4023 86.2598 23.3281 86.7441 23.1797 87.166C23.0352 87.5879 22.8223 87.9453 22.541 88.2383C22.2637 88.5273 21.9277 88.7461 21.5332 88.8945C21.1426 89.043 20.7012 89.1172 20.209 89.1172C19.748 89.1172 19.3242 89.043 18.9375 88.8945C18.5547 88.7461 18.2207 88.5273 17.9355 88.2383C17.6543 87.9453 17.4355 87.5879 17.2793 87.166C17.127 86.7441 17.0508 86.2598 17.0508 85.7129C17.0508 84.9863 17.1797 84.3711 17.4375 83.8672C17.6953 83.3633 18.0625 82.9805 18.5391 82.7188C19.0156 82.457 19.584 82.3262 20.2441 82.3262C20.8574 82.3262 21.4004 82.457 21.873 82.7188C22.3496 82.9805 22.7227 83.3633 22.9922 83.8672C23.2656 84.3711 23.4023 84.9863 23.4023 85.7129ZM18.873 85.7129C18.873 86.1426 18.9199 86.5039 19.0137 86.7969C19.1074 87.0898 19.2539 87.3105 19.4531 87.459C19.6523 87.6074 19.9121 87.6816 20.2324 87.6816C20.5488 87.6816 20.8047 87.6074 21 87.459C21.1992 87.3105 21.3438 87.0898 21.4336 86.7969C21.5273 86.5039 21.5742 86.1426 21.5742 85.7129C21.5742 85.2793 21.5273 84.9199 21.4336 84.6348C21.3438 84.3457 21.1992 84.1289 21 83.9844C20.8008 83.8398 20.541 83.7676 20.2207 83.7676C19.748 83.7676 19.4043 83.9297 19.1895 84.2539C18.9785 84.5781 18.873 85.0645 18.873 85.7129ZM33.1934 86.6211C33.1934 87.1289 33.0703 87.5703 32.8242 87.9453C32.5781 88.3203 32.2188 88.6094 31.7461 88.8125C31.2773 89.0156 30.707 89.1172 30.0352 89.1172C29.7383 89.1172 29.4473 89.0977 29.1621 89.0586C28.8809 89.0195 28.6094 88.9629 28.3477 88.8887C28.0898 88.8105 27.8438 88.7148 27.6094 88.6016V86.9141C28.0156 87.0938 28.4375 87.2559 28.875 87.4004C29.3125 87.5449 29.7461 87.6172 30.1758 87.6172C30.4727 87.6172 30.7109 87.5781 30.8906 87.5C31.0742 87.4219 31.207 87.3145 31.2891 87.1777C31.3711 87.041 31.4121 86.8848 31.4121 86.709C31.4121 86.4941 31.3398 86.3105 31.1953 86.1582C31.0508 86.0059 30.8516 85.8633 30.5977 85.7305C30.3477 85.5977 30.0645 85.4551 29.748 85.3027C29.5488 85.209 29.332 85.0957 29.0977 84.9629C28.8633 84.8262 28.6406 84.6602 28.4297 84.4648C28.2188 84.2695 28.0449 84.0332 27.9082 83.7559C27.7754 83.4746 27.709 83.1387 27.709 82.748C27.709 82.2363 27.8262 81.7988 28.0605 81.4355C28.2949 81.0723 28.6289 80.7949 29.0625 80.6035C29.5 80.4082 30.0156 80.3105 30.6094 80.3105C31.0547 80.3105 31.4785 80.3633 31.8809 80.4688C32.2871 80.5703 32.7109 80.7188 33.1523 80.9141L32.5664 82.3262C32.1719 82.166 31.8184 82.043 31.5059 81.957C31.1934 81.8672 30.875 81.8223 30.5508 81.8223C30.3242 81.8223 30.1309 81.8594 29.9707 81.9336C29.8105 82.0039 29.6895 82.1055 29.6074 82.2383C29.5254 82.3672 29.4844 82.5176 29.4844 82.6895C29.4844 82.8926 29.543 83.0645 29.6602 83.2051C29.7812 83.3418 29.9609 83.4746 30.1992 83.6035C30.4414 83.7324 30.7422 83.8828 31.1016 84.0547C31.5391 84.2617 31.9121 84.4785 32.2207 84.7051C32.5332 84.9277 32.7734 85.1914 32.9414 85.4961C33.1094 85.7969 33.1934 86.1719 33.1934 86.6211ZM37.3066 82.3262C37.9121 82.3262 38.4336 82.4434 38.8711 82.6777C39.3086 82.9082 39.6465 83.2441 39.8848 83.6855C40.123 84.127 40.2422 84.666 40.2422 85.3027V86.1699H36.0176C36.0371 86.6738 36.1875 87.0703 36.4688 87.3594C36.7539 87.6445 37.1484 87.7871 37.6523 87.7871C38.0703 87.7871 38.4531 87.7441 38.8008 87.6582C39.1484 87.5723 39.5059 87.4434 39.873 87.2715V88.6543C39.5488 88.8145 39.209 88.9316 38.8535 89.0059C38.502 89.0801 38.0742 89.1172 37.5703 89.1172C36.9141 89.1172 36.332 88.9961 35.8242 88.7539C35.3203 88.5117 34.9238 88.1426 34.6348 87.6465C34.3496 87.1504 34.207 86.5254 34.207 85.7715C34.207 85.0059 34.3359 84.3691 34.5938 83.8613C34.8555 83.3496 35.2188 82.9668 35.6836 82.7129C36.1484 82.4551 36.6895 82.3262 37.3066 82.3262ZM37.3184 83.5977C36.9707 83.5977 36.6816 83.709 36.4512 83.9316C36.2246 84.1543 36.0938 84.5039 36.0586 84.9805H38.5664C38.5625 84.7148 38.5137 84.4785 38.4199 84.2715C38.3301 84.0645 38.1934 83.9004 38.0098 83.7793C37.8301 83.6582 37.5996 83.5977 37.3184 83.5977ZM46.2656 87.0547C46.2656 87.5 46.1602 87.877 45.9492 88.1855C45.7422 88.4902 45.4316 88.7227 45.0176 88.8828C44.6035 89.0391 44.0879 89.1172 43.4707 89.1172C43.0137 89.1172 42.6211 89.0879 42.293 89.0293C41.9688 88.9707 41.6406 88.873 41.3086 88.7363V87.2598C41.6641 87.4199 42.0449 87.5527 42.4512 87.6582C42.8613 87.7598 43.2207 87.8105 43.5293 87.8105C43.877 87.8105 44.125 87.7598 44.2734 87.6582C44.4258 87.5527 44.502 87.416 44.502 87.248C44.502 87.1387 44.4707 87.041 44.4082 86.9551C44.3496 86.8652 44.2207 86.7656 44.0215 86.6562C43.8223 86.543 43.5098 86.3965 43.084 86.2168C42.6738 86.0449 42.3359 85.8711 42.0703 85.6953C41.8086 85.5195 41.6133 85.3125 41.4844 85.0742C41.3594 84.832 41.2969 84.5254 41.2969 84.1543C41.2969 83.5488 41.5312 83.0938 42 82.7891C42.4727 82.4805 43.1035 82.3262 43.8926 82.3262C44.2988 82.3262 44.6855 82.3672 45.0527 82.4492C45.4238 82.5312 45.8047 82.6621 46.1953 82.8418L45.6562 84.1309C45.332 83.9902 45.0254 83.875 44.7363 83.7852C44.4512 83.6953 44.1602 83.6504 43.8633 83.6504C43.6016 83.6504 43.4043 83.6855 43.2715 83.7559C43.1387 83.8262 43.0723 83.9336 43.0723 84.0781C43.0723 84.1836 43.1055 84.2773 43.1719 84.3594C43.2422 84.4414 43.375 84.5332 43.5703 84.6348C43.7695 84.7324 44.0605 84.8594 44.4434 85.0156C44.8145 85.168 45.1367 85.3281 45.4102 85.4961C45.6836 85.6602 45.8945 85.8652 46.043 86.1113C46.1914 86.3535 46.2656 86.668 46.2656 87.0547ZM52.2305 87.0547C52.2305 87.5 52.125 87.877 51.9141 88.1855C51.707 88.4902 51.3965 88.7227 50.9824 88.8828C50.5684 89.0391 50.0527 89.1172 49.4355 89.1172C48.9785 89.1172 48.5859 89.0879 48.2578 89.0293C47.9336 88.9707 47.6055 88.873 47.2734 88.7363V87.2598C47.6289 87.4199 48.0098 87.5527 48.416 87.6582C48.8262 87.7598 49.1855 87.8105 49.4941 87.8105C49.8418 87.8105 50.0898 87.7598 50.2383 87.6582C50.3906 87.5527 50.4668 87.416 50.4668 87.248C50.4668 87.1387 50.4355 87.041 50.373 86.9551C50.3145 86.8652 50.1855 86.7656 49.9863 86.6562C49.7871 86.543 49.4746 86.3965 49.0488 86.2168C48.6387 86.0449 48.3008 85.8711 48.0352 85.6953C47.7734 85.5195 47.5781 85.3125 47.4492 85.0742C47.3242 84.832 47.2617 84.5254 47.2617 84.1543C47.2617 83.5488 47.4961 83.0938 47.9648 82.7891C48.4375 82.4805 49.0684 82.3262 49.8574 82.3262C50.2637 82.3262 50.6504 82.3672 51.0176 82.4492C51.3887 82.5312 51.7695 82.6621 52.1602 82.8418L51.6211 84.1309C51.2969 83.9902 50.9902 83.875 50.7012 83.7852C50.416 83.6953 50.125 83.6504 49.8281 83.6504C49.5664 83.6504 49.3691 83.6855 49.2363 83.7559C49.1035 83.8262 49.0371 83.9336 49.0371 84.0781C49.0371 84.1836 49.0703 84.2773 49.1367 84.3594C49.207 84.4414 49.3398 84.5332 49.5352 84.6348C49.7344 84.7324 50.0254 84.8594 50.4082 85.0156C50.7793 85.168 51.1016 85.3281 51.375 85.4961C51.6484 85.6602 51.8594 85.8652 52.0078 86.1113C52.1562 86.3535 52.2305 86.668 52.2305 87.0547ZM55.4121 82.4492V89H53.625V82.4492H55.4121ZM54.5215 79.8828C54.7871 79.8828 55.0156 79.9453 55.207 80.0703C55.3984 80.1914 55.4941 80.4199 55.4941 80.7559C55.4941 81.0879 55.3984 81.3184 55.207 81.4473C55.0156 81.5723 54.7871 81.6348 54.5215 81.6348C54.252 81.6348 54.0215 81.5723 53.8301 81.4473C53.6426 81.3184 53.5488 81.0879 53.5488 80.7559C53.5488 80.4199 53.6426 80.1914 53.8301 80.0703C54.0215 79.9453 54.252 79.8828 54.5215 79.8828ZM63.2461 85.7129C63.2461 86.2598 63.1719 86.7441 63.0234 87.166C62.8789 87.5879 62.666 87.9453 62.3848 88.2383C62.1074 88.5273 61.7715 88.7461 61.377 88.8945C60.9863 89.043 60.5449 89.1172 60.0527 89.1172C59.5918 89.1172 59.168 89.043 58.7812 88.8945C58.3984 88.7461 58.0645 88.5273 57.7793 88.2383C57.498 87.9453 57.2793 87.5879 57.123 87.166C56.9707 86.7441 56.8945 86.2598 56.8945 85.7129C56.8945 84.9863 57.0234 84.3711 57.2812 83.8672C57.5391 83.3633 57.9062 82.9805 58.3828 82.7188C58.8594 82.457 59.4277 82.3262 60.0879 82.3262C60.7012 82.3262 61.2441 82.457 61.7168 82.7188C62.1934 82.9805 62.5664 83.3633 62.8359 83.8672C63.1094 84.3711 63.2461 84.9863 63.2461 85.7129ZM58.7168 85.7129C58.7168 86.1426 58.7637 86.5039 58.8574 86.7969C58.9512 87.0898 59.0977 87.3105 59.2969 87.459C59.4961 87.6074 59.7559 87.6816 60.0762 87.6816C60.3926 87.6816 60.6484 87.6074 60.8438 87.459C61.043 87.3105 61.1875 87.0898 61.2773 86.7969C61.3711 86.5039 61.418 86.1426 61.418 85.7129C61.418 85.2793 61.3711 84.9199 61.2773 84.6348C61.1875 84.3457 61.043 84.1289 60.8438 83.9844C60.6445 83.8398 60.3848 83.7676 60.0645 83.7676C59.5918 83.7676 59.248 83.9297 59.0332 84.2539C58.8223 84.5781 58.7168 85.0645 58.7168 85.7129ZM68.4434 82.3262C69.1426 82.3262 69.7051 82.5176 70.1309 82.9004C70.5566 83.2793 70.7695 83.8887 70.7695 84.7285V89H68.9824V85.1738C68.9824 84.7051 68.8965 84.3516 68.7246 84.1133C68.5566 83.875 68.291 83.7559 67.9277 83.7559C67.3809 83.7559 67.0078 83.9414 66.8086 84.3125C66.6094 84.6836 66.5098 85.2188 66.5098 85.918V89H64.7227V82.4492H66.0879L66.3281 83.2871H66.4277C66.5684 83.0605 66.7422 82.877 66.9492 82.7363C67.1602 82.5957 67.3926 82.4922 67.6465 82.4258C67.9043 82.3594 68.1699 82.3262 68.4434 82.3262ZM80.6426 84.0547L80.3672 85.4141H81.8789V86.6211H80.1387L79.6875 89H78.3984L78.8555 86.6211H77.7188L77.2734 89H76.0137L76.4473 86.6211H75.0527V85.4141H76.6758L76.9512 84.0547H75.4746V82.8301H77.168L77.6191 80.4453H78.9023L78.4512 82.8301H79.6113L80.0684 80.4453H81.3281L80.8711 82.8301H82.2773V84.0547H80.6426ZM77.9473 85.4141H79.0957L79.3711 84.0547H78.2227L77.9473 85.4141ZM87.5039 89H85.6934V84.043C85.6934 83.9062 85.6953 83.7383 85.6992 83.5391C85.7031 83.3359 85.709 83.1289 85.7168 82.918C85.7246 82.7031 85.7324 82.5098 85.7402 82.3379C85.6973 82.3887 85.6094 82.4766 85.4766 82.6016C85.3477 82.7227 85.2266 82.832 85.1133 82.9297L84.1289 83.7207L83.2559 82.6309L86.0156 80.4336H87.5039V89Z" fill="white"/>
<path d="M6.00586 102.721C6.00586 103.229 5.87891 103.662 5.625 104.021C5.375 104.377 5.02344 104.648 4.57031 104.836C4.11719 105.023 3.58398 105.117 2.9707 105.117C2.64648 105.117 2.33984 105.102 2.05078 105.07C1.76172 105.039 1.49609 104.994 1.25391 104.936C1.01172 104.877 0.798828 104.805 0.615234 104.719V103.764C0.908203 103.885 1.26562 103.998 1.6875 104.104C2.10938 104.205 2.55078 104.256 3.01172 104.256C3.44141 104.256 3.80469 104.199 4.10156 104.086C4.39844 103.969 4.62305 103.803 4.77539 103.588C4.93164 103.369 5.00977 103.107 5.00977 102.803C5.00977 102.51 4.94531 102.266 4.81641 102.07C4.6875 101.871 4.47266 101.691 4.17188 101.531C3.875 101.367 3.46875 101.193 2.95312 101.01C2.58984 100.881 2.26953 100.74 1.99219 100.588C1.71484 100.432 1.48242 100.256 1.29492 100.061C1.10742 99.8652 0.964844 99.6387 0.867188 99.3809C0.773438 99.123 0.726562 98.8281 0.726562 98.4961C0.726562 98.0391 0.841797 97.6484 1.07227 97.3242C1.30664 96.9961 1.62891 96.7461 2.03906 96.5742C2.45312 96.3984 2.92773 96.3105 3.46289 96.3105C3.91992 96.3105 4.3418 96.3535 4.72852 96.4395C5.11914 96.5254 5.47656 96.6406 5.80078 96.7852L5.49023 97.6406C5.18164 97.5117 4.85352 97.4043 4.50586 97.3184C4.16211 97.2324 3.80664 97.1895 3.43945 97.1895C3.07227 97.1895 2.76172 97.2441 2.50781 97.3535C2.25781 97.459 2.06641 97.6094 1.93359 97.8047C1.80078 98 1.73438 98.2324 1.73438 98.502C1.73438 98.8027 1.79688 99.0527 1.92188 99.252C2.05078 99.4512 2.25391 99.6289 2.53125 99.7852C2.8125 99.9375 3.18359 100.098 3.64453 100.266C4.14844 100.449 4.57617 100.645 4.92773 100.852C5.2793 101.055 5.54688 101.305 5.73047 101.602C5.91406 101.895 6.00586 102.268 6.00586 102.721ZM10.084 98.4609C10.6309 98.4609 11.0996 98.582 11.4902 98.8242C11.8809 99.0664 12.1797 99.4062 12.3867 99.8438C12.5938 100.277 12.6973 100.785 12.6973 101.367V101.971H8.26172C8.27344 102.725 8.46094 103.299 8.82422 103.693C9.1875 104.088 9.69922 104.285 10.3594 104.285C10.7656 104.285 11.125 104.248 11.4375 104.174C11.75 104.1 12.0742 103.99 12.4102 103.846V104.701C12.0859 104.846 11.7637 104.951 11.4434 105.018C11.127 105.084 10.752 105.117 10.3184 105.117C9.70117 105.117 9.16211 104.992 8.70117 104.742C8.24414 104.488 7.88867 104.117 7.63477 103.629C7.38086 103.141 7.25391 102.543 7.25391 101.836C7.25391 101.145 7.36914 100.547 7.59961 100.043C7.83398 99.5352 8.16211 99.1445 8.58398 98.8711C9.00977 98.5977 9.50977 98.4609 10.084 98.4609ZM10.0723 99.2578C9.55273 99.2578 9.13867 99.4277 8.83008 99.7676C8.52148 100.107 8.33789 100.582 8.2793 101.191H11.6777C11.6738 100.809 11.6133 100.473 11.4961 100.184C11.3828 99.8906 11.209 99.6641 10.9746 99.5039C10.7402 99.3398 10.4395 99.2578 10.0723 99.2578ZM17.3672 98.4609C18.168 98.4609 18.8066 98.7363 19.2832 99.2871C19.7598 99.8379 19.998 100.666 19.998 101.771C19.998 102.502 19.8887 103.115 19.6699 103.611C19.4512 104.107 19.1426 104.482 18.7441 104.736C18.3496 104.99 17.8828 105.117 17.3438 105.117C17.0039 105.117 16.7051 105.072 16.4473 104.982C16.1895 104.893 15.9688 104.771 15.7852 104.619C15.6016 104.467 15.4492 104.301 15.3281 104.121H15.2578C15.2695 104.273 15.2832 104.457 15.2988 104.672C15.3184 104.887 15.3281 105.074 15.3281 105.234V107.871H14.3496V98.5781H15.1523L15.2812 99.5273H15.3281C15.4531 99.332 15.6055 99.1543 15.7852 98.9941C15.9648 98.8301 16.1836 98.7012 16.4414 98.6074C16.7031 98.5098 17.0117 98.4609 17.3672 98.4609ZM17.1973 99.2812C16.752 99.2812 16.3926 99.3672 16.1191 99.5391C15.8496 99.7109 15.6523 99.9688 15.5273 100.312C15.4023 100.652 15.3359 101.08 15.3281 101.596V101.783C15.3281 102.326 15.3867 102.785 15.5039 103.16C15.625 103.535 15.8223 103.82 16.0957 104.016C16.373 104.211 16.7441 104.309 17.209 104.309C17.6074 104.309 17.9395 104.201 18.2051 103.986C18.4707 103.771 18.668 103.473 18.7969 103.09C18.9297 102.703 18.9961 102.26 18.9961 101.76C18.9961 101.002 18.8477 100.4 18.5508 99.9551C18.2578 99.5059 17.8066 99.2812 17.1973 99.2812ZM28.002 105H27.0527V98.9297C27.0527 98.6992 27.0527 98.502 27.0527 98.3379C27.0566 98.1699 27.0605 98.0176 27.0645 97.8809C27.0723 97.7402 27.082 97.5977 27.0938 97.4531C26.9727 97.5781 26.8594 97.6855 26.7539 97.7754C26.6484 97.8613 26.5176 97.9688 26.3613 98.0977L25.3828 98.8828L24.873 98.2207L27.1934 96.4336H28.002V105ZM32.3555 105L35.8711 97.3242H31.2012V96.4336H36.9141V97.1836L33.4219 105H32.3555ZM39.6621 103.605L39.7383 103.74C39.668 104.025 39.5781 104.33 39.4688 104.654C39.3633 104.979 39.2461 105.303 39.1172 105.627C38.9922 105.955 38.8652 106.262 38.7363 106.547H38.0098C38.0918 106.234 38.1719 105.904 38.25 105.557C38.3281 105.213 38.3984 104.873 38.4609 104.537C38.5273 104.197 38.5801 103.887 38.6191 103.605H39.6621ZM45.4453 105L48.9609 97.3242H44.291V96.4336H50.0039V97.1836L46.5117 105H45.4453ZM54.0234 96.4336C55.1289 96.4336 55.9355 96.6504 56.4434 97.084C56.9551 97.5137 57.2109 98.1309 57.2109 98.9355C57.2109 99.2988 57.1504 99.6445 57.0293 99.9727C56.9121 100.297 56.7207 100.584 56.4551 100.834C56.1895 101.08 55.8398 101.275 55.4062 101.42C54.9766 101.561 54.4492 101.631 53.8242 101.631H52.7812V105H51.7852V96.4336H54.0234ZM53.9297 97.2832H52.7812V100.775H53.7129C54.2598 100.775 54.7148 100.717 55.0781 100.6C55.4453 100.482 55.7207 100.293 55.9043 100.031C56.0879 99.7656 56.1797 99.4141 56.1797 98.9766C56.1797 98.4062 55.998 97.9824 55.6348 97.7051C55.2715 97.4238 54.7031 97.2832 53.9297 97.2832ZM62.7715 105L59.8945 97.418H59.8477C59.8633 97.5781 59.877 97.7734 59.8887 98.0039C59.9004 98.2344 59.9102 98.4863 59.918 98.7598C59.9258 99.0293 59.9297 99.3047 59.9297 99.5859V105H59.0039V96.4336H60.4805L63.1934 103.559H63.2344L65.9883 96.4336H67.4531V105H66.4688V99.5156C66.4688 99.2617 66.4727 99.0078 66.4805 98.7539C66.4883 98.4961 66.498 98.2539 66.5098 98.0273C66.5215 97.7969 66.5332 97.5977 66.5449 97.4297H66.498L63.5859 105H62.7715ZM69.1055 102.211V101.344H72.0117V102.211H69.1055ZM75.9141 96.3105C76.4102 96.3105 76.8496 96.3887 77.2324 96.5449C77.6152 96.7012 77.9141 96.9316 78.1289 97.2363C78.3477 97.5371 78.457 97.9082 78.457 98.3496C78.457 98.6973 78.3809 99.002 78.2285 99.2637C78.0801 99.5215 77.8789 99.748 77.625 99.9434C77.3711 100.135 77.0898 100.307 76.7812 100.459C77.1484 100.627 77.4785 100.816 77.7715 101.027C78.0684 101.238 78.3027 101.486 78.4746 101.771C78.6465 102.057 78.7324 102.395 78.7324 102.785C78.7324 103.266 78.6152 103.682 78.3809 104.033C78.1504 104.381 77.8262 104.648 77.4082 104.836C76.9902 105.023 76.5 105.117 75.9375 105.117C75.332 105.117 74.8164 105.027 74.3906 104.848C73.9688 104.664 73.6465 104.402 73.4238 104.062C73.2051 103.719 73.0957 103.307 73.0957 102.826C73.0957 102.432 73.1797 102.09 73.3477 101.801C73.5156 101.508 73.7383 101.256 74.0156 101.045C74.293 100.834 74.5957 100.656 74.9238 100.512C74.6387 100.355 74.377 100.178 74.1387 99.9785C73.9043 99.7793 73.7168 99.5469 73.5762 99.2812C73.4395 99.0117 73.3711 98.6992 73.3711 98.3438C73.3711 97.9102 73.4805 97.543 73.6992 97.2422C73.9219 96.9375 74.2246 96.707 74.6074 96.5508C74.9941 96.3906 75.4297 96.3105 75.9141 96.3105ZM74.0508 102.832C74.0508 103.27 74.2051 103.631 74.5137 103.916C74.8223 104.197 75.2891 104.338 75.9141 104.338C76.5078 104.338 76.9668 104.197 77.291 103.916C77.6152 103.631 77.7773 103.258 77.7773 102.797C77.7773 102.512 77.7031 102.262 77.5547 102.047C77.4062 101.828 77.1953 101.633 76.9219 101.461C76.6484 101.289 76.3262 101.133 75.9551 100.992L75.7441 100.916C75.3848 101.064 75.0781 101.23 74.8242 101.414C74.5742 101.594 74.3828 101.799 74.25 102.029C74.1172 102.26 74.0508 102.527 74.0508 102.832ZM75.9023 97.1074C75.4414 97.1074 75.0645 97.2188 74.7715 97.4414C74.4785 97.6602 74.332 97.9766 74.332 98.3906C74.332 98.6875 74.4023 98.9395 74.543 99.1465C74.6875 99.3496 74.8828 99.5254 75.1289 99.6738C75.375 99.8184 75.6504 99.9531 75.9551 100.078C76.252 99.9531 76.5156 99.8164 76.7461 99.668C76.9766 99.5156 77.1582 99.3359 77.291 99.1289C77.4238 98.9219 77.4902 98.6738 77.4902 98.3848C77.4902 97.9707 77.3438 97.6543 77.0508 97.4355C76.7617 97.2168 76.3789 97.1074 75.9023 97.1074ZM82.7695 96.4336C83.875 96.4336 84.6816 96.6504 85.1895 97.084C85.7012 97.5137 85.957 98.1309 85.957 98.9355C85.957 99.2988 85.8965 99.6445 85.7754 99.9727C85.6582 100.297 85.4668 100.584 85.2012 100.834C84.9355 101.08 84.5859 101.275 84.1523 101.42C83.7227 101.561 83.1953 101.631 82.5703 101.631H81.5273V105H80.5312V96.4336H82.7695ZM82.6758 97.2832H81.5273V100.775H82.459C83.0059 100.775 83.4609 100.717 83.8242 100.6C84.1914 100.482 84.4668 100.293 84.6504 100.031C84.834 99.7656 84.9258 99.4141 84.9258 98.9766C84.9258 98.4062 84.7441 97.9824 84.3809 97.7051C84.0176 97.4238 83.4492 97.2832 82.6758 97.2832ZM91.5176 105L88.6406 97.418H88.5938C88.6094 97.5781 88.623 97.7734 88.6348 98.0039C88.6465 98.2344 88.6562 98.4863 88.6641 98.7598C88.6719 99.0293 88.6758 99.3047 88.6758 99.5859V105H87.75V96.4336H89.2266L91.9395 103.559H91.9805L94.7344 96.4336H96.1992V105H95.2148V99.5156C95.2148 99.2617 95.2188 99.0078 95.2266 98.7539C95.2344 98.4961 95.2441 98.2539 95.2559 98.0273C95.2676 97.7969 95.2793 97.5977 95.291 97.4297H95.2441L92.332 105H91.5176ZM7.66406 121H6.66797V116.963H2.16797V121H1.17188V112.434H2.16797V116.084H6.66797V112.434H7.66406V121ZM15.4102 117.777C15.4102 118.305 15.3418 118.775 15.2051 119.189C15.0684 119.604 14.8711 119.953 14.6133 120.238C14.3555 120.523 14.043 120.742 13.6758 120.895C13.3125 121.043 12.9004 121.117 12.4395 121.117C12.0098 121.117 11.6152 121.043 11.2559 120.895C10.9004 120.742 10.5918 120.523 10.3301 120.238C10.0723 119.953 9.87109 119.604 9.72656 119.189C9.58594 118.775 9.51562 118.305 9.51562 117.777C9.51562 117.074 9.63477 116.477 9.87305 115.984C10.1113 115.488 10.4512 115.111 10.8926 114.854C11.3379 114.592 11.8672 114.461 12.4805 114.461C13.0664 114.461 13.5781 114.592 14.0156 114.854C14.457 115.115 14.7988 115.494 15.041 115.99C15.2871 116.482 15.4102 117.078 15.4102 117.777ZM10.5234 117.777C10.5234 118.293 10.5918 118.74 10.7285 119.119C10.8652 119.498 11.0762 119.791 11.3613 119.998C11.6465 120.205 12.0137 120.309 12.4629 120.309C12.9082 120.309 13.2734 120.205 13.5586 119.998C13.8477 119.791 14.0605 119.498 14.1973 119.119C14.334 118.74 14.4023 118.293 14.4023 117.777C14.4023 117.266 14.334 116.824 14.1973 116.453C14.0605 116.078 13.8496 115.789 13.5645 115.586C13.2793 115.383 12.9102 115.281 12.457 115.281C11.7891 115.281 11.2988 115.502 10.9863 115.943C10.6777 116.385 10.5234 116.996 10.5234 117.777ZM18.0703 121H17.0918V111.883H18.0703V121ZM21.1055 121H20.127V111.883H21.1055V121ZM24.1348 114.578V121H23.1621V114.578H24.1348ZM23.6602 112.176C23.8203 112.176 23.957 112.229 24.0703 112.334C24.1875 112.436 24.2461 112.596 24.2461 112.814C24.2461 113.029 24.1875 113.189 24.0703 113.295C23.957 113.4 23.8203 113.453 23.6602 113.453C23.4922 113.453 23.3516 113.4 23.2383 113.295C23.1289 113.189 23.0742 113.029 23.0742 112.814C23.0742 112.596 23.1289 112.436 23.2383 112.334C23.3516 112.229 23.4922 112.176 23.6602 112.176ZM30.3516 119.242C30.3516 119.652 30.248 119.998 30.041 120.279C29.8379 120.557 29.5449 120.766 29.1621 120.906C28.7832 121.047 28.3301 121.117 27.8027 121.117C27.3535 121.117 26.9648 121.082 26.6367 121.012C26.3086 120.941 26.0215 120.842 25.7754 120.713V119.816C26.0371 119.945 26.3496 120.062 26.7129 120.168C27.0762 120.273 27.4473 120.326 27.8262 120.326C28.3809 120.326 28.7832 120.236 29.0332 120.057C29.2832 119.877 29.4082 119.633 29.4082 119.324C29.4082 119.148 29.3574 118.994 29.2559 118.861C29.1582 118.725 28.9922 118.594 28.7578 118.469C28.5234 118.34 28.1992 118.199 27.7852 118.047C27.375 117.891 27.0195 117.736 26.7188 117.584C26.4219 117.428 26.1914 117.238 26.0273 117.016C25.8672 116.793 25.7871 116.504 25.7871 116.148C25.7871 115.605 26.0059 115.189 26.4434 114.9C26.8848 114.607 27.4629 114.461 28.1777 114.461C28.5645 114.461 28.9258 114.5 29.2617 114.578C29.6016 114.652 29.918 114.754 30.2109 114.883L29.8828 115.662C29.6172 115.549 29.334 115.453 29.0332 115.375C28.7324 115.297 28.4258 115.258 28.1133 115.258C27.6641 115.258 27.3184 115.332 27.0762 115.48C26.8379 115.629 26.7188 115.832 26.7188 116.09C26.7188 116.289 26.7734 116.453 26.8828 116.582C26.9961 116.711 27.1758 116.832 27.4219 116.945C27.668 117.059 27.9922 117.191 28.3945 117.344C28.7969 117.492 29.1445 117.646 29.4375 117.807C29.7305 117.963 29.9551 118.154 30.1113 118.381C30.2715 118.604 30.3516 118.891 30.3516 119.242ZM33.9902 120.32C34.1504 120.32 34.3145 120.307 34.4824 120.279C34.6504 120.252 34.7871 120.219 34.8926 120.18V120.936C34.7793 120.986 34.6211 121.029 34.418 121.064C34.2188 121.1 34.0234 121.117 33.832 121.117C33.4922 121.117 33.1836 121.059 32.9062 120.941C32.6289 120.82 32.4062 120.617 32.2383 120.332C32.0742 120.047 31.9922 119.652 31.9922 119.148V115.34H31.0781V114.865L31.998 114.484L32.3848 113.09H32.9707V114.578H34.8516V115.34H32.9707V119.119C32.9707 119.521 33.0625 119.822 33.2461 120.021C33.4336 120.221 33.6816 120.32 33.9902 120.32ZM38.666 114.461C39.2129 114.461 39.6816 114.582 40.0723 114.824C40.4629 115.066 40.7617 115.406 40.9688 115.844C41.1758 116.277 41.2793 116.785 41.2793 117.367V117.971H36.8438C36.8555 118.725 37.043 119.299 37.4062 119.693C37.7695 120.088 38.2812 120.285 38.9414 120.285C39.3477 120.285 39.707 120.248 40.0195 120.174C40.332 120.1 40.6562 119.99 40.9922 119.846V120.701C40.668 120.846 40.3457 120.951 40.0254 121.018C39.709 121.084 39.334 121.117 38.9004 121.117C38.2832 121.117 37.7441 120.992 37.2832 120.742C36.8262 120.488 36.4707 120.117 36.2168 119.629C35.9629 119.141 35.8359 118.543 35.8359 117.836C35.8359 117.145 35.9512 116.547 36.1816 116.043C36.416 115.535 36.7441 115.145 37.166 114.871C37.5918 114.598 38.0918 114.461 38.666 114.461ZM38.6543 115.258C38.1348 115.258 37.7207 115.428 37.4121 115.768C37.1035 116.107 36.9199 116.582 36.8613 117.191H40.2598C40.2559 116.809 40.1953 116.473 40.0781 116.184C39.9648 115.891 39.791 115.664 39.5566 115.504C39.3223 115.34 39.0215 115.258 38.6543 115.258ZM45.8496 114.461C45.9785 114.461 46.1133 114.469 46.2539 114.484C46.3945 114.496 46.5195 114.514 46.6289 114.537L46.5059 115.439C46.4004 115.412 46.2832 115.391 46.1543 115.375C46.0254 115.359 45.9043 115.352 45.791 115.352C45.5332 115.352 45.2891 115.404 45.0586 115.51C44.832 115.611 44.6328 115.76 44.4609 115.955C44.2891 116.146 44.1543 116.379 44.0566 116.652C43.959 116.922 43.9102 117.223 43.9102 117.555V121H42.9316V114.578H43.7402L43.8457 115.762H43.8867C44.0195 115.523 44.1797 115.307 44.3672 115.111C44.5547 114.912 44.7715 114.754 45.0176 114.637C45.2676 114.52 45.5449 114.461 45.8496 114.461ZM55.8223 114.432C55.8223 114.814 55.748 115.146 55.5996 115.428C55.4512 115.709 55.2441 115.939 54.9785 116.119C54.7129 116.295 54.4004 116.418 54.041 116.488V116.535C54.7207 116.621 55.2305 116.84 55.5703 117.191C55.9141 117.543 56.0859 118.004 56.0859 118.574C56.0859 119.07 55.9688 119.51 55.7344 119.893C55.5039 120.275 55.1484 120.576 54.668 120.795C54.1914 121.01 53.5801 121.117 52.834 121.117C52.3809 121.117 51.9609 121.08 51.5742 121.006C51.1914 120.936 50.8242 120.816 50.4727 120.648V119.734C50.8281 119.91 51.2148 120.049 51.6328 120.15C52.0508 120.248 52.4551 120.297 52.8457 120.297C53.627 120.297 54.1914 120.143 54.5391 119.834C54.8867 119.521 55.0605 119.096 55.0605 118.557C55.0605 118.186 54.9629 117.887 54.7676 117.66C54.5762 117.43 54.2988 117.262 53.9355 117.156C53.5762 117.047 53.1426 116.992 52.6348 116.992H51.7793V116.16H52.6406C53.1055 116.16 53.5 116.092 53.8242 115.955C54.1484 115.818 54.3945 115.627 54.5625 115.381C54.7344 115.131 54.8203 114.836 54.8203 114.496C54.8203 114.062 54.6758 113.729 54.3867 113.494C54.0977 113.256 53.7051 113.137 53.209 113.137C52.9043 113.137 52.627 113.168 52.377 113.23C52.127 113.293 51.8926 113.379 51.6738 113.488C51.4551 113.598 51.2363 113.725 51.0176 113.869L50.5254 113.201C50.8379 112.959 51.2188 112.75 51.668 112.574C52.1172 112.398 52.627 112.311 53.1973 112.311C54.0723 112.311 54.7285 112.51 55.166 112.908C55.6035 113.307 55.8223 113.814 55.8223 114.432ZM57.4805 117.338C57.4805 116.822 57.5156 116.318 57.5859 115.826C57.6602 115.334 57.7832 114.877 57.9551 114.455C58.127 114.029 58.3613 113.656 58.6582 113.336C58.9551 113.016 59.3242 112.766 59.7656 112.586C60.2109 112.402 60.7441 112.311 61.3652 112.311C61.541 112.311 61.7305 112.32 61.9336 112.34C62.1367 112.355 62.3047 112.383 62.4375 112.422V113.26C62.293 113.209 62.127 113.172 61.9395 113.148C61.7559 113.125 61.5703 113.113 61.3828 113.113C60.6562 113.113 60.084 113.271 59.666 113.588C59.252 113.904 58.9531 114.334 58.7695 114.877C58.5859 115.416 58.4805 116.023 58.4531 116.699H58.5176C58.6387 116.504 58.793 116.328 58.9805 116.172C59.168 116.012 59.3945 115.885 59.6602 115.791C59.9297 115.697 60.2422 115.65 60.5977 115.65C61.0977 115.65 61.5332 115.752 61.9043 115.955C62.2793 116.158 62.5684 116.453 62.7715 116.84C62.9785 117.227 63.082 117.695 63.082 118.246C63.082 118.836 62.9727 119.346 62.7539 119.775C62.5352 120.205 62.2227 120.537 61.8164 120.771C61.4141 121.002 60.9336 121.117 60.375 121.117C59.957 121.117 59.5723 121.037 59.2207 120.877C58.8691 120.717 58.5625 120.479 58.3008 120.162C58.043 119.846 57.8418 119.453 57.6973 118.984C57.5527 118.512 57.4805 117.963 57.4805 117.338ZM60.3633 120.297C60.8945 120.297 61.3203 120.127 61.6406 119.787C61.9609 119.447 62.1211 118.934 62.1211 118.246C62.1211 117.684 61.9785 117.238 61.6934 116.91C61.4082 116.582 60.9785 116.418 60.4043 116.418C60.0137 116.418 59.6738 116.5 59.3848 116.664C59.0957 116.824 58.8711 117.027 58.7109 117.273C58.5508 117.52 58.4707 117.77 58.4707 118.023C58.4707 118.281 58.5078 118.543 58.582 118.809C58.6602 119.074 58.7773 119.32 58.9336 119.547C59.0898 119.773 59.2871 119.955 59.5254 120.092C59.7637 120.229 60.043 120.297 60.3633 120.297ZM69.873 121H64.2598V120.186L66.5508 117.859C66.9766 117.43 67.334 117.047 67.623 116.711C67.916 116.375 68.1387 116.045 68.291 115.721C68.4434 115.393 68.5195 115.033 68.5195 114.643C68.5195 114.158 68.375 113.789 68.0859 113.535C67.8008 113.277 67.4238 113.148 66.9551 113.148C66.5449 113.148 66.1816 113.219 65.8652 113.359C65.5488 113.5 65.2246 113.699 64.8926 113.957L64.3711 113.301C64.5977 113.109 64.8438 112.939 65.1094 112.791C65.3789 112.643 65.666 112.525 65.9707 112.439C66.2793 112.354 66.6074 112.311 66.9551 112.311C67.4824 112.311 67.9375 112.402 68.3203 112.586C68.7031 112.77 68.998 113.031 69.2051 113.371C69.416 113.711 69.5215 114.115 69.5215 114.584C69.5215 115.037 69.4316 115.459 69.252 115.85C69.0723 116.236 68.8203 116.621 68.4961 117.004C68.1719 117.383 67.793 117.785 67.3594 118.211L65.4961 120.068V120.109H69.873V121Z" fill="white"/>
<path d="M175.078 89V80.4336H176.895V89H175.078ZM182.631 82.3262C183.33 82.3262 183.893 82.5176 184.318 82.9004C184.744 83.2793 184.957 83.8887 184.957 84.7285V89H183.17V85.1738C183.17 84.7051 183.084 84.3516 182.912 84.1133C182.744 83.875 182.479 83.7559 182.115 83.7559C181.568 83.7559 181.195 83.9414 180.996 84.3125C180.797 84.6836 180.697 85.2188 180.697 85.918V89H178.91V82.4492H180.275L180.516 83.2871H180.615C180.756 83.0605 180.93 82.877 181.137 82.7363C181.348 82.5957 181.58 82.4922 181.834 82.4258C182.092 82.3594 182.357 82.3262 182.631 82.3262ZM190.418 83.791H188.871V89H187.084V83.791H186.1V82.9297L187.084 82.4492V81.9688C187.084 81.4102 187.178 80.9766 187.365 80.668C187.557 80.3555 187.824 80.1367 188.168 80.0117C188.516 79.8828 188.926 79.8184 189.398 79.8184C189.746 79.8184 190.062 79.8477 190.348 79.9062C190.633 79.9609 190.865 80.0234 191.045 80.0938L190.588 81.4062C190.451 81.3633 190.303 81.3242 190.143 81.2891C189.982 81.2539 189.799 81.2363 189.592 81.2363C189.342 81.2363 189.158 81.3125 189.041 81.4648C188.928 81.6133 188.871 81.8047 188.871 82.0391V82.4492H190.418V83.791ZM197.402 85.7129C197.402 86.2598 197.328 86.7441 197.18 87.166C197.035 87.5879 196.822 87.9453 196.541 88.2383C196.264 88.5273 195.928 88.7461 195.533 88.8945C195.143 89.043 194.701 89.1172 194.209 89.1172C193.748 89.1172 193.324 89.043 192.938 88.8945C192.555 88.7461 192.221 88.5273 191.936 88.2383C191.654 87.9453 191.436 87.5879 191.279 87.166C191.127 86.7441 191.051 86.2598 191.051 85.7129C191.051 84.9863 191.18 84.3711 191.438 83.8672C191.695 83.3633 192.062 82.9805 192.539 82.7188C193.016 82.457 193.584 82.3262 194.244 82.3262C194.857 82.3262 195.4 82.457 195.873 82.7188C196.35 82.9805 196.723 83.3633 196.992 83.8672C197.266 84.3711 197.402 84.9863 197.402 85.7129ZM192.873 85.7129C192.873 86.1426 192.92 86.5039 193.014 86.7969C193.107 87.0898 193.254 87.3105 193.453 87.459C193.652 87.6074 193.912 87.6816 194.232 87.6816C194.549 87.6816 194.805 87.6074 195 87.459C195.199 87.3105 195.344 87.0898 195.434 86.7969C195.527 86.5039 195.574 86.1426 195.574 85.7129C195.574 85.2793 195.527 84.9199 195.434 84.6348C195.344 84.3457 195.199 84.1289 195 83.9844C194.801 83.8398 194.541 83.7676 194.221 83.7676C193.748 83.7676 193.404 83.9297 193.189 84.2539C192.979 84.5781 192.873 85.0645 192.873 85.7129ZM207.193 86.6211C207.193 87.1289 207.07 87.5703 206.824 87.9453C206.578 88.3203 206.219 88.6094 205.746 88.8125C205.277 89.0156 204.707 89.1172 204.035 89.1172C203.738 89.1172 203.447 89.0977 203.162 89.0586C202.881 89.0195 202.609 88.9629 202.348 88.8887C202.09 88.8105 201.844 88.7148 201.609 88.6016V86.9141C202.016 87.0938 202.438 87.2559 202.875 87.4004C203.312 87.5449 203.746 87.6172 204.176 87.6172C204.473 87.6172 204.711 87.5781 204.891 87.5C205.074 87.4219 205.207 87.3145 205.289 87.1777C205.371 87.041 205.412 86.8848 205.412 86.709C205.412 86.4941 205.34 86.3105 205.195 86.1582C205.051 86.0059 204.852 85.8633 204.598 85.7305C204.348 85.5977 204.064 85.4551 203.748 85.3027C203.549 85.209 203.332 85.0957 203.098 84.9629C202.863 84.8262 202.641 84.6602 202.43 84.4648C202.219 84.2695 202.045 84.0332 201.908 83.7559C201.775 83.4746 201.709 83.1387 201.709 82.748C201.709 82.2363 201.826 81.7988 202.061 81.4355C202.295 81.0723 202.629 80.7949 203.062 80.6035C203.5 80.4082 204.016 80.3105 204.609 80.3105C205.055 80.3105 205.479 80.3633 205.881 80.4688C206.287 80.5703 206.711 80.7188 207.152 80.9141L206.566 82.3262C206.172 82.166 205.818 82.043 205.506 81.957C205.193 81.8672 204.875 81.8223 204.551 81.8223C204.324 81.8223 204.131 81.8594 203.971 81.9336C203.811 82.0039 203.689 82.1055 203.607 82.2383C203.525 82.3672 203.484 82.5176 203.484 82.6895C203.484 82.8926 203.543 83.0645 203.66 83.2051C203.781 83.3418 203.961 83.4746 204.199 83.6035C204.441 83.7324 204.742 83.8828 205.102 84.0547C205.539 84.2617 205.912 84.4785 206.221 84.7051C206.533 84.9277 206.773 85.1914 206.941 85.4961C207.109 85.7969 207.193 86.1719 207.193 86.6211ZM211.307 82.3262C211.912 82.3262 212.434 82.4434 212.871 82.6777C213.309 82.9082 213.646 83.2441 213.885 83.6855C214.123 84.127 214.242 84.666 214.242 85.3027V86.1699H210.018C210.037 86.6738 210.188 87.0703 210.469 87.3594C210.754 87.6445 211.148 87.7871 211.652 87.7871C212.07 87.7871 212.453 87.7441 212.801 87.6582C213.148 87.5723 213.506 87.4434 213.873 87.2715V88.6543C213.549 88.8145 213.209 88.9316 212.854 89.0059C212.502 89.0801 212.074 89.1172 211.57 89.1172C210.914 89.1172 210.332 88.9961 209.824 88.7539C209.32 88.5117 208.924 88.1426 208.635 87.6465C208.35 87.1504 208.207 86.5254 208.207 85.7715C208.207 85.0059 208.336 84.3691 208.594 83.8613C208.855 83.3496 209.219 82.9668 209.684 82.7129C210.148 82.4551 210.689 82.3262 211.307 82.3262ZM211.318 83.5977C210.971 83.5977 210.682 83.709 210.451 83.9316C210.225 84.1543 210.094 84.5039 210.059 84.9805H212.566C212.562 84.7148 212.514 84.4785 212.42 84.2715C212.33 84.0645 212.193 83.9004 212.01 83.7793C211.83 83.6582 211.6 83.5977 211.318 83.5977ZM220.266 87.0547C220.266 87.5 220.16 87.877 219.949 88.1855C219.742 88.4902 219.432 88.7227 219.018 88.8828C218.604 89.0391 218.088 89.1172 217.471 89.1172C217.014 89.1172 216.621 89.0879 216.293 89.0293C215.969 88.9707 215.641 88.873 215.309 88.7363V87.2598C215.664 87.4199 216.045 87.5527 216.451 87.6582C216.861 87.7598 217.221 87.8105 217.529 87.8105C217.877 87.8105 218.125 87.7598 218.273 87.6582C218.426 87.5527 218.502 87.416 218.502 87.248C218.502 87.1387 218.471 87.041 218.408 86.9551C218.35 86.8652 218.221 86.7656 218.021 86.6562C217.822 86.543 217.51 86.3965 217.084 86.2168C216.674 86.0449 216.336 85.8711 216.07 85.6953C215.809 85.5195 215.613 85.3125 215.484 85.0742C215.359 84.832 215.297 84.5254 215.297 84.1543C215.297 83.5488 215.531 83.0938 216 82.7891C216.473 82.4805 217.104 82.3262 217.893 82.3262C218.299 82.3262 218.686 82.3672 219.053 82.4492C219.424 82.5312 219.805 82.6621 220.195 82.8418L219.656 84.1309C219.332 83.9902 219.025 83.875 218.736 83.7852C218.451 83.6953 218.16 83.6504 217.863 83.6504C217.602 83.6504 217.404 83.6855 217.271 83.7559C217.139 83.8262 217.072 83.9336 217.072 84.0781C217.072 84.1836 217.105 84.2773 217.172 84.3594C217.242 84.4414 217.375 84.5332 217.57 84.6348C217.77 84.7324 218.061 84.8594 218.443 85.0156C218.814 85.168 219.137 85.3281 219.41 85.4961C219.684 85.6602 219.895 85.8652 220.043 86.1113C220.191 86.3535 220.266 86.668 220.266 87.0547ZM226.23 87.0547C226.23 87.5 226.125 87.877 225.914 88.1855C225.707 88.4902 225.396 88.7227 224.982 88.8828C224.568 89.0391 224.053 89.1172 223.436 89.1172C222.979 89.1172 222.586 89.0879 222.258 89.0293C221.934 88.9707 221.605 88.873 221.273 88.7363V87.2598C221.629 87.4199 222.01 87.5527 222.416 87.6582C222.826 87.7598 223.186 87.8105 223.494 87.8105C223.842 87.8105 224.09 87.7598 224.238 87.6582C224.391 87.5527 224.467 87.416 224.467 87.248C224.467 87.1387 224.436 87.041 224.373 86.9551C224.314 86.8652 224.186 86.7656 223.986 86.6562C223.787 86.543 223.475 86.3965 223.049 86.2168C222.639 86.0449 222.301 85.8711 222.035 85.6953C221.773 85.5195 221.578 85.3125 221.449 85.0742C221.324 84.832 221.262 84.5254 221.262 84.1543C221.262 83.5488 221.496 83.0938 221.965 82.7891C222.438 82.4805 223.068 82.3262 223.857 82.3262C224.264 82.3262 224.65 82.3672 225.018 82.4492C225.389 82.5312 225.77 82.6621 226.16 82.8418L225.621 84.1309C225.297 83.9902 224.99 83.875 224.701 83.7852C224.416 83.6953 224.125 83.6504 223.828 83.6504C223.566 83.6504 223.369 83.6855 223.236 83.7559C223.104 83.8262 223.037 83.9336 223.037 84.0781C223.037 84.1836 223.07 84.2773 223.137 84.3594C223.207 84.4414 223.34 84.5332 223.535 84.6348C223.734 84.7324 224.025 84.8594 224.408 85.0156C224.779 85.168 225.102 85.3281 225.375 85.4961C225.648 85.6602 225.859 85.8652 226.008 86.1113C226.156 86.3535 226.23 86.668 226.23 87.0547ZM229.412 82.4492V89H227.625V82.4492H229.412ZM228.521 79.8828C228.787 79.8828 229.016 79.9453 229.207 80.0703C229.398 80.1914 229.494 80.4199 229.494 80.7559C229.494 81.0879 229.398 81.3184 229.207 81.4473C229.016 81.5723 228.787 81.6348 228.521 81.6348C228.252 81.6348 228.021 81.5723 227.83 81.4473C227.643 81.3184 227.549 81.0879 227.549 80.7559C227.549 80.4199 227.643 80.1914 227.83 80.0703C228.021 79.9453 228.252 79.8828 228.521 79.8828ZM237.246 85.7129C237.246 86.2598 237.172 86.7441 237.023 87.166C236.879 87.5879 236.666 87.9453 236.385 88.2383C236.107 88.5273 235.771 88.7461 235.377 88.8945C234.986 89.043 234.545 89.1172 234.053 89.1172C233.592 89.1172 233.168 89.043 232.781 88.8945C232.398 88.7461 232.064 88.5273 231.779 88.2383C231.498 87.9453 231.279 87.5879 231.123 87.166C230.971 86.7441 230.895 86.2598 230.895 85.7129C230.895 84.9863 231.023 84.3711 231.281 83.8672C231.539 83.3633 231.906 82.9805 232.383 82.7188C232.859 82.457 233.428 82.3262 234.088 82.3262C234.701 82.3262 235.244 82.457 235.717 82.7188C236.193 82.9805 236.566 83.3633 236.836 83.8672C237.109 84.3711 237.246 84.9863 237.246 85.7129ZM232.717 85.7129C232.717 86.1426 232.764 86.5039 232.857 86.7969C232.951 87.0898 233.098 87.3105 233.297 87.459C233.496 87.6074 233.756 87.6816 234.076 87.6816C234.393 87.6816 234.648 87.6074 234.844 87.459C235.043 87.3105 235.188 87.0898 235.277 86.7969C235.371 86.5039 235.418 86.1426 235.418 85.7129C235.418 85.2793 235.371 84.9199 235.277 84.6348C235.188 84.3457 235.043 84.1289 234.844 83.9844C234.645 83.8398 234.385 83.7676 234.064 83.7676C233.592 83.7676 233.248 83.9297 233.033 84.2539C232.822 84.5781 232.717 85.0645 232.717 85.7129ZM242.443 82.3262C243.143 82.3262 243.705 82.5176 244.131 82.9004C244.557 83.2793 244.77 83.8887 244.77 84.7285V89H242.982V85.1738C242.982 84.7051 242.896 84.3516 242.725 84.1133C242.557 83.875 242.291 83.7559 241.928 83.7559C241.381 83.7559 241.008 83.9414 240.809 84.3125C240.609 84.6836 240.51 85.2188 240.51 85.918V89H238.723V82.4492H240.088L240.328 83.2871H240.428C240.568 83.0605 240.742 82.877 240.949 82.7363C241.16 82.5957 241.393 82.4922 241.646 82.4258C241.904 82.3594 242.17 82.3262 242.443 82.3262ZM254.643 84.0547L254.367 85.4141H255.879V86.6211H254.139L253.688 89H252.398L252.855 86.6211H251.719L251.273 89H250.014L250.447 86.6211H249.053V85.4141H250.676L250.951 84.0547H249.475V82.8301H251.168L251.619 80.4453H252.902L252.451 82.8301H253.611L254.068 80.4453H255.328L254.871 82.8301H256.277V84.0547H254.643ZM251.947 85.4141H253.096L253.371 84.0547H252.223L251.947 85.4141ZM263.016 89H257.027V87.7402L259.178 85.5664C259.611 85.1211 259.959 84.75 260.221 84.4531C260.486 84.1523 260.678 83.8789 260.795 83.6328C260.916 83.3867 260.977 83.123 260.977 82.8418C260.977 82.502 260.881 82.248 260.689 82.0801C260.502 81.9082 260.25 81.8223 259.934 81.8223C259.602 81.8223 259.279 81.8984 258.967 82.0508C258.654 82.2031 258.328 82.4199 257.988 82.7012L257.004 81.5352C257.25 81.3242 257.51 81.125 257.783 80.9375C258.061 80.75 258.381 80.5996 258.744 80.4863C259.111 80.3691 259.551 80.3105 260.062 80.3105C260.625 80.3105 261.107 80.4121 261.51 80.6152C261.916 80.8184 262.229 81.0957 262.447 81.4473C262.666 81.7949 262.775 82.1895 262.775 82.6309C262.775 83.1035 262.682 83.5352 262.494 83.9258C262.307 84.3164 262.033 84.7031 261.674 85.0859C261.318 85.4688 260.889 85.8926 260.385 86.3574L259.283 87.3945V87.4766H263.016V89Z" fill="white"/>
<path d="M182.602 100.705C182.602 101.365 182.518 101.967 182.35 102.51C182.182 103.049 181.932 103.514 181.6 103.904C181.271 104.291 180.863 104.59 180.375 104.801C179.887 105.012 179.32 105.117 178.676 105.117C178.012 105.117 177.432 105.012 176.936 104.801C176.443 104.59 176.033 104.289 175.705 103.898C175.381 103.508 175.137 103.041 174.973 102.498C174.812 101.955 174.732 101.354 174.732 100.693C174.732 99.8184 174.877 99.0508 175.166 98.3906C175.455 97.7305 175.893 97.2168 176.479 96.8496C177.068 96.4824 177.807 96.2988 178.693 96.2988C179.541 96.2988 180.254 96.4805 180.832 96.8438C181.414 97.207 181.854 97.7188 182.15 98.3789C182.451 99.0352 182.602 99.8105 182.602 100.705ZM175.781 100.705C175.781 101.432 175.885 102.061 176.092 102.592C176.299 103.123 176.615 103.533 177.041 103.822C177.471 104.111 178.016 104.256 178.676 104.256C179.34 104.256 179.883 104.111 180.305 103.822C180.73 103.533 181.045 103.123 181.248 102.592C181.451 102.061 181.553 101.432 181.553 100.705C181.553 99.5996 181.32 98.7363 180.855 98.1152C180.395 97.4902 179.674 97.1777 178.693 97.1777C178.029 97.1777 177.482 97.3203 177.053 97.6055C176.623 97.8906 176.303 98.2969 176.092 98.8242C175.885 99.3477 175.781 99.9746 175.781 100.705ZM186.938 105.117C186.359 105.117 185.85 104.998 185.408 104.76C184.967 104.521 184.623 104.158 184.377 103.67C184.131 103.182 184.008 102.566 184.008 101.824C184.008 101.047 184.137 100.412 184.395 99.9199C184.656 99.4238 185.016 99.0566 185.473 98.8184C185.93 98.5801 186.449 98.4609 187.031 98.4609C187.352 98.4609 187.66 98.4941 187.957 98.5605C188.258 98.623 188.504 98.7031 188.695 98.8008L188.402 99.6152C188.207 99.5371 187.98 99.4668 187.723 99.4043C187.469 99.3418 187.23 99.3105 187.008 99.3105C186.562 99.3105 186.191 99.4062 185.895 99.5977C185.602 99.7891 185.381 100.07 185.232 100.441C185.088 100.812 185.016 101.27 185.016 101.812C185.016 102.332 185.086 102.775 185.227 103.143C185.371 103.51 185.584 103.791 185.865 103.986C186.15 104.178 186.506 104.273 186.932 104.273C187.271 104.273 187.578 104.238 187.852 104.168C188.125 104.094 188.373 104.008 188.596 103.91V104.777C188.381 104.887 188.141 104.971 187.875 105.029C187.613 105.088 187.301 105.117 186.938 105.117ZM192.193 104.32C192.354 104.32 192.518 104.307 192.686 104.279C192.854 104.252 192.99 104.219 193.096 104.18V104.936C192.982 104.986 192.824 105.029 192.621 105.064C192.422 105.1 192.227 105.117 192.035 105.117C191.695 105.117 191.387 105.059 191.109 104.941C190.832 104.82 190.609 104.617 190.441 104.332C190.277 104.047 190.195 103.652 190.195 103.148V99.3398H189.281V98.8652L190.201 98.4844L190.588 97.0898H191.174V98.5781H193.055V99.3398H191.174V103.119C191.174 103.521 191.266 103.822 191.449 104.021C191.637 104.221 191.885 104.32 192.193 104.32ZM200.701 105H199.752V98.9297C199.752 98.6992 199.752 98.502 199.752 98.3379C199.756 98.1699 199.76 98.0176 199.764 97.8809C199.771 97.7402 199.781 97.5977 199.793 97.4531C199.672 97.5781 199.559 97.6855 199.453 97.7754C199.348 97.8613 199.217 97.9688 199.061 98.0977L198.082 98.8828L197.572 98.2207L199.893 96.4336H200.701V105ZM205.494 103.605L205.57 103.74C205.5 104.025 205.41 104.33 205.301 104.654C205.195 104.979 205.078 105.303 204.949 105.627C204.824 105.955 204.697 106.262 204.568 106.547H203.842C203.924 106.234 204.004 105.904 204.082 105.557C204.16 105.213 204.23 104.873 204.293 104.537C204.359 104.197 204.412 103.887 204.451 103.605H205.494ZM212.877 99.7617C213.459 99.7617 213.965 99.8613 214.395 100.061C214.824 100.256 215.156 100.541 215.391 100.916C215.629 101.291 215.748 101.746 215.748 102.281C215.748 102.867 215.621 103.373 215.367 103.799C215.113 104.221 214.748 104.547 214.271 104.777C213.795 105.004 213.225 105.117 212.561 105.117C212.115 105.117 211.701 105.078 211.318 105C210.936 104.922 210.613 104.805 210.352 104.648V103.723C210.637 103.895 210.982 104.031 211.389 104.133C211.795 104.234 212.189 104.285 212.572 104.285C213.006 104.285 213.385 104.217 213.709 104.08C214.037 103.939 214.291 103.729 214.471 103.447C214.654 103.162 214.746 102.805 214.746 102.375C214.746 101.805 214.57 101.365 214.219 101.057C213.871 100.744 213.32 100.588 212.566 100.588C212.324 100.588 212.059 100.607 211.77 100.646C211.48 100.686 211.242 100.729 211.055 100.775L210.562 100.453L210.891 96.4336H215.15V97.3242H211.723L211.506 99.9082C211.654 99.877 211.846 99.8457 212.08 99.8145C212.314 99.7793 212.58 99.7617 212.877 99.7617ZM219.855 96.4336C220.961 96.4336 221.768 96.6504 222.275 97.084C222.787 97.5137 223.043 98.1309 223.043 98.9355C223.043 99.2988 222.982 99.6445 222.861 99.9727C222.744 100.297 222.553 100.584 222.287 100.834C222.021 101.08 221.672 101.275 221.238 101.42C220.809 101.561 220.281 101.631 219.656 101.631H218.613V105H217.617V96.4336H219.855ZM219.762 97.2832H218.613V100.775H219.545C220.092 100.775 220.547 100.717 220.91 100.6C221.277 100.482 221.553 100.293 221.736 100.031C221.92 99.7656 222.012 99.4141 222.012 98.9766C222.012 98.4062 221.83 97.9824 221.467 97.7051C221.104 97.4238 220.535 97.2832 219.762 97.2832ZM228.604 105L225.727 97.418H225.68C225.695 97.5781 225.709 97.7734 225.721 98.0039C225.732 98.2344 225.742 98.4863 225.75 98.7598C225.758 99.0293 225.762 99.3047 225.762 99.5859V105H224.836V96.4336H226.312L229.025 103.559H229.066L231.82 96.4336H233.285V105H232.301V99.5156C232.301 99.2617 232.305 99.0078 232.312 98.7539C232.32 98.4961 232.33 98.2539 232.342 98.0273C232.354 97.7969 232.365 97.5977 232.377 97.4297H232.33L229.418 105H228.604ZM234.938 102.211V101.344H237.844V102.211H234.938ZM239.004 101.338C239.004 100.822 239.039 100.318 239.109 99.8262C239.184 99.334 239.307 98.877 239.479 98.4551C239.65 98.0293 239.885 97.6562 240.182 97.3359C240.479 97.0156 240.848 96.7656 241.289 96.5859C241.734 96.4023 242.268 96.3105 242.889 96.3105C243.064 96.3105 243.254 96.3203 243.457 96.3398C243.66 96.3555 243.828 96.3828 243.961 96.4219V97.2598C243.816 97.209 243.65 97.1719 243.463 97.1484C243.279 97.125 243.094 97.1133 242.906 97.1133C242.18 97.1133 241.607 97.2715 241.189 97.5879C240.775 97.9043 240.477 98.334 240.293 98.877C240.109 99.416 240.004 100.023 239.977 100.699H240.041C240.162 100.504 240.316 100.328 240.504 100.172C240.691 100.012 240.918 99.8848 241.184 99.791C241.453 99.6973 241.766 99.6504 242.121 99.6504C242.621 99.6504 243.057 99.752 243.428 99.9551C243.803 100.158 244.092 100.453 244.295 100.84C244.502 101.227 244.605 101.695 244.605 102.246C244.605 102.836 244.496 103.346 244.277 103.775C244.059 104.205 243.746 104.537 243.34 104.771C242.938 105.002 242.457 105.117 241.898 105.117C241.48 105.117 241.096 105.037 240.744 104.877C240.393 104.717 240.086 104.479 239.824 104.162C239.566 103.846 239.365 103.453 239.221 102.984C239.076 102.512 239.004 101.963 239.004 101.338ZM241.887 104.297C242.418 104.297 242.844 104.127 243.164 103.787C243.484 103.447 243.645 102.934 243.645 102.246C243.645 101.684 243.502 101.238 243.217 100.91C242.932 100.582 242.502 100.418 241.928 100.418C241.537 100.418 241.197 100.5 240.908 100.664C240.619 100.824 240.395 101.027 240.234 101.273C240.074 101.52 239.994 101.77 239.994 102.023C239.994 102.281 240.031 102.543 240.105 102.809C240.184 103.074 240.301 103.32 240.457 103.547C240.613 103.773 240.811 103.955 241.049 104.092C241.287 104.229 241.566 104.297 241.887 104.297ZM248.602 96.4336C249.707 96.4336 250.514 96.6504 251.021 97.084C251.533 97.5137 251.789 98.1309 251.789 98.9355C251.789 99.2988 251.729 99.6445 251.607 99.9727C251.49 100.297 251.299 100.584 251.033 100.834C250.768 101.08 250.418 101.275 249.984 101.42C249.555 101.561 249.027 101.631 248.402 101.631H247.359V105H246.363V96.4336H248.602ZM248.508 97.2832H247.359V100.775H248.291C248.838 100.775 249.293 100.717 249.656 100.6C250.023 100.482 250.299 100.293 250.482 100.031C250.666 99.7656 250.758 99.4141 250.758 98.9766C250.758 98.4062 250.576 97.9824 250.213 97.7051C249.85 97.4238 249.281 97.2832 248.508 97.2832ZM257.35 105L254.473 97.418H254.426C254.441 97.5781 254.455 97.7734 254.467 98.0039C254.479 98.2344 254.488 98.4863 254.496 98.7598C254.504 99.0293 254.508 99.3047 254.508 99.5859V105H253.582V96.4336H255.059L257.771 103.559H257.812L260.566 96.4336H262.031V105H261.047V99.5156C261.047 99.2617 261.051 99.0078 261.059 98.7539C261.066 98.4961 261.076 98.2539 261.088 98.0273C261.1 97.7969 261.111 97.5977 261.123 97.4297H261.076L258.164 105H257.35ZM181.664 121H180.668V116.963H176.168V121H175.172V112.434H176.168V116.084H180.668V112.434H181.664V121ZM189.41 117.777C189.41 118.305 189.342 118.775 189.205 119.189C189.068 119.604 188.871 119.953 188.613 120.238C188.355 120.523 188.043 120.742 187.676 120.895C187.312 121.043 186.9 121.117 186.439 121.117C186.01 121.117 185.615 121.043 185.256 120.895C184.9 120.742 184.592 120.523 184.33 120.238C184.072 119.953 183.871 119.604 183.727 119.189C183.586 118.775 183.516 118.305 183.516 117.777C183.516 117.074 183.635 116.477 183.873 115.984C184.111 115.488 184.451 115.111 184.893 114.854C185.338 114.592 185.867 114.461 186.48 114.461C187.066 114.461 187.578 114.592 188.016 114.854C188.457 115.115 188.799 115.494 189.041 115.99C189.287 116.482 189.41 117.078 189.41 117.777ZM184.523 117.777C184.523 118.293 184.592 118.74 184.729 119.119C184.865 119.498 185.076 119.791 185.361 119.998C185.646 120.205 186.014 120.309 186.463 120.309C186.908 120.309 187.273 120.205 187.559 119.998C187.848 119.791 188.061 119.498 188.197 119.119C188.334 118.74 188.402 118.293 188.402 117.777C188.402 117.266 188.334 116.824 188.197 116.453C188.061 116.078 187.85 115.789 187.564 115.586C187.279 115.383 186.91 115.281 186.457 115.281C185.789 115.281 185.299 115.502 184.986 115.943C184.678 116.385 184.523 116.996 184.523 117.777ZM192.07 121H191.092V111.883H192.07V121ZM195.105 121H194.127V111.883H195.105V121ZM198.135 114.578V121H197.162V114.578H198.135ZM197.66 112.176C197.82 112.176 197.957 112.229 198.07 112.334C198.188 112.436 198.246 112.596 198.246 112.814C198.246 113.029 198.188 113.189 198.07 113.295C197.957 113.4 197.82 113.453 197.66 113.453C197.492 113.453 197.352 113.4 197.238 113.295C197.129 113.189 197.074 113.029 197.074 112.814C197.074 112.596 197.129 112.436 197.238 112.334C197.352 112.229 197.492 112.176 197.66 112.176ZM204.352 119.242C204.352 119.652 204.248 119.998 204.041 120.279C203.838 120.557 203.545 120.766 203.162 120.906C202.783 121.047 202.33 121.117 201.803 121.117C201.354 121.117 200.965 121.082 200.637 121.012C200.309 120.941 200.021 120.842 199.775 120.713V119.816C200.037 119.945 200.35 120.062 200.713 120.168C201.076 120.273 201.447 120.326 201.826 120.326C202.381 120.326 202.783 120.236 203.033 120.057C203.283 119.877 203.408 119.633 203.408 119.324C203.408 119.148 203.357 118.994 203.256 118.861C203.158 118.725 202.992 118.594 202.758 118.469C202.523 118.34 202.199 118.199 201.785 118.047C201.375 117.891 201.02 117.736 200.719 117.584C200.422 117.428 200.191 117.238 200.027 117.016C199.867 116.793 199.787 116.504 199.787 116.148C199.787 115.605 200.006 115.189 200.443 114.9C200.885 114.607 201.463 114.461 202.178 114.461C202.564 114.461 202.926 114.5 203.262 114.578C203.602 114.652 203.918 114.754 204.211 114.883L203.883 115.662C203.617 115.549 203.334 115.453 203.033 115.375C202.732 115.297 202.426 115.258 202.113 115.258C201.664 115.258 201.318 115.332 201.076 115.48C200.838 115.629 200.719 115.832 200.719 116.09C200.719 116.289 200.773 116.453 200.883 116.582C200.996 116.711 201.176 116.832 201.422 116.945C201.668 117.059 201.992 117.191 202.395 117.344C202.797 117.492 203.145 117.646 203.438 117.807C203.73 117.963 203.955 118.154 204.111 118.381C204.271 118.604 204.352 118.891 204.352 119.242ZM207.99 120.32C208.15 120.32 208.314 120.307 208.482 120.279C208.65 120.252 208.787 120.219 208.893 120.18V120.936C208.779 120.986 208.621 121.029 208.418 121.064C208.219 121.1 208.023 121.117 207.832 121.117C207.492 121.117 207.184 121.059 206.906 120.941C206.629 120.82 206.406 120.617 206.238 120.332C206.074 120.047 205.992 119.652 205.992 119.148V115.34H205.078V114.865L205.998 114.484L206.385 113.09H206.971V114.578H208.852V115.34H206.971V119.119C206.971 119.521 207.062 119.822 207.246 120.021C207.434 120.221 207.682 120.32 207.99 120.32ZM212.666 114.461C213.213 114.461 213.682 114.582 214.072 114.824C214.463 115.066 214.762 115.406 214.969 115.844C215.176 116.277 215.279 116.785 215.279 117.367V117.971H210.844C210.855 118.725 211.043 119.299 211.406 119.693C211.77 120.088 212.281 120.285 212.941 120.285C213.348 120.285 213.707 120.248 214.02 120.174C214.332 120.1 214.656 119.99 214.992 119.846V120.701C214.668 120.846 214.346 120.951 214.025 121.018C213.709 121.084 213.334 121.117 212.9 121.117C212.283 121.117 211.744 120.992 211.283 120.742C210.826 120.488 210.471 120.117 210.217 119.629C209.963 119.141 209.836 118.543 209.836 117.836C209.836 117.145 209.951 116.547 210.182 116.043C210.416 115.535 210.744 115.145 211.166 114.871C211.592 114.598 212.092 114.461 212.666 114.461ZM212.654 115.258C212.135 115.258 211.721 115.428 211.412 115.768C211.104 116.107 210.92 116.582 210.861 117.191H214.26C214.256 116.809 214.195 116.473 214.078 116.184C213.965 115.891 213.791 115.664 213.557 115.504C213.322 115.34 213.021 115.258 212.654 115.258ZM219.85 114.461C219.979 114.461 220.113 114.469 220.254 114.484C220.395 114.496 220.52 114.514 220.629 114.537L220.506 115.439C220.4 115.412 220.283 115.391 220.154 115.375C220.025 115.359 219.904 115.352 219.791 115.352C219.533 115.352 219.289 115.404 219.059 115.51C218.832 115.611 218.633 115.76 218.461 115.955C218.289 116.146 218.154 116.379 218.057 116.652C217.959 116.922 217.91 117.223 217.91 117.555V121H216.932V114.578H217.74L217.846 115.762H217.887C218.02 115.523 218.18 115.307 218.367 115.111C218.555 114.912 218.771 114.754 219.018 114.637C219.268 114.52 219.545 114.461 219.85 114.461ZM229.822 114.432C229.822 114.814 229.748 115.146 229.6 115.428C229.451 115.709 229.244 115.939 228.979 116.119C228.713 116.295 228.4 116.418 228.041 116.488V116.535C228.721 116.621 229.23 116.84 229.57 117.191C229.914 117.543 230.086 118.004 230.086 118.574C230.086 119.07 229.969 119.51 229.734 119.893C229.504 120.275 229.148 120.576 228.668 120.795C228.191 121.01 227.58 121.117 226.834 121.117C226.381 121.117 225.961 121.08 225.574 121.006C225.191 120.936 224.824 120.816 224.473 120.648V119.734C224.828 119.91 225.215 120.049 225.633 120.15C226.051 120.248 226.455 120.297 226.846 120.297C227.627 120.297 228.191 120.143 228.539 119.834C228.887 119.521 229.061 119.096 229.061 118.557C229.061 118.186 228.963 117.887 228.768 117.66C228.576 117.43 228.299 117.262 227.936 117.156C227.576 117.047 227.143 116.992 226.635 116.992H225.779V116.16H226.641C227.105 116.16 227.5 116.092 227.824 115.955C228.148 115.818 228.395 115.627 228.562 115.381C228.734 115.131 228.82 114.836 228.82 114.496C228.82 114.062 228.676 113.729 228.387 113.494C228.098 113.256 227.705 113.137 227.209 113.137C226.904 113.137 226.627 113.168 226.377 113.23C226.127 113.293 225.893 113.379 225.674 113.488C225.455 113.598 225.236 113.725 225.018 113.869L224.525 113.201C224.838 112.959 225.219 112.75 225.668 112.574C226.117 112.398 226.627 112.311 227.197 112.311C228.072 112.311 228.729 112.51 229.166 112.908C229.604 113.307 229.822 113.814 229.822 114.432ZM231.48 117.338C231.48 116.822 231.516 116.318 231.586 115.826C231.66 115.334 231.783 114.877 231.955 114.455C232.127 114.029 232.361 113.656 232.658 113.336C232.955 113.016 233.324 112.766 233.766 112.586C234.211 112.402 234.744 112.311 235.365 112.311C235.541 112.311 235.73 112.32 235.934 112.34C236.137 112.355 236.305 112.383 236.438 112.422V113.26C236.293 113.209 236.127 113.172 235.939 113.148C235.756 113.125 235.57 113.113 235.383 113.113C234.656 113.113 234.084 113.271 233.666 113.588C233.252 113.904 232.953 114.334 232.77 114.877C232.586 115.416 232.48 116.023 232.453 116.699H232.518C232.639 116.504 232.793 116.328 232.98 116.172C233.168 116.012 233.395 115.885 233.66 115.791C233.93 115.697 234.242 115.65 234.598 115.65C235.098 115.65 235.533 115.752 235.904 115.955C236.279 116.158 236.568 116.453 236.771 116.84C236.979 117.227 237.082 117.695 237.082 118.246C237.082 118.836 236.973 119.346 236.754 119.775C236.535 120.205 236.223 120.537 235.816 120.771C235.414 121.002 234.934 121.117 234.375 121.117C233.957 121.117 233.572 121.037 233.221 120.877C232.869 120.717 232.562 120.479 232.301 120.162C232.043 119.846 231.842 119.453 231.697 118.984C231.553 118.512 231.48 117.963 231.48 117.338ZM234.363 120.297C234.895 120.297 235.32 120.127 235.641 119.787C235.961 119.447 236.121 118.934 236.121 118.246C236.121 117.684 235.979 117.238 235.693 116.91C235.408 116.582 234.979 116.418 234.404 116.418C234.014 116.418 233.674 116.5 233.385 116.664C233.096 116.824 232.871 117.027 232.711 117.273C232.551 117.52 232.471 117.77 232.471 118.023C232.471 118.281 232.508 118.543 232.582 118.809C232.66 119.074 232.777 119.32 232.934 119.547C233.09 119.773 233.287 119.955 233.525 120.092C233.764 120.229 234.043 120.297 234.363 120.297ZM243.873 121H238.26V120.186L240.551 117.859C240.977 117.43 241.334 117.047 241.623 116.711C241.916 116.375 242.139 116.045 242.291 115.721C242.443 115.393 242.52 115.033 242.52 114.643C242.52 114.158 242.375 113.789 242.086 113.535C241.801 113.277 241.424 113.148 240.955 113.148C240.545 113.148 240.182 113.219 239.865 113.359C239.549 113.5 239.225 113.699 238.893 113.957L238.371 113.301C238.598 113.109 238.844 112.939 239.109 112.791C239.379 112.643 239.666 112.525 239.971 112.439C240.279 112.354 240.607 112.311 240.955 112.311C241.482 112.311 241.938 112.402 242.32 112.586C242.703 112.77 242.998 113.031 243.205 113.371C243.416 113.711 243.521 114.115 243.521 114.584C243.521 115.037 243.432 115.459 243.252 115.85C243.072 116.236 242.82 116.621 242.496 117.004C242.172 117.383 241.793 117.785 241.359 118.211L239.496 120.068V120.109H243.873V121Z" fill="white"/>
<path d="M331.943 89L331.322 86.9609H328.199L327.578 89H325.621L328.645 80.3984H330.865L333.9 89H331.943ZM330.889 85.4375L330.268 83.4453C330.229 83.3125 330.176 83.1426 330.109 82.9355C330.047 82.7246 329.982 82.5117 329.916 82.2969C329.854 82.0781 329.803 81.8887 329.764 81.7285C329.725 81.8887 329.67 82.0879 329.6 82.3262C329.533 82.5605 329.469 82.7832 329.406 82.9941C329.344 83.2051 329.299 83.3555 329.271 83.4453L328.656 85.4375H330.889ZM338.488 82.3262C339.227 82.3262 339.822 82.6133 340.275 83.1875C340.732 83.7617 340.961 84.6035 340.961 85.7129C340.961 86.4551 340.854 87.0801 340.639 87.5879C340.424 88.0918 340.127 88.4727 339.748 88.7305C339.369 88.9883 338.934 89.1172 338.441 89.1172C338.125 89.1172 337.854 89.0781 337.627 89C337.4 88.918 337.207 88.8145 337.047 88.6895C336.887 88.5605 336.748 88.4238 336.631 88.2793H336.537C336.568 88.4355 336.592 88.5957 336.607 88.7598C336.623 88.9238 336.631 89.084 336.631 89.2402V91.8828H334.844V82.4492H336.297L336.549 83.2988H336.631C336.748 83.123 336.891 82.9609 337.059 82.8125C337.227 82.6641 337.428 82.5469 337.662 82.4609C337.9 82.3711 338.176 82.3262 338.488 82.3262ZM337.914 83.7559C337.602 83.7559 337.354 83.8203 337.17 83.9492C336.986 84.0781 336.852 84.2715 336.766 84.5293C336.684 84.7871 336.639 85.1133 336.631 85.5078V85.7012C336.631 86.123 336.67 86.4805 336.748 86.7734C336.83 87.0664 336.965 87.2891 337.152 87.4414C337.344 87.5938 337.605 87.6699 337.938 87.6699C338.211 87.6699 338.436 87.5938 338.611 87.4414C338.787 87.2891 338.918 87.0664 339.004 86.7734C339.094 86.4766 339.139 86.1152 339.139 85.6895C339.139 85.0488 339.039 84.5664 338.84 84.2422C338.641 83.918 338.332 83.7559 337.914 83.7559ZM346.082 82.3262C346.82 82.3262 347.416 82.6133 347.869 83.1875C348.326 83.7617 348.555 84.6035 348.555 85.7129C348.555 86.4551 348.447 87.0801 348.232 87.5879C348.018 88.0918 347.721 88.4727 347.342 88.7305C346.963 88.9883 346.527 89.1172 346.035 89.1172C345.719 89.1172 345.447 89.0781 345.221 89C344.994 88.918 344.801 88.8145 344.641 88.6895C344.48 88.5605 344.342 88.4238 344.225 88.2793H344.131C344.162 88.4355 344.186 88.5957 344.201 88.7598C344.217 88.9238 344.225 89.084 344.225 89.2402V91.8828H342.438V82.4492H343.891L344.143 83.2988H344.225C344.342 83.123 344.484 82.9609 344.652 82.8125C344.82 82.6641 345.021 82.5469 345.256 82.4609C345.494 82.3711 345.77 82.3262 346.082 82.3262ZM345.508 83.7559C345.195 83.7559 344.947 83.8203 344.764 83.9492C344.58 84.0781 344.445 84.2715 344.359 84.5293C344.277 84.7871 344.232 85.1133 344.225 85.5078V85.7012C344.225 86.123 344.264 86.4805 344.342 86.7734C344.424 87.0664 344.559 87.2891 344.746 87.4414C344.938 87.5938 345.199 87.6699 345.531 87.6699C345.805 87.6699 346.029 87.5938 346.205 87.4414C346.381 87.2891 346.512 87.0664 346.598 86.7734C346.688 86.4766 346.732 86.1152 346.732 85.6895C346.732 85.0488 346.633 84.5664 346.434 84.2422C346.234 83.918 345.926 83.7559 345.508 83.7559ZM351.818 89H350.031V79.8828H351.818V89ZM355.486 82.4492V89H353.699V82.4492H355.486ZM354.596 79.8828C354.861 79.8828 355.09 79.9453 355.281 80.0703C355.473 80.1914 355.568 80.4199 355.568 80.7559C355.568 81.0879 355.473 81.3184 355.281 81.4473C355.09 81.5723 354.861 81.6348 354.596 81.6348C354.326 81.6348 354.096 81.5723 353.904 81.4473C353.717 81.3184 353.623 81.0879 353.623 80.7559C353.623 80.4199 353.717 80.1914 353.904 80.0703C354.096 79.9453 354.326 79.8828 354.596 79.8828ZM360.027 89.1172C359.379 89.1172 358.826 89 358.369 88.7656C357.912 88.5273 357.564 88.1602 357.326 87.6641C357.088 87.168 356.969 86.5332 356.969 85.7598C356.969 84.959 357.104 84.3066 357.373 83.8027C357.646 83.2949 358.023 82.9219 358.504 82.6836C358.988 82.4453 359.549 82.3262 360.186 82.3262C360.639 82.3262 361.029 82.3711 361.357 82.4609C361.689 82.5469 361.979 82.6504 362.225 82.7715L361.697 84.1543C361.416 84.041 361.154 83.9492 360.912 83.8789C360.67 83.8047 360.428 83.7676 360.186 83.7676C359.873 83.7676 359.613 83.8418 359.406 83.9902C359.199 84.1348 359.045 84.3535 358.943 84.6465C358.842 84.9395 358.791 85.3066 358.791 85.748C358.791 86.1816 358.846 86.541 358.955 86.8262C359.064 87.1113 359.223 87.3242 359.43 87.4648C359.637 87.6016 359.889 87.6699 360.186 87.6699C360.557 87.6699 360.887 87.6211 361.176 87.5234C361.465 87.4219 361.746 87.2812 362.02 87.1016V88.6309C361.746 88.8027 361.459 88.9258 361.158 89C360.861 89.0781 360.484 89.1172 360.027 89.1172ZM366.227 82.3145C367.105 82.3145 367.779 82.5059 368.248 82.8887C368.717 83.2715 368.951 83.8535 368.951 84.6348V89H367.703L367.357 88.1094H367.311C367.123 88.3438 366.932 88.5352 366.736 88.6836C366.541 88.832 366.316 88.9414 366.062 89.0117C365.809 89.082 365.5 89.1172 365.137 89.1172C364.75 89.1172 364.402 89.043 364.094 88.8945C363.789 88.7461 363.549 88.5195 363.373 88.2148C363.197 87.9062 363.109 87.5156 363.109 87.043C363.109 86.3477 363.354 85.8359 363.842 85.5078C364.33 85.1758 365.062 84.9922 366.039 84.957L367.176 84.9219V84.6348C367.176 84.291 367.086 84.0391 366.906 83.8789C366.727 83.7188 366.477 83.6387 366.156 83.6387C365.84 83.6387 365.529 83.6836 365.225 83.7734C364.92 83.8633 364.615 83.9766 364.311 84.1133L363.719 82.9062C364.066 82.7227 364.455 82.5781 364.885 82.4727C365.318 82.3672 365.766 82.3145 366.227 82.3145ZM367.176 85.9648L366.484 85.9883C365.906 86.0039 365.504 86.1074 365.277 86.2988C365.055 86.4902 364.943 86.7422 364.943 87.0547C364.943 87.3281 365.023 87.5234 365.184 87.6406C365.344 87.7539 365.553 87.8105 365.811 87.8105C366.193 87.8105 366.516 87.6973 366.777 87.4707C367.043 87.2441 367.176 86.9219 367.176 86.5039V85.9648ZM373.557 87.6934C373.752 87.6934 373.941 87.6738 374.125 87.6348C374.312 87.5957 374.498 87.5469 374.682 87.4883V88.8184C374.49 88.9043 374.252 88.9746 373.967 89.0293C373.686 89.0879 373.377 89.1172 373.041 89.1172C372.65 89.1172 372.299 89.0547 371.986 88.9297C371.678 88.8008 371.434 88.5801 371.254 88.2676C371.078 87.9512 370.99 87.5117 370.99 86.9492V83.791H370.135V83.0352L371.119 82.4375L371.635 81.0547H372.777V82.4492H374.611V83.791H372.777V86.9492C372.777 87.1992 372.848 87.3867 372.988 87.5117C373.133 87.6328 373.322 87.6934 373.557 87.6934ZM377.799 82.4492V89H376.012V82.4492H377.799ZM376.908 79.8828C377.174 79.8828 377.402 79.9453 377.594 80.0703C377.785 80.1914 377.881 80.4199 377.881 80.7559C377.881 81.0879 377.785 81.3184 377.594 81.4473C377.402 81.5723 377.174 81.6348 376.908 81.6348C376.639 81.6348 376.408 81.5723 376.217 81.4473C376.029 81.3184 375.936 81.0879 375.936 80.7559C375.936 80.4199 376.029 80.1914 376.217 80.0703C376.408 79.9453 376.639 79.8828 376.908 79.8828ZM385.633 85.7129C385.633 86.2598 385.559 86.7441 385.41 87.166C385.266 87.5879 385.053 87.9453 384.771 88.2383C384.494 88.5273 384.158 88.7461 383.764 88.8945C383.373 89.043 382.932 89.1172 382.439 89.1172C381.979 89.1172 381.555 89.043 381.168 88.8945C380.785 88.7461 380.451 88.5273 380.166 88.2383C379.885 87.9453 379.666 87.5879 379.51 87.166C379.357 86.7441 379.281 86.2598 379.281 85.7129C379.281 84.9863 379.41 84.3711 379.668 83.8672C379.926 83.3633 380.293 82.9805 380.77 82.7188C381.246 82.457 381.814 82.3262 382.475 82.3262C383.088 82.3262 383.631 82.457 384.104 82.7188C384.58 82.9805 384.953 83.3633 385.223 83.8672C385.496 84.3711 385.633 84.9863 385.633 85.7129ZM381.104 85.7129C381.104 86.1426 381.15 86.5039 381.244 86.7969C381.338 87.0898 381.484 87.3105 381.684 87.459C381.883 87.6074 382.143 87.6816 382.463 87.6816C382.779 87.6816 383.035 87.6074 383.23 87.459C383.43 87.3105 383.574 87.0898 383.664 86.7969C383.758 86.5039 383.805 86.1426 383.805 85.7129C383.805 85.2793 383.758 84.9199 383.664 84.6348C383.574 84.3457 383.43 84.1289 383.23 83.9844C383.031 83.8398 382.771 83.7676 382.451 83.7676C381.979 83.7676 381.635 83.9297 381.42 84.2539C381.209 84.5781 381.104 85.0645 381.104 85.7129ZM390.83 82.3262C391.529 82.3262 392.092 82.5176 392.518 82.9004C392.943 83.2793 393.156 83.8887 393.156 84.7285V89H391.369V85.1738C391.369 84.7051 391.283 84.3516 391.111 84.1133C390.943 83.875 390.678 83.7559 390.314 83.7559C389.768 83.7559 389.395 83.9414 389.195 84.3125C388.996 84.6836 388.896 85.2188 388.896 85.918V89H387.109V82.4492H388.475L388.715 83.2871H388.814C388.955 83.0605 389.129 82.877 389.336 82.7363C389.547 82.5957 389.779 82.4922 390.033 82.4258C390.291 82.3594 390.557 82.3262 390.83 82.3262ZM399.566 87.0547C399.566 87.5 399.461 87.877 399.25 88.1855C399.043 88.4902 398.732 88.7227 398.318 88.8828C397.904 89.0391 397.389 89.1172 396.771 89.1172C396.314 89.1172 395.922 89.0879 395.594 89.0293C395.27 88.9707 394.941 88.873 394.609 88.7363V87.2598C394.965 87.4199 395.346 87.5527 395.752 87.6582C396.162 87.7598 396.521 87.8105 396.83 87.8105C397.178 87.8105 397.426 87.7598 397.574 87.6582C397.727 87.5527 397.803 87.416 397.803 87.248C397.803 87.1387 397.771 87.041 397.709 86.9551C397.65 86.8652 397.521 86.7656 397.322 86.6562C397.123 86.543 396.811 86.3965 396.385 86.2168C395.975 86.0449 395.637 85.8711 395.371 85.6953C395.109 85.5195 394.914 85.3125 394.785 85.0742C394.66 84.832 394.598 84.5254 394.598 84.1543C394.598 83.5488 394.832 83.0938 395.301 82.7891C395.773 82.4805 396.404 82.3262 397.193 82.3262C397.6 82.3262 397.986 82.3672 398.354 82.4492C398.725 82.5312 399.105 82.6621 399.496 82.8418L398.957 84.1309C398.633 83.9902 398.326 83.875 398.037 83.7852C397.752 83.6953 397.461 83.6504 397.164 83.6504C396.902 83.6504 396.705 83.6855 396.572 83.7559C396.439 83.8262 396.373 83.9336 396.373 84.0781C396.373 84.1836 396.406 84.2773 396.473 84.3594C396.543 84.4414 396.676 84.5332 396.871 84.6348C397.07 84.7324 397.361 84.8594 397.744 85.0156C398.115 85.168 398.438 85.3281 398.711 85.4961C398.984 85.6602 399.195 85.8652 399.344 86.1113C399.492 86.3535 399.566 86.668 399.566 87.0547ZM411.326 84.6348C411.326 85.5996 411.141 86.4062 410.77 87.0547C410.402 87.6992 409.869 88.1855 409.17 88.5137C408.471 88.8379 407.629 89 406.645 89H404.219V80.4336H406.908C407.807 80.4336 408.586 80.5938 409.246 80.9141C409.906 81.2305 410.418 81.7012 410.781 82.3262C411.145 82.9473 411.326 83.7168 411.326 84.6348ZM409.439 84.6816C409.439 84.0488 409.346 83.5293 409.158 83.123C408.975 82.7129 408.701 82.4102 408.338 82.2148C407.979 82.0195 407.533 81.9219 407.002 81.9219H406.035V87.5H406.814C407.701 87.5 408.359 87.2637 408.789 86.791C409.223 86.3184 409.439 85.6152 409.439 84.6816ZM418.973 82.4492V89H417.602L417.361 88.1621H417.268C417.127 88.3848 416.951 88.5664 416.74 88.707C416.529 88.8477 416.297 88.9512 416.043 89.0176C415.789 89.084 415.525 89.1172 415.252 89.1172C414.783 89.1172 414.375 89.0352 414.027 88.8711C413.68 88.7031 413.408 88.4434 413.213 88.0918C413.021 87.7402 412.926 87.2832 412.926 86.7207V82.4492H414.713V86.2754C414.713 86.7441 414.797 87.0977 414.965 87.3359C415.133 87.5742 415.4 87.6934 415.768 87.6934C416.131 87.6934 416.416 87.6113 416.623 87.4473C416.83 87.2793 416.975 87.0352 417.057 86.7148C417.143 86.3906 417.186 85.9961 417.186 85.5312V82.4492H418.973ZM423.549 82.3262C424.154 82.3262 424.676 82.4434 425.113 82.6777C425.551 82.9082 425.889 83.2441 426.127 83.6855C426.365 84.127 426.484 84.666 426.484 85.3027V86.1699H422.26C422.279 86.6738 422.43 87.0703 422.711 87.3594C422.996 87.6445 423.391 87.7871 423.895 87.7871C424.312 87.7871 424.695 87.7441 425.043 87.6582C425.391 87.5723 425.748 87.4434 426.115 87.2715V88.6543C425.791 88.8145 425.451 88.9316 425.096 89.0059C424.744 89.0801 424.316 89.1172 423.812 89.1172C423.156 89.1172 422.574 88.9961 422.066 88.7539C421.562 88.5117 421.166 88.1426 420.877 87.6465C420.592 87.1504 420.449 86.5254 420.449 85.7715C420.449 85.0059 420.578 84.3691 420.836 83.8613C421.098 83.3496 421.461 82.9668 421.926 82.7129C422.391 82.4551 422.932 82.3262 423.549 82.3262ZM423.561 83.5977C423.213 83.5977 422.924 83.709 422.693 83.9316C422.467 84.1543 422.336 84.5039 422.301 84.9805H424.809C424.805 84.7148 424.756 84.4785 424.662 84.2715C424.572 84.0645 424.436 83.9004 424.252 83.7793C424.072 83.6582 423.842 83.5977 423.561 83.5977Z" fill="white"/>
<path d="M344.523 100.705C344.523 101.365 344.439 101.967 344.271 102.51C344.104 103.049 343.854 103.514 343.521 103.904C343.193 104.291 342.785 104.59 342.297 104.801C341.809 105.012 341.242 105.117 340.598 105.117C339.934 105.117 339.354 105.012 338.857 104.801C338.365 104.59 337.955 104.289 337.627 103.898C337.303 103.508 337.059 103.041 336.895 102.498C336.734 101.955 336.654 101.354 336.654 100.693C336.654 99.8184 336.799 99.0508 337.088 98.3906C337.377 97.7305 337.814 97.2168 338.4 96.8496C338.99 96.4824 339.729 96.2988 340.615 96.2988C341.463 96.2988 342.176 96.4805 342.754 96.8438C343.336 97.207 343.775 97.7188 344.072 98.3789C344.373 99.0352 344.523 99.8105 344.523 100.705ZM337.703 100.705C337.703 101.432 337.807 102.061 338.014 102.592C338.221 103.123 338.537 103.533 338.963 103.822C339.393 104.111 339.938 104.256 340.598 104.256C341.262 104.256 341.805 104.111 342.227 103.822C342.652 103.533 342.967 103.123 343.17 102.592C343.373 102.061 343.475 101.432 343.475 100.705C343.475 99.5996 343.242 98.7363 342.777 98.1152C342.316 97.4902 341.596 97.1777 340.615 97.1777C339.951 97.1777 339.404 97.3203 338.975 97.6055C338.545 97.8906 338.225 98.2969 338.014 98.8242C337.807 99.3477 337.703 99.9746 337.703 100.705ZM348.859 105.117C348.281 105.117 347.771 104.998 347.33 104.76C346.889 104.521 346.545 104.158 346.299 103.67C346.053 103.182 345.93 102.566 345.93 101.824C345.93 101.047 346.059 100.412 346.316 99.9199C346.578 99.4238 346.938 99.0566 347.395 98.8184C347.852 98.5801 348.371 98.4609 348.953 98.4609C349.273 98.4609 349.582 98.4941 349.879 98.5605C350.18 98.623 350.426 98.7031 350.617 98.8008L350.324 99.6152C350.129 99.5371 349.902 99.4668 349.645 99.4043C349.391 99.3418 349.152 99.3105 348.93 99.3105C348.484 99.3105 348.113 99.4062 347.816 99.5977C347.523 99.7891 347.303 100.07 347.154 100.441C347.01 100.812 346.938 101.27 346.938 101.812C346.938 102.332 347.008 102.775 347.148 103.143C347.293 103.51 347.506 103.791 347.787 103.986C348.072 104.178 348.428 104.273 348.854 104.273C349.193 104.273 349.5 104.238 349.773 104.168C350.047 104.094 350.295 104.008 350.518 103.91V104.777C350.303 104.887 350.062 104.971 349.797 105.029C349.535 105.088 349.223 105.117 348.859 105.117ZM354.115 104.32C354.275 104.32 354.439 104.307 354.607 104.279C354.775 104.252 354.912 104.219 355.018 104.18V104.936C354.904 104.986 354.746 105.029 354.543 105.064C354.344 105.1 354.148 105.117 353.957 105.117C353.617 105.117 353.309 105.059 353.031 104.941C352.754 104.82 352.531 104.617 352.363 104.332C352.199 104.047 352.117 103.652 352.117 103.148V99.3398H351.203V98.8652L352.123 98.4844L352.51 97.0898H353.096V98.5781H354.977V99.3398H353.096V103.119C353.096 103.521 353.188 103.822 353.371 104.021C353.559 104.221 353.807 104.32 354.115 104.32ZM362.623 105H361.674V98.9297C361.674 98.6992 361.674 98.502 361.674 98.3379C361.678 98.1699 361.682 98.0176 361.686 97.8809C361.693 97.7402 361.703 97.5977 361.715 97.4531C361.594 97.5781 361.48 97.6855 361.375 97.7754C361.27 97.8613 361.139 97.9688 360.982 98.0977L360.004 98.8828L359.494 98.2207L361.814 96.4336H362.623V105ZM365.957 101.338C365.957 100.822 365.992 100.318 366.062 99.8262C366.137 99.334 366.26 98.877 366.432 98.4551C366.604 98.0293 366.838 97.6562 367.135 97.3359C367.432 97.0156 367.801 96.7656 368.242 96.5859C368.688 96.4023 369.221 96.3105 369.842 96.3105C370.018 96.3105 370.207 96.3203 370.41 96.3398C370.613 96.3555 370.781 96.3828 370.914 96.4219V97.2598C370.77 97.209 370.604 97.1719 370.416 97.1484C370.232 97.125 370.047 97.1133 369.859 97.1133C369.133 97.1133 368.561 97.2715 368.143 97.5879C367.729 97.9043 367.43 98.334 367.246 98.877C367.062 99.416 366.957 100.023 366.93 100.699H366.994C367.115 100.504 367.27 100.328 367.457 100.172C367.645 100.012 367.871 99.8848 368.137 99.791C368.406 99.6973 368.719 99.6504 369.074 99.6504C369.574 99.6504 370.01 99.752 370.381 99.9551C370.756 100.158 371.045 100.453 371.248 100.84C371.455 101.227 371.559 101.695 371.559 102.246C371.559 102.836 371.449 103.346 371.23 103.775C371.012 104.205 370.699 104.537 370.293 104.771C369.891 105.002 369.41 105.117 368.852 105.117C368.434 105.117 368.049 105.037 367.697 104.877C367.346 104.717 367.039 104.479 366.777 104.162C366.52 103.846 366.318 103.453 366.174 102.984C366.029 102.512 365.957 101.963 365.957 101.338ZM368.84 104.297C369.371 104.297 369.797 104.127 370.117 103.787C370.438 103.447 370.598 102.934 370.598 102.246C370.598 101.684 370.455 101.238 370.17 100.91C369.885 100.582 369.455 100.418 368.881 100.418C368.49 100.418 368.15 100.5 367.861 100.664C367.572 100.824 367.348 101.027 367.188 101.273C367.027 101.52 366.947 101.77 366.947 102.023C366.947 102.281 366.984 102.543 367.059 102.809C367.137 103.074 367.254 103.32 367.41 103.547C367.566 103.773 367.764 103.955 368.002 104.092C368.24 104.229 368.52 104.297 368.84 104.297ZM374.283 103.605L374.359 103.74C374.289 104.025 374.199 104.33 374.09 104.654C373.984 104.979 373.867 105.303 373.738 105.627C373.613 105.955 373.486 106.262 373.357 106.547H372.631C372.713 106.234 372.793 105.904 372.871 105.557C372.949 105.213 373.02 104.873 373.082 104.537C373.148 104.197 373.201 103.887 373.24 103.605H374.283ZM382.58 105H381.631V98.9297C381.631 98.6992 381.631 98.502 381.631 98.3379C381.635 98.1699 381.639 98.0176 381.643 97.8809C381.65 97.7402 381.66 97.5977 381.672 97.4531C381.551 97.5781 381.438 97.6855 381.332 97.7754C381.227 97.8613 381.096 97.9688 380.939 98.0977L379.961 98.8828L379.451 98.2207L381.771 96.4336H382.58V105ZM389.447 105H388.498V98.9297C388.498 98.6992 388.498 98.502 388.498 98.3379C388.502 98.1699 388.506 98.0176 388.51 97.8809C388.518 97.7402 388.527 97.5977 388.539 97.4531C388.418 97.5781 388.305 97.6855 388.199 97.7754C388.094 97.8613 387.963 97.9688 387.807 98.0977L386.828 98.8828L386.318 98.2207L388.639 96.4336H389.447V105ZM392.98 104.391C392.98 104.117 393.047 103.924 393.18 103.811C393.312 103.693 393.475 103.635 393.666 103.635C393.865 103.635 394.033 103.693 394.17 103.811C394.307 103.924 394.375 104.117 394.375 104.391C394.375 104.66 394.307 104.857 394.17 104.982C394.033 105.104 393.865 105.164 393.666 105.164C393.475 105.164 393.312 105.104 393.18 104.982C393.047 104.857 392.98 104.66 392.98 104.391ZM392.98 99.1934C392.98 98.9121 393.047 98.7148 393.18 98.6016C393.312 98.4844 393.475 98.4258 393.666 98.4258C393.865 98.4258 394.033 98.4844 394.17 98.6016C394.307 98.7148 394.375 98.9121 394.375 99.1934C394.375 99.459 394.307 99.6523 394.17 99.7734C394.033 99.8945 393.865 99.9551 393.666 99.9551C393.475 99.9551 393.312 99.8945 393.18 99.7734C393.047 99.6523 392.98 99.459 392.98 99.1934ZM398.553 99.7617C399.135 99.7617 399.641 99.8613 400.07 100.061C400.5 100.256 400.832 100.541 401.066 100.916C401.305 101.291 401.424 101.746 401.424 102.281C401.424 102.867 401.297 103.373 401.043 103.799C400.789 104.221 400.424 104.547 399.947 104.777C399.471 105.004 398.9 105.117 398.236 105.117C397.791 105.117 397.377 105.078 396.994 105C396.611 104.922 396.289 104.805 396.027 104.648V103.723C396.312 103.895 396.658 104.031 397.064 104.133C397.471 104.234 397.865 104.285 398.248 104.285C398.682 104.285 399.061 104.217 399.385 104.08C399.713 103.939 399.967 103.729 400.146 103.447C400.33 103.162 400.422 102.805 400.422 102.375C400.422 101.805 400.246 101.365 399.895 101.057C399.547 100.744 398.996 100.588 398.242 100.588C398 100.588 397.734 100.607 397.445 100.646C397.156 100.686 396.918 100.729 396.73 100.775L396.238 100.453L396.566 96.4336H400.826V97.3242H397.398L397.182 99.9082C397.33 99.877 397.521 99.8457 397.756 99.8145C397.99 99.7793 398.256 99.7617 398.553 99.7617ZM408.338 100.084C408.338 100.604 408.301 101.109 408.227 101.602C408.156 102.094 408.033 102.553 407.857 102.979C407.686 103.404 407.451 103.777 407.154 104.098C406.857 104.418 406.484 104.67 406.035 104.854C405.59 105.033 405.057 105.123 404.436 105.123C404.268 105.123 404.076 105.111 403.861 105.088C403.646 105.068 403.471 105.039 403.334 105V104.156C403.479 104.207 403.648 104.248 403.844 104.279C404.039 104.307 404.23 104.32 404.418 104.32C405.148 104.32 405.723 104.164 406.141 103.852C406.559 103.535 406.859 103.107 407.043 102.568C407.227 102.025 407.33 101.416 407.354 100.74H407.283C407.166 100.928 407.012 101.102 406.82 101.262C406.633 101.418 406.404 101.545 406.135 101.643C405.865 101.736 405.551 101.783 405.191 101.783C404.695 101.783 404.262 101.682 403.891 101.479C403.523 101.275 403.236 100.98 403.029 100.594C402.826 100.207 402.725 99.7402 402.725 99.1934C402.725 98.6035 402.836 98.0938 403.059 97.6641C403.285 97.2305 403.602 96.8965 404.008 96.6621C404.414 96.4277 404.893 96.3105 405.443 96.3105C405.865 96.3105 406.252 96.3906 406.604 96.5508C406.955 96.7109 407.26 96.9512 407.518 97.2715C407.779 97.5879 407.98 97.9805 408.121 98.4492C408.266 98.918 408.338 99.4629 408.338 100.084ZM405.443 97.1367C404.924 97.1367 404.502 97.3066 404.178 97.6465C403.857 97.9863 403.697 98.498 403.697 99.1816C403.697 99.748 403.836 100.195 404.113 100.523C404.391 100.852 404.818 101.016 405.396 101.016C405.795 101.016 406.139 100.936 406.428 100.775C406.721 100.615 406.945 100.412 407.102 100.166C407.262 99.9199 407.342 99.668 407.342 99.4102C407.342 99.1523 407.303 98.8906 407.225 98.625C407.15 98.3594 407.035 98.1152 406.879 97.8926C406.723 97.666 406.525 97.4844 406.287 97.3477C406.049 97.207 405.768 97.1367 405.443 97.1367ZM412.398 96.4336C413.504 96.4336 414.311 96.6504 414.818 97.084C415.33 97.5137 415.586 98.1309 415.586 98.9355C415.586 99.2988 415.525 99.6445 415.404 99.9727C415.287 100.297 415.096 100.584 414.83 100.834C414.564 101.08 414.215 101.275 413.781 101.42C413.352 101.561 412.824 101.631 412.199 101.631H411.156V105H410.16V96.4336H412.398ZM412.305 97.2832H411.156V100.775H412.088C412.635 100.775 413.09 100.717 413.453 100.6C413.82 100.482 414.096 100.293 414.279 100.031C414.463 99.7656 414.555 99.4141 414.555 98.9766C414.555 98.4062 414.373 97.9824 414.01 97.7051C413.646 97.4238 413.078 97.2832 412.305 97.2832ZM421.146 105L418.27 97.418H418.223C418.238 97.5781 418.252 97.7734 418.264 98.0039C418.275 98.2344 418.285 98.4863 418.293 98.7598C418.301 99.0293 418.305 99.3047 418.305 99.5859V105H417.379V96.4336H418.855L421.568 103.559H421.609L424.363 96.4336H425.828V105H424.844V99.5156C424.844 99.2617 424.848 99.0078 424.855 98.7539C424.863 98.4961 424.873 98.2539 424.885 98.0273C424.896 97.7969 424.908 97.5977 424.92 97.4297H424.873L421.961 105H421.146Z" fill="white"/>
<path d="M37.0712 58.5C32.266 59.3277 26.6033 59.4585 20 58.5H37.0712C50.3131 56.2192 57.0434 48.647 59 44C66.9179 52.7739 76.8108 56.8825 85.6772 58.5H104.5C100.315 59.43 93.3838 59.9059 85.6772 58.5H37.0712Z" fill="#65C8D0"/>
<path d="M94.0712 58.5C89.266 59.3277 83.6033 59.4585 77 58.5H94.0712C107.313 56.2192 114.043 48.647 116 44C123.918 52.7739 133.811 56.8825 142.677 58.5H161.5C157.315 59.43 150.384 59.9059 142.677 58.5H94.0712Z" fill="#65C8D0"/>
<path d="M150.287 58.5C145.703 59.3277 140.3 59.4585 134 58.5H150.287C162.921 56.2192 169.342 48.647 171.208 44C178.763 52.7739 188.201 56.8825 196.66 58.5H214.618C210.626 59.43 204.013 59.9059 196.66 58.5H150.287Z" fill="#65C8D0"/>
<path d="M231.287 58.5C226.703 59.3277 221.3 59.4585 215 58.5H231.287C243.921 56.2192 250.342 48.647 252.208 44C259.763 52.7739 269.201 56.8825 277.66 58.5H295.618C291.626 59.43 285.013 59.9059 277.66 58.5H231.287Z" fill="#65C8D0"/>
<path d="M281.071 58.5C276.266 59.3277 270.603 59.4585 264 58.5H281.071C294.313 56.2192 301.043 48.647 303 44C310.918 52.7739 320.811 56.8825 329.677 58.5H348.5C344.315 59.43 337.384 59.9059 329.677 58.5H281.071Z" fill="#65C8D0"/>
<path d="M338.071 58.5C333.266 59.3277 327.603 59.4585 321 58.5H338.071C351.313 56.2192 358.043 48.647 360 44C367.918 52.7739 377.811 56.8825 386.677 58.5H405.5C401.315 59.43 394.384 59.9059 386.677 58.5H338.071Z" fill="#65C8D0"/>
<path d="M433.5 31L414 17V33L433.5 31Z" fill="#E34E4E"/>
<path d="M414 49V33M414 33V17L433.5 31L414 33Z" stroke="#E34E4E" stroke-width="4"/>
<path d="M211.5 1C214.333 5.66667 218.8 17.6 214 28L224 26.5C227 22.6667 231.5 12.2 225.5 1H211.5Z" fill="#4763C7" stroke="#4763C7"/>
<path d="M207.5 28.5C209.5 25.3333 212.3 17.3 207.5 10.5C207 14.1667 204.6 23.1 199 29.5L207.5 28.5Z" fill="#4763C7" stroke="#4763C7"/>
<path d="M197 37V33L232.5 29.5L226.5 36C225.5 36.5 223.4 37.2 223 36C221 36.5 216.8 37.2 216 36C213.833 36.8333 209.5 38 209.5 36C208.167 36.6667 205.5 37.6 205.5 36C205 36.5 203.8 37.2 203 36C202.167 36.6667 200.3 37.7 199.5 36.5C199 37 197.8 37.8 197 37Z" fill="#4763C7" stroke="#4763C7"/>
</svg>
